<ttFont>
<head>
    <!-- Most of this table will be recalculated by the compiler -->
    <tableVersion value="1.0"/>
    <fontRevision value="2.006"/>
    <checkSumAdjustment value="0xcd2ae67d"/>
    <magicNumber value="0x5f0f3cf5"/>
    <flags value="00000000 00001001"/>
    <unitsPerEm value="1000"/>
    <created value="Fri Jun 20 01:44:42 2014"/>
    <modified value="Mon Oct 26 09:19:43 2020"/>
    <xMin value="-260"/>
    <yMin value="-254"/>
    <xMax value="1236"/>
    <yMax value="1128"/>
    <macStyle value="00000000 00000000"/>
    <lowestRecPPEM value="9"/>
    <fontDirectionHint value="2"/>
    <indexToLocFormat value="0"/>
    <glyphDataFormat value="0"/>
  </head>
    <TTGlyph name=".notdef" xMin="32" yMin="0" xMax="432" yMax="780">
      <contour>
        <pt x="32" y="0" on="1"/>
        <pt x="32" y="780" on="1"/>
        <pt x="432" y="780" on="1"/>
        <pt x="432" y="0" on="1"/>
      </contour>
      <contour>
        <pt x="80" y="48" on="1"/>
        <pt x="384" y="48" on="1"/>
        <pt x="384" y="732" on="1"/>
        <pt x="80" y="732" on="1"/>
      </contour>
    </TTGlyph>
    <TTGlyph name="A" xMin="16" yMin="0" xMax="673" yMax="698">
      <contour>
        <pt x="16" y="50" on="1"/>
        <pt x="68" y="50" on="1"/>
        <pt x="293" y="698" on="1"/>
        <pt x="396" y="698" on="1"/>
        <pt x="621" y="50" on="1"/>
        <pt x="673" y="50" on="1"/>
        <pt x="673" y="0" on="1"/>
        <pt x="427" y="0" on="1"/>
        <pt x="427" y="50" on="1"/>
        <pt x="515" y="50" on="1"/>
        <pt x="455" y="224" on="1"/>
        <pt x="191" y="224" on="1"/>
        <pt x="131" y="50" on="1"/>
        <pt x="219" y="50" on="1"/>
        <pt x="219" y="0" on="1"/>
        <pt x="16" y="0" on="1"/>
      </contour>
      <contour>
        <pt x="207" y="276" on="1"/>
        <pt x="441" y="276" on="1"/>
        <pt x="326" y="617" on="1"/>
        <pt x="322" y="617" on="1"/>
      </contour>
    </TTGlyph>
    <TTGlyph name="AE" xMin="15" yMin="0" xMax="909" yMax="698">
      <contour>
        <pt x="15" y="50" on="1"/>
        <pt x="67" y="50" on="1"/>
        <pt x="378" y="648" on="1"/>
        <pt x="302" y="648" on="1"/>
        <pt x="302" y="698" on="1"/>
        <pt x="900" y="698" on="1"/>
        <pt x="900" y="527" on="1"/>
        <pt x="820" y="527" on="1"/>
        <pt x="820" y="644" on="1"/>
        <pt x="551" y="644" on="1"/>
        <pt x="551" y="388" on="1"/>
        <pt x="736" y="388" on="1"/>
        <pt x="736" y="464" on="1"/>
        <pt x="799" y="464" on="1"/>
        <pt x="799" y="258" on="1"/>
        <pt x="736" y="258" on="1"/>
        <pt x="736" y="334" on="1"/>
        <pt x="551" y="334" on="1"/>
        <pt x="551" y="54" on="1"/>
        <pt x="829" y="54" on="1"/>
        <pt x="829" y="182" on="1"/>
        <pt x="909" y="182" on="1"/>
        <pt x="909" y="0" on="1"/>
        <pt x="376" y="0" on="1"/>
        <pt x="376" y="50" on="1"/>
        <pt x="450" y="50" on="1"/>
        <pt x="450" y="224" on="1"/>
        <pt x="223" y="224" on="1"/>
        <pt x="133" y="50" on="1"/>
        <pt x="209" y="50" on="1"/>
        <pt x="209" y="0" on="1"/>
        <pt x="15" y="0" on="1"/>
      </contour>
      <contour>
        <pt x="247" y="276" on="1"/>
        <pt x="450" y="276" on="1"/>
        <pt x="450" y="648" on="1"/>
        <pt x="440" y="648" on="1"/>
      </contour>
    </TTGlyph>
    <TTGlyph name="AEacute" xMin="15" yMin="0" xMax="909" yMax="957">
      <component glyphName="AE" x="0" y="0" flags="0x204"/>
      <component glyphName="acute.case" x="313" y="0" flags="0x4"/>
    </TTGlyph>
    <TTGlyph name="Aacute" xMin="16" yMin="0" xMax="673" yMax="957">
      <component glyphName="A" x="0" y="0" flags="0x204"/>
      <component glyphName="acute.case" x="45" y="0" flags="0x4"/>
    </TTGlyph>
    <TTGlyph name="Abreve" xMin="16" yMin="0" xMax="673" yMax="923">
      <component glyphName="A" x="0" y="0" flags="0x204"/>
      <component glyphName="breve.case" x="45" y="0" flags="0x4"/>
    </TTGlyph>
    <TTGlyph name="Abreveacute" xMin="16" yMin="0" xMax="673" yMax="1072">
      <component glyphName="A" x="0" y="0" flags="0x204"/>
      <component glyphName="breveacute.case" x="345" y="0" flags="0x4"/>
    </TTGlyph>
    <TTGlyph name="Abrevedotbelow" xMin="16" yMin="-170" xMax="673" yMax="923">
      <component glyphName="A" x="0" y="0" flags="0x204"/>
      <component glyphName="breve.case" x="45" y="0" flags="0x4"/>
      <component glyphName="dotbelowcomb" x="323" y="0" flags="0x4"/>
    </TTGlyph>
    <TTGlyph name="Abrevegrave" xMin="16" yMin="0" xMax="673" yMax="1072">
      <component glyphName="A" x="0" y="0" flags="0x204"/>
      <component glyphName="brevegrave.case" x="345" y="0" flags="0x4"/>
    </TTGlyph>
    <TTGlyph name="Abrevehook" xMin="16" yMin="0" xMax="673" yMax="1061">
      <component glyphName="A" x="0" y="0" flags="0x204"/>
      <component glyphName="brevehook.case" x="345" y="0" flags="0x4"/>
    </TTGlyph>
    <TTGlyph name="Abrevetilde" xMin="16" yMin="0" xMax="673" yMax="1059">
      <component glyphName="A" x="0" y="0" flags="0x204"/>
      <component glyphName="brevetilde.case" x="345" y="0" flags="0x4"/>
    </TTGlyph>
    <TTGlyph name="Acircumflex" xMin="16" yMin="0" xMax="673" yMax="938">
      <component glyphName="A" x="0" y="0" flags="0x204"/>
      <component glyphName="circumflex.case" x="45" y="0" flags="0x4"/>
    </TTGlyph>
    <TTGlyph name="Acircumflexacute" xMin="16" yMin="0" xMax="673" yMax="1071">
      <component glyphName="A" x="0" y="0" flags="0x204"/>
      <component glyphName="circumflexacute.case" x="345" y="0" flags="0x4"/>
    </TTGlyph>
    <TTGlyph name="Acircumflexdotbelow" xMin="16" yMin="-170" xMax="673" yMax="938">
      <component glyphName="A" x="0" y="0" flags="0x204"/>
      <component glyphName="circumflex.case" x="45" y="0" flags="0x4"/>
      <component glyphName="dotbelowcomb" x="323" y="0" flags="0x4"/>
    </TTGlyph>
    <TTGlyph name="Acircumflexgrave" xMin="16" yMin="0" xMax="673" yMax="1071">
      <component glyphName="A" x="0" y="0" flags="0x204"/>
      <component glyphName="circumflexgrave.case" x="345" y="0" flags="0x4"/>
    </TTGlyph>
    <TTGlyph name="Acircumflexhook" xMin="16" yMin="0" xMax="673" yMax="1060">
      <component glyphName="A" x="0" y="0" flags="0x204"/>
      <component glyphName="circumflexhook.case" x="345" y="0" flags="0x4"/>
    </TTGlyph>
    <TTGlyph name="Acircumflextilde" xMin="16" yMin="0" xMax="673" yMax="1059">
      <component glyphName="A" x="0" y="0" flags="0x204"/>
      <component glyphName="circumflextilde.case" x="345" y="0" flags="0x4"/>
    </TTGlyph>
    <TTGlyph name="Adieresis" xMin="16" yMin="0" xMax="673" yMax="896">
      <component glyphName="A" x="0" y="0" flags="0x204"/>
      <component glyphName="dieresis.case" x="45" y="0" flags="0x4"/>
    </TTGlyph>
    <TTGlyph name="Adotbelow" xMin="16" yMin="-170" xMax="673" yMax="698">
      <component glyphName="A" x="0" y="0" flags="0x204"/>
      <component glyphName="dotbelowcomb" x="323" y="0" flags="0x4"/>
    </TTGlyph>
    <TTGlyph name="Agrave" xMin="16" yMin="0" xMax="673" yMax="957">
      <component glyphName="A" x="0" y="0" flags="0x204"/>
      <component glyphName="grave.case" x="45" y="0" flags="0x4"/>
    </TTGlyph>
    <TTGlyph name="Ahook" xMin="16" yMin="0" xMax="673" yMax="939">
      <component glyphName="A" x="0" y="0" flags="0x204"/>
      <component glyphName="hookcomb.case" x="345" y="0" flags="0x4"/>
    </TTGlyph>
    <TTGlyph name="Amacron" xMin="16" yMin="0" xMax="673" yMax="872">
      <component glyphName="A" x="0" y="0" flags="0x204"/>
      <component glyphName="macron.case" x="45" y="0" flags="0x4"/>
    </TTGlyph>
    <TTGlyph name="Aogonek" xMin="16" yMin="-206" xMax="688" yMax="698">
      <contour>
        <pt x="598" y="-206" on="1"/>
        <pt x="559" y="-206" on="0"/>
        <pt x="505" y="-170" on="0"/>
        <pt x="505" y="-130" on="1"/>
        <pt x="505" y="-92" on="0"/>
        <pt x="573" y="-33" on="0"/>
        <pt x="626" y="-4" on="1"/>
        <pt x="625" y="0" on="1"/>
        <pt x="427" y="0" on="1"/>
        <pt x="427" y="50" on="1"/>
        <pt x="515" y="50" on="1"/>
        <pt x="455" y="224" on="1"/>
        <pt x="191" y="224" on="1"/>
        <pt x="131" y="50" on="1"/>
        <pt x="219" y="50" on="1"/>
        <pt x="219" y="0" on="1"/>
        <pt x="16" y="0" on="1"/>
        <pt x="16" y="50" on="1"/>
        <pt x="68" y="50" on="1"/>
        <pt x="293" y="698" on="1"/>
        <pt x="396" y="698" on="1"/>
        <pt x="621" y="50" on="1"/>
        <pt x="673" y="50" on="1"/>
        <pt x="673" y="0" on="1"/>
        <pt x="642" y="-26" on="0"/>
        <pt x="605" y="-63" on="0"/>
        <pt x="585" y="-90" on="0"/>
        <pt x="579" y="-110" on="0"/>
        <pt x="579" y="-119" on="1"/>
        <pt x="579" y="-139" on="0"/>
        <pt x="601" y="-165" on="0"/>
        <pt x="621" y="-165" on="1"/>
        <pt x="635" y="-165" on="0"/>
        <pt x="657" y="-152" on="0"/>
        <pt x="664" y="-143" on="1"/>
        <pt x="688" y="-166" on="1"/>
        <pt x="677" y="-183" on="0"/>
        <pt x="633" y="-206" on="0"/>
      </contour>
      <contour>
        <pt x="207" y="276" on="1"/>
        <pt x="441" y="276" on="1"/>
        <pt x="326" y="617" on="1"/>
        <pt x="322" y="617" on="1"/>
      </contour>
    </TTGlyph>
    <TTGlyph name="Aring" xMin="16" yMin="0" xMax="673" yMax="977">
      <component glyphName="A" x="0" y="0" flags="0x204"/>
      <component glyphName="ring.case" x="45" y="0" flags="0x4"/>
    </TTGlyph>
    <TTGlyph name="Aringacute" xMin="16" yMin="0" xMax="673" yMax="1128">
      <component glyphName="A" x="0" y="0" flags="0x204"/>
      <component glyphName="ringacute.case" x="45" y="0" flags="0x4"/>
    </TTGlyph>
    <TTGlyph name="Atilde" xMin="16" yMin="0" xMax="673" yMax="900">
      <component glyphName="A" x="0" y="0" flags="0x204"/>
      <component glyphName="tilde.case" x="45" y="0" flags="0x4"/>
    </TTGlyph>
    <TTGlyph name="B" xMin="52" yMin="0" xMax="614" yMax="698">
      <contour>
        <pt x="52" y="50" on="1"/>
        <pt x="126" y="50" on="1"/>
        <pt x="126" y="648" on="1"/>
        <pt x="52" y="648" on="1"/>
        <pt x="52" y="698" on="1"/>
        <pt x="391" y="698" on="1"/>
        <pt x="485" y="698" on="0"/>
        <pt x="587" y="607" on="0"/>
        <pt x="587" y="533" on="1"/>
        <pt x="587" y="496" on="0"/>
        <pt x="564" y="439" on="0"/>
        <pt x="527" y="397" on="0"/>
        <pt x="478" y="372" on="0"/>
        <pt x="452" y="367" on="1"/>
        <pt x="452" y="363" on="1"/>
        <pt x="479" y="361" on="0"/>
        <pt x="536" y="338" on="0"/>
        <pt x="584" y="296" on="0"/>
        <pt x="614" y="235" on="0"/>
        <pt x="614" y="194" on="1"/>
        <pt x="614" y="149" on="0"/>
        <pt x="586" y="78" on="0"/>
        <pt x="535" y="27" on="0"/>
        <pt x="463" y="0" on="0"/>
        <pt x="419" y="0" on="1"/>
        <pt x="52" y="0" on="1"/>
      </contour>
      <contour>
        <pt x="227" y="54" on="1"/>
        <pt x="387" y="54" on="1"/>
        <pt x="444" y="54" on="0"/>
        <pt x="508" y="119" on="0"/>
        <pt x="508" y="172" on="1"/>
        <pt x="508" y="216" on="1"/>
        <pt x="508" y="269" on="0"/>
        <pt x="444" y="334" on="0"/>
        <pt x="387" y="334" on="1"/>
        <pt x="227" y="334" on="1"/>
      </contour>
      <contour>
        <pt x="227" y="388" on="1"/>
        <pt x="371" y="388" on="1"/>
        <pt x="424" y="388" on="0"/>
        <pt x="481" y="446" on="0"/>
        <pt x="481" y="494" on="1"/>
        <pt x="481" y="538" on="1"/>
        <pt x="481" y="586" on="0"/>
        <pt x="424" y="644" on="0"/>
        <pt x="371" y="644" on="1"/>
        <pt x="227" y="644" on="1"/>
      </contour>
    </TTGlyph>
    <TTGlyph name="C" xMin="50" yMin="-12" xMax="595" yMax="710">
      <contour>
        <pt x="346" y="-12" on="1"/>
        <pt x="278" y="-12" on="0"/>
        <pt x="169" y="39" on="0"/>
        <pt x="92" y="134" on="0"/>
        <pt x="50" y="267" on="0"/>
        <pt x="50" y="349" on="1"/>
        <pt x="50" y="436" on="0"/>
        <pt x="93" y="571" on="0"/>
        <pt x="170" y="662" on="0"/>
        <pt x="276" y="710" on="0"/>
        <pt x="339" y="710" on="1"/>
        <pt x="404" y="710" on="0"/>
        <pt x="488" y="666" on="0"/>
        <pt x="502" y="636" on="1"/>
        <pt x="506" y="636" on="1"/>
        <pt x="506" y="698" on="1"/>
        <pt x="586" y="698" on="1"/>
        <pt x="586" y="491" on="1"/>
        <pt x="506" y="491" on="1"/>
        <pt x="506" y="541" on="1"/>
        <pt x="506" y="591" on="0"/>
        <pt x="422" y="653" on="0"/>
        <pt x="352" y="653" on="1"/>
        <pt x="303" y="653" on="0"/>
        <pt x="231" y="617" on="0"/>
        <pt x="185" y="555" on="0"/>
        <pt x="162" y="471" on="0"/>
        <pt x="162" y="422" on="1"/>
        <pt x="162" y="285" on="1"/>
        <pt x="162" y="179" on="0"/>
        <pt x="270" y="57" on="0"/>
        <pt x="366" y="57" on="1"/>
        <pt x="436" y="57" on="0"/>
        <pt x="531" y="130" on="0"/>
        <pt x="553" y="187" on="1"/>
        <pt x="595" y="165" on="1"/>
        <pt x="585" y="135" on="0"/>
        <pt x="544" y="72" on="0"/>
        <pt x="482" y="21" on="0"/>
        <pt x="398" y="-12" on="0"/>
      </contour>
    </TTGlyph>
    <TTGlyph name="Cacute" xMin="50" yMin="-12" xMax="595" yMax="957">
      <component glyphName="C" x="0" y="0" flags="0x204"/>
      <component glyphName="acute.case" x="41" y="0" flags="0x4"/>
    </TTGlyph>
    <TTGlyph name="Ccaron" xMin="50" yMin="-12" xMax="595" yMax="942">
      <component glyphName="C" x="0" y="0" flags="0x204"/>
      <component glyphName="caron.case" x="41" y="0" flags="0x4"/>
    </TTGlyph>
    <TTGlyph name="Ccedilla" xMin="50" yMin="-206" xMax="595" yMax="710">
      <contour>
        <pt x="356" y="-206" on="1"/>
        <pt x="318" y="-206" on="0"/>
        <pt x="275" y="-180" on="0"/>
        <pt x="264" y="-166" on="1"/>
        <pt x="286" y="-142" on="1"/>
        <pt x="296" y="-153" on="0"/>
        <pt x="325" y="-166" on="0"/>
        <pt x="345" y="-166" on="1"/>
        <pt x="368" y="-166" on="0"/>
        <pt x="397" y="-146" on="0"/>
        <pt x="397" y="-125" on="1"/>
        <pt x="397" y="-110" on="0"/>
        <pt x="374" y="-84" on="0"/>
        <pt x="336" y="-79" on="1"/>
        <pt x="309" y="-76" on="1"/>
        <pt x="322" y="-11" on="1"/>
        <pt x="259" y="-7" on="0"/>
        <pt x="159" y="48" on="0"/>
        <pt x="88" y="142" on="0"/>
        <pt x="50" y="271" on="0"/>
        <pt x="50" y="349" on="1"/>
        <pt x="50" y="436" on="0"/>
        <pt x="93" y="571" on="0"/>
        <pt x="170" y="662" on="0"/>
        <pt x="276" y="710" on="0"/>
        <pt x="339" y="710" on="1"/>
        <pt x="404" y="710" on="0"/>
        <pt x="488" y="666" on="0"/>
        <pt x="502" y="636" on="1"/>
        <pt x="506" y="636" on="1"/>
        <pt x="506" y="698" on="1"/>
        <pt x="586" y="698" on="1"/>
        <pt x="586" y="491" on="1"/>
        <pt x="506" y="491" on="1"/>
        <pt x="506" y="541" on="1"/>
        <pt x="506" y="591" on="0"/>
        <pt x="422" y="653" on="0"/>
        <pt x="352" y="653" on="1"/>
        <pt x="303" y="653" on="0"/>
        <pt x="231" y="617" on="0"/>
        <pt x="185" y="555" on="0"/>
        <pt x="162" y="471" on="0"/>
        <pt x="162" y="422" on="1"/>
        <pt x="162" y="285" on="1"/>
        <pt x="162" y="179" on="0"/>
        <pt x="270" y="57" on="0"/>
        <pt x="366" y="57" on="1"/>
        <pt x="436" y="57" on="0"/>
        <pt x="531" y="130" on="0"/>
        <pt x="553" y="187" on="1"/>
        <pt x="595" y="165" on="1"/>
        <pt x="586" y="136" on="0"/>
        <pt x="547" y="75" on="0"/>
        <pt x="490" y="25" on="0"/>
        <pt x="412" y="-8" on="0"/>
        <pt x="364" y="-11" on="1"/>
        <pt x="354" y="-60" on="1"/>
        <pt x="357" y="-63" on="1"/>
        <pt x="377" y="-58" on="0"/>
        <pt x="394" y="-58" on="1"/>
        <pt x="426" y="-58" on="0"/>
        <pt x="469" y="-91" on="0"/>
        <pt x="469" y="-123" on="1"/>
        <pt x="469" y="-145" on="0"/>
        <pt x="451" y="-176" on="0"/>
        <pt x="419" y="-196" on="0"/>
        <pt x="378" y="-206" on="0"/>
      </contour>
    </TTGlyph>
    <TTGlyph name="Ccircumflex" xMin="50" yMin="-12" xMax="595" yMax="938">
      <component glyphName="C" x="0" y="0" flags="0x204"/>
      <component glyphName="circumflex.case" x="41" y="0" flags="0x4"/>
    </TTGlyph>
    <TTGlyph name="Cdotaccent" xMin="50" yMin="-12" xMax="595" yMax="898">
      <component glyphName="C" x="0" y="0" flags="0x204"/>
      <component glyphName="dotaccent.case" x="41" y="0" flags="0x4"/>
    </TTGlyph>
    <TTGlyph name="D" xMin="52" yMin="0" xMax="665" yMax="698">
      <contour>
        <pt x="52" y="50" on="1"/>
        <pt x="126" y="50" on="1"/>
        <pt x="126" y="648" on="1"/>
        <pt x="52" y="648" on="1"/>
        <pt x="52" y="698" on="1"/>
        <pt x="351" y="698" on="1"/>
        <pt x="421" y="698" on="0"/>
        <pt x="536" y="654" on="0"/>
        <pt x="619" y="567" on="0"/>
        <pt x="665" y="436" on="0"/>
        <pt x="665" y="349" on="1"/>
        <pt x="665" y="262" on="0"/>
        <pt x="619" y="131" on="0"/>
        <pt x="536" y="44" on="0"/>
        <pt x="421" y="0" on="0"/>
        <pt x="351" y="0" on="1"/>
        <pt x="52" y="0" on="1"/>
      </contour>
      <contour>
        <pt x="227" y="54" on="1"/>
        <pt x="338" y="54" on="1"/>
        <pt x="441" y="54" on="0"/>
        <pt x="553" y="176" on="0"/>
        <pt x="553" y="283" on="1"/>
        <pt x="553" y="415" on="1"/>
        <pt x="553" y="522" on="0"/>
        <pt x="441" y="644" on="0"/>
        <pt x="338" y="644" on="1"/>
        <pt x="227" y="644" on="1"/>
      </contour>
    </TTGlyph>
    <TTGlyph name="Dcaron" xMin="52" yMin="0" xMax="665" yMax="942">
      <component glyphName="D" x="0" y="0" flags="0x204"/>
      <component glyphName="caron.case" x="21" y="0" flags="0x4"/>
    </TTGlyph>
    <TTGlyph name="Dcroat" xMin="38" yMin="0" xMax="665" yMax="698">
      <contour>
        <pt x="52" y="50" on="1"/>
        <pt x="126" y="50" on="1"/>
        <pt x="126" y="323" on="1"/>
        <pt x="38" y="323" on="1"/>
        <pt x="38" y="375" on="1"/>
        <pt x="126" y="375" on="1"/>
        <pt x="126" y="648" on="1"/>
        <pt x="52" y="648" on="1"/>
        <pt x="52" y="698" on="1"/>
        <pt x="351" y="698" on="1"/>
        <pt x="421" y="698" on="0"/>
        <pt x="536" y="654" on="0"/>
        <pt x="619" y="567" on="0"/>
        <pt x="665" y="436" on="0"/>
        <pt x="665" y="349" on="1"/>
        <pt x="665" y="262" on="0"/>
        <pt x="619" y="131" on="0"/>
        <pt x="536" y="44" on="0"/>
        <pt x="421" y="0" on="0"/>
        <pt x="351" y="0" on="1"/>
        <pt x="52" y="0" on="1"/>
      </contour>
      <contour>
        <pt x="227" y="54" on="1"/>
        <pt x="338" y="54" on="1"/>
        <pt x="441" y="54" on="0"/>
        <pt x="553" y="176" on="0"/>
        <pt x="553" y="283" on="1"/>
        <pt x="553" y="415" on="1"/>
        <pt x="553" y="522" on="0"/>
        <pt x="441" y="644" on="0"/>
        <pt x="338" y="644" on="1"/>
        <pt x="227" y="644" on="1"/>
        <pt x="227" y="375" on="1"/>
        <pt x="359" y="375" on="1"/>
        <pt x="359" y="323" on="1"/>
        <pt x="227" y="323" on="1"/>
      </contour>
    </TTGlyph>
    <TTGlyph name="Delta" xMin="42" yMin="0" xMax="595" yMax="698">
      <contour>
        <pt x="42" y="51" on="1"/>
        <pt x="267" y="698" on="1"/>
        <pt x="370" y="698" on="1"/>
        <pt x="595" y="51" on="1"/>
        <pt x="595" y="0" on="1"/>
        <pt x="42" y="0" on="1"/>
      </contour>
      <contour>
        <pt x="106" y="54" on="1"/>
        <pt x="488" y="54" on="1"/>
        <pt x="300" y="616" on="1"/>
        <pt x="294" y="616" on="1"/>
      </contour>
    </TTGlyph>
    <TTGlyph name="E" xMin="52" yMin="0" xMax="585" yMax="698">
      <contour>
        <pt x="52" y="50" on="1"/>
        <pt x="126" y="50" on="1"/>
        <pt x="126" y="648" on="1"/>
        <pt x="52" y="648" on="1"/>
        <pt x="52" y="698" on="1"/>
        <pt x="576" y="698" on="1"/>
        <pt x="576" y="527" on="1"/>
        <pt x="496" y="527" on="1"/>
        <pt x="496" y="644" on="1"/>
        <pt x="227" y="644" on="1"/>
        <pt x="227" y="388" on="1"/>
        <pt x="412" y="388" on="1"/>
        <pt x="412" y="464" on="1"/>
        <pt x="475" y="464" on="1"/>
        <pt x="475" y="258" on="1"/>
        <pt x="412" y="258" on="1"/>
        <pt x="412" y="334" on="1"/>
        <pt x="227" y="334" on="1"/>
        <pt x="227" y="54" on="1"/>
        <pt x="505" y="54" on="1"/>
        <pt x="505" y="182" on="1"/>
        <pt x="585" y="182" on="1"/>
        <pt x="585" y="0" on="1"/>
        <pt x="52" y="0" on="1"/>
      </contour>
    </TTGlyph>
    <TTGlyph name="Eacute" xMin="52" yMin="0" xMax="585" yMax="957">
      <component glyphName="E" x="0" y="0" flags="0x204"/>
      <component glyphName="acute.case" x="36" y="0" flags="0x4"/>
    </TTGlyph>
    <TTGlyph name="Ebreve" xMin="52" yMin="0" xMax="585" yMax="923">
      <component glyphName="E" x="0" y="0" flags="0x204"/>
      <component glyphName="breve.case" x="36" y="0" flags="0x4"/>
    </TTGlyph>
    <TTGlyph name="Ecaron" xMin="52" yMin="0" xMax="585" yMax="942">
      <component glyphName="E" x="0" y="0" flags="0x204"/>
      <component glyphName="caron.case" x="36" y="0" flags="0x4"/>
    </TTGlyph>
    <TTGlyph name="Ecircumflex" xMin="52" yMin="0" xMax="585" yMax="938">
      <component glyphName="E" x="0" y="0" flags="0x204"/>
      <component glyphName="circumflex.case" x="36" y="0" flags="0x4"/>
    </TTGlyph>
    <TTGlyph name="Ecircumflexacute" xMin="52" yMin="0" xMax="596" yMax="1071">
      <component glyphName="E" x="0" y="0" flags="0x204"/>
      <component glyphName="circumflexacute.case" x="336" y="0" flags="0x4"/>
    </TTGlyph>
    <TTGlyph name="Ecircumflexdotbelow" xMin="52" yMin="-170" xMax="585" yMax="938">
      <component glyphName="E" x="0" y="0" flags="0x204"/>
      <component glyphName="circumflex.case" x="36" y="0" flags="0x4"/>
      <component glyphName="dotbelowcomb" x="336" y="0" flags="0x4"/>
    </TTGlyph>
    <TTGlyph name="Ecircumflexgrave" xMin="52" yMin="0" xMax="585" yMax="1071">
      <component glyphName="E" x="0" y="0" flags="0x204"/>
      <component glyphName="circumflexgrave.case" x="336" y="0" flags="0x4"/>
    </TTGlyph>
    <TTGlyph name="Ecircumflexhook" xMin="52" yMin="0" xMax="585" yMax="1060">
      <component glyphName="E" x="0" y="0" flags="0x204"/>
      <component glyphName="circumflexhook.case" x="336" y="0" flags="0x4"/>
    </TTGlyph>
    <TTGlyph name="Ecircumflextilde" xMin="52" yMin="0" xMax="585" yMax="1059">
      <component glyphName="E" x="0" y="0" flags="0x204"/>
      <component glyphName="circumflextilde.case" x="336" y="0" flags="0x4"/>
    </TTGlyph>
    <TTGlyph name="Edieresis" xMin="52" yMin="0" xMax="585" yMax="896">
      <component glyphName="E" x="0" y="0" flags="0x204"/>
      <component glyphName="dieresis.case" x="36" y="0" flags="0x4"/>
    </TTGlyph>
    <TTGlyph name="Edotaccent" xMin="52" yMin="0" xMax="585" yMax="898">
      <component glyphName="E" x="0" y="0" flags="0x204"/>
      <component glyphName="dotaccent.case" x="36" y="0" flags="0x4"/>
    </TTGlyph>
    <TTGlyph name="Edotbelow" xMin="52" yMin="-170" xMax="585" yMax="698">
      <component glyphName="E" x="0" y="0" flags="0x204"/>
      <component glyphName="dotbelowcomb" x="336" y="0" flags="0x4"/>
    </TTGlyph>
    <TTGlyph name="Egrave" xMin="52" yMin="0" xMax="585" yMax="957">
      <component glyphName="E" x="0" y="0" flags="0x204"/>
      <component glyphName="grave.case" x="36" y="0" flags="0x4"/>
    </TTGlyph>
    <TTGlyph name="Ehook" xMin="52" yMin="0" xMax="585" yMax="939">
      <component glyphName="E" x="0" y="0" flags="0x204"/>
      <component glyphName="hookcomb.case" x="336" y="0" flags="0x4"/>
    </TTGlyph>
    <TTGlyph name="Emacron" xMin="52" yMin="0" xMax="585" yMax="872">
      <component glyphName="E" x="0" y="0" flags="0x204"/>
      <component glyphName="macron.case" x="36" y="0" flags="0x4"/>
    </TTGlyph>
    <TTGlyph name="Eng" xMin="52" yMin="-212" xMax="736" yMax="698">
      <contour>
        <pt x="538" y="-212" on="1"/>
        <pt x="487" y="-212" on="0"/>
        <pt x="436" y="-167" on="0"/>
        <pt x="436" y="-132" on="1"/>
        <pt x="436" y="-109" on="0"/>
        <pt x="465" y="-76" on="0"/>
        <pt x="489" y="-76" on="1"/>
        <pt x="513" y="-76" on="0"/>
        <pt x="538" y="-104" on="0"/>
        <pt x="538" y="-126" on="1"/>
        <pt x="538" y="-141" on="0"/>
        <pt x="526" y="-164" on="0"/>
        <pt x="516" y="-167" on="1"/>
        <pt x="516" y="-171" on="1"/>
        <pt x="526" y="-174" on="0"/>
        <pt x="540" y="-174" on="1"/>
        <pt x="570" y="-174" on="0"/>
        <pt x="603" y="-127" on="0"/>
        <pt x="603" y="-79" on="1"/>
        <pt x="603" y="0" on="1"/>
        <pt x="580" y="0" on="1"/>
        <pt x="190" y="597" on="1"/>
        <pt x="185" y="597" on="1"/>
        <pt x="185" y="50" on="1"/>
        <pt x="259" y="50" on="1"/>
        <pt x="259" y="0" on="1"/>
        <pt x="52" y="0" on="1"/>
        <pt x="52" y="50" on="1"/>
        <pt x="126" y="50" on="1"/>
        <pt x="126" y="648" on="1"/>
        <pt x="52" y="648" on="1"/>
        <pt x="52" y="698" on="1"/>
        <pt x="240" y="698" on="1"/>
        <pt x="598" y="150" on="1"/>
        <pt x="603" y="150" on="1"/>
        <pt x="603" y="648" on="1"/>
        <pt x="529" y="648" on="1"/>
        <pt x="529" y="698" on="1"/>
        <pt x="736" y="698" on="1"/>
        <pt x="736" y="648" on="1"/>
        <pt x="662" y="648" on="1"/>
        <pt x="662" y="-76" on="1"/>
        <pt x="662" y="-145" on="0"/>
        <pt x="592" y="-212" on="0"/>
      </contour>
    </TTGlyph>
    <TTGlyph name="Eogonek" xMin="52" yMin="-206" xMax="616" yMax="698">
      <contour>
        <pt x="526" y="-206" on="1"/>
        <pt x="485" y="-206" on="0"/>
        <pt x="429" y="-170" on="0"/>
        <pt x="429" y="-130" on="1"/>
        <pt x="429" y="-92" on="0"/>
        <pt x="486" y="-37" on="0"/>
        <pt x="540" y="-4" on="1"/>
        <pt x="539" y="0" on="1"/>
        <pt x="52" y="0" on="1"/>
        <pt x="52" y="50" on="1"/>
        <pt x="126" y="50" on="1"/>
        <pt x="126" y="648" on="1"/>
        <pt x="52" y="648" on="1"/>
        <pt x="52" y="698" on="1"/>
        <pt x="576" y="698" on="1"/>
        <pt x="576" y="527" on="1"/>
        <pt x="496" y="527" on="1"/>
        <pt x="496" y="644" on="1"/>
        <pt x="227" y="644" on="1"/>
        <pt x="227" y="388" on="1"/>
        <pt x="412" y="388" on="1"/>
        <pt x="412" y="464" on="1"/>
        <pt x="475" y="464" on="1"/>
        <pt x="475" y="258" on="1"/>
        <pt x="412" y="258" on="1"/>
        <pt x="412" y="334" on="1"/>
        <pt x="227" y="334" on="1"/>
        <pt x="227" y="54" on="1"/>
        <pt x="505" y="54" on="1"/>
        <pt x="505" y="182" on="1"/>
        <pt x="585" y="182" on="1"/>
        <pt x="585" y="0" on="1"/>
        <pt x="556" y="-23" on="0"/>
        <pt x="524" y="-59" on="0"/>
        <pt x="507" y="-87" on="0"/>
        <pt x="503" y="-110" on="0"/>
        <pt x="503" y="-119" on="1"/>
        <pt x="503" y="-139" on="0"/>
        <pt x="528" y="-165" on="0"/>
        <pt x="549" y="-165" on="1"/>
        <pt x="563" y="-165" on="0"/>
        <pt x="585" y="-152" on="0"/>
        <pt x="592" y="-143" on="1"/>
        <pt x="616" y="-166" on="1"/>
        <pt x="605" y="-183" on="0"/>
        <pt x="561" y="-206" on="0"/>
      </contour>
    </TTGlyph>
    <TTGlyph name="Eth" xMin="38" yMin="0" xMax="665" yMax="698">
      <component glyphName="Dcroat" x="0" y="0" flags="0x204"/>
    </TTGlyph>
    <TTGlyph name="Etilde" xMin="52" yMin="0" xMax="585" yMax="900">
      <component glyphName="E" x="0" y="0" flags="0x204"/>
      <component glyphName="tilde.case" x="36" y="0" flags="0x4"/>
    </TTGlyph>
    <TTGlyph name="Euro" xMin="50" yMin="-12" xMax="562" yMax="710">
      <contour>
        <pt x="329" y="-12" on="1"/>
        <pt x="264" y="-12" on="0"/>
        <pt x="160" y="39" on="0"/>
        <pt x="88" y="134" on="0"/>
        <pt x="50" y="267" on="0"/>
        <pt x="50" y="349" on="1"/>
        <pt x="50" y="434" on="0"/>
        <pt x="89" y="569" on="0"/>
        <pt x="164" y="661" on="0"/>
        <pt x="272" y="710" on="0"/>
        <pt x="340" y="710" on="1"/>
        <pt x="389" y="710" on="0"/>
        <pt x="467" y="689" on="0"/>
        <pt x="521" y="653" on="0"/>
        <pt x="549" y="604" on="0"/>
        <pt x="549" y="576" on="1"/>
        <pt x="549" y="544" on="0"/>
        <pt x="513" y="504" on="0"/>
        <pt x="481" y="504" on="1"/>
        <pt x="449" y="504" on="0"/>
        <pt x="417" y="542" on="0"/>
        <pt x="417" y="570" on="1"/>
        <pt x="417" y="590" on="0"/>
        <pt x="440" y="622" on="0"/>
        <pt x="459" y="631" on="1"/>
        <pt x="459" y="635" on="1"/>
        <pt x="422" y="655" on="0"/>
        <pt x="352" y="655" on="1"/>
        <pt x="304" y="655" on="0"/>
        <pt x="234" y="624" on="0"/>
        <pt x="187" y="568" on="0"/>
        <pt x="163" y="493" on="0"/>
        <pt x="161" y="448" on="1"/>
        <pt x="398" y="448" on="1"/>
        <pt x="398" y="398" on="1"/>
        <pt x="160" y="398" on="1"/>
        <pt x="160" y="298" on="1"/>
        <pt x="398" y="298" on="1"/>
        <pt x="398" y="248" on="1"/>
        <pt x="162" y="248" on="1"/>
        <pt x="172" y="156" on="0"/>
        <pt x="270" y="55" on="0"/>
        <pt x="351" y="55" on="1"/>
        <pt x="384" y="55" on="0"/>
        <pt x="438" y="75" on="0"/>
        <pt x="480" y="111" on="0"/>
        <pt x="511" y="159" on="0"/>
        <pt x="522" y="187" on="1"/>
        <pt x="562" y="167" on="1"/>
        <pt x="553" y="136" on="0"/>
        <pt x="516" y="73" on="0"/>
        <pt x="458" y="21" on="0"/>
        <pt x="380" y="-12" on="0"/>
      </contour>
    </TTGlyph>
    <TTGlyph name="F" xMin="52" yMin="0" xMax="576" yMax="698">
      <contour>
        <pt x="52" y="50" on="1"/>
        <pt x="126" y="50" on="1"/>
        <pt x="126" y="648" on="1"/>
        <pt x="52" y="648" on="1"/>
        <pt x="52" y="698" on="1"/>
        <pt x="576" y="698" on="1"/>
        <pt x="576" y="527" on="1"/>
        <pt x="496" y="527" on="1"/>
        <pt x="496" y="644" on="1"/>
        <pt x="227" y="644" on="1"/>
        <pt x="227" y="374" on="1"/>
        <pt x="412" y="374" on="1"/>
        <pt x="412" y="450" on="1"/>
        <pt x="475" y="450" on="1"/>
        <pt x="475" y="244" on="1"/>
        <pt x="412" y="244" on="1"/>
        <pt x="412" y="320" on="1"/>
        <pt x="227" y="320" on="1"/>
        <pt x="227" y="50" on="1"/>
        <pt x="321" y="50" on="1"/>
        <pt x="321" y="0" on="1"/>
        <pt x="52" y="0" on="1"/>
      </contour>
    </TTGlyph>
    <TTGlyph name="G" xMin="50" yMin="-12" xMax="689" yMax="710">
      <contour>
        <pt x="345" y="-12" on="1"/>
        <pt x="279" y="-12" on="0"/>
        <pt x="170" y="38" on="0"/>
        <pt x="92" y="131" on="0"/>
        <pt x="50" y="265" on="0"/>
        <pt x="50" y="349" on="1"/>
        <pt x="50" y="436" on="0"/>
        <pt x="94" y="571" on="0"/>
        <pt x="174" y="663" on="0"/>
        <pt x="286" y="710" on="0"/>
        <pt x="355" y="710" on="1"/>
        <pt x="434" y="710" on="0"/>
        <pt x="520" y="664" on="0"/>
        <pt x="532" y="635" on="1"/>
        <pt x="538" y="635" on="1"/>
        <pt x="538" y="698" on="1"/>
        <pt x="618" y="698" on="1"/>
        <pt x="618" y="491" on="1"/>
        <pt x="538" y="491" on="1"/>
        <pt x="538" y="539" on="1"/>
        <pt x="538" y="594" on="0"/>
        <pt x="450" y="653" on="0"/>
        <pt x="370" y="653" on="1"/>
        <pt x="317" y="653" on="0"/>
        <pt x="238" y="620" on="0"/>
        <pt x="187" y="559" on="0"/>
        <pt x="162" y="473" on="0"/>
        <pt x="162" y="420" on="1"/>
        <pt x="162" y="279" on="1"/>
        <pt x="162" y="226" on="0"/>
        <pt x="190" y="142" on="0"/>
        <pt x="241" y="83" on="0"/>
        <pt x="312" y="51" on="0"/>
        <pt x="356" y="51" on="1"/>
        <pt x="432" y="51" on="0"/>
        <pt x="527" y="127" on="0"/>
        <pt x="527" y="197" on="1"/>
        <pt x="527" y="290" on="1"/>
        <pt x="408" y="290" on="1"/>
        <pt x="408" y="340" on="1"/>
        <pt x="689" y="340" on="1"/>
        <pt x="689" y="290" on="1"/>
        <pt x="628" y="290" on="1"/>
        <pt x="628" y="0" on="1"/>
        <pt x="591" y="0" on="1"/>
        <pt x="540" y="98" on="1"/>
        <pt x="536" y="98" on="1"/>
        <pt x="528" y="78" on="0"/>
        <pt x="497" y="39" on="0"/>
        <pt x="449" y="8" on="0"/>
        <pt x="385" y="-12" on="0"/>
      </contour>
    </TTGlyph>
    <TTGlyph name="Gbreve" xMin="50" yMin="-12" xMax="689" yMax="923">
      <component glyphName="G" x="0" y="0" flags="0x204"/>
      <component glyphName="breve.case" x="54" y="0" flags="0x4"/>
    </TTGlyph>
    <TTGlyph name="Gcircumflex" xMin="50" yMin="-12" xMax="689" yMax="938">
      <component glyphName="G" x="0" y="0" flags="0x204"/>
      <component glyphName="circumflex.case" x="54" y="0" flags="0x4"/>
    </TTGlyph>
    <TTGlyph name="Gcommaaccent" xMin="50" yMin="-254" xMax="689" yMax="710">
      <component glyphName="G" x="0" y="0" flags="0x204"/>
      <component glyphName="commabelowcomb" x="349" y="0" flags="0x4"/>
    </TTGlyph>
    <TTGlyph name="Gdotaccent" xMin="50" yMin="-12" xMax="689" yMax="898">
      <component glyphName="G" x="0" y="0" flags="0x204"/>
      <component glyphName="dotaccent.case" x="54" y="0" flags="0x4"/>
    </TTGlyph>
    <TTGlyph name="Germandbls" xMin="52" yMin="-12" xMax="688" yMax="698">
      <contour>
        <pt x="455" y="-12" on="1"/>
        <pt x="377" y="-12" on="0"/>
        <pt x="300" y="48" on="0"/>
        <pt x="300" y="93" on="1"/>
        <pt x="300" y="125" on="0"/>
        <pt x="335" y="163" on="0"/>
        <pt x="364" y="163" on="1"/>
        <pt x="392" y="163" on="0"/>
        <pt x="422" y="129" on="0"/>
        <pt x="422" y="103" on="1"/>
        <pt x="422" y="81" on="0"/>
        <pt x="402" y="54" on="0"/>
        <pt x="389" y="48" on="1"/>
        <pt x="389" y="44" on="1"/>
        <pt x="400" y="40" on="0"/>
        <pt x="433" y="35" on="0"/>
        <pt x="455" y="35" on="1"/>
        <pt x="508" y="35" on="0"/>
        <pt x="581" y="101" on="0"/>
        <pt x="581" y="169" on="1"/>
        <pt x="581" y="211" on="1"/>
        <pt x="581" y="290" on="0"/>
        <pt x="508" y="351" on="0"/>
        <pt x="432" y="351" on="1"/>
        <pt x="371" y="351" on="1"/>
        <pt x="371" y="402" on="1"/>
        <pt x="541" y="644" on="1"/>
        <pt x="227" y="644" on="1"/>
        <pt x="227" y="0" on="1"/>
        <pt x="52" y="0" on="1"/>
        <pt x="52" y="50" on="1"/>
        <pt x="126" y="50" on="1"/>
        <pt x="126" y="648" on="1"/>
        <pt x="52" y="648" on="1"/>
        <pt x="52" y="698" on="1"/>
        <pt x="654" y="698" on="1"/>
        <pt x="654" y="652" on="1"/>
        <pt x="477" y="403" on="1"/>
        <pt x="477" y="399" on="1"/>
        <pt x="579" y="399" on="0"/>
        <pt x="688" y="297" on="0"/>
        <pt x="688" y="194" on="1"/>
        <pt x="688" y="141" on="0"/>
        <pt x="654" y="64" on="0"/>
        <pt x="593" y="13" on="0"/>
        <pt x="507" y="-12" on="0"/>
      </contour>
    </TTGlyph>
    <TTGlyph name="H" xMin="52" yMin="0" xMax="739" yMax="698">
      <contour>
        <pt x="52" y="50" on="1"/>
        <pt x="126" y="50" on="1"/>
        <pt x="126" y="648" on="1"/>
        <pt x="52" y="648" on="1"/>
        <pt x="52" y="698" on="1"/>
        <pt x="301" y="698" on="1"/>
        <pt x="301" y="648" on="1"/>
        <pt x="227" y="648" on="1"/>
        <pt x="227" y="384" on="1"/>
        <pt x="564" y="384" on="1"/>
        <pt x="564" y="648" on="1"/>
        <pt x="490" y="648" on="1"/>
        <pt x="490" y="698" on="1"/>
        <pt x="739" y="698" on="1"/>
        <pt x="739" y="648" on="1"/>
        <pt x="665" y="648" on="1"/>
        <pt x="665" y="50" on="1"/>
        <pt x="739" y="50" on="1"/>
        <pt x="739" y="0" on="1"/>
        <pt x="490" y="0" on="1"/>
        <pt x="490" y="50" on="1"/>
        <pt x="564" y="50" on="1"/>
        <pt x="564" y="330" on="1"/>
        <pt x="227" y="330" on="1"/>
        <pt x="227" y="50" on="1"/>
        <pt x="301" y="50" on="1"/>
        <pt x="301" y="0" on="1"/>
        <pt x="52" y="0" on="1"/>
      </contour>
    </TTGlyph>
    <TTGlyph name="Hbar" xMin="38" yMin="0" xMax="753" yMax="698">
      <contour>
        <pt x="52" y="50" on="1"/>
        <pt x="126" y="50" on="1"/>
        <pt x="126" y="496" on="1"/>
        <pt x="38" y="496" on="1"/>
        <pt x="38" y="548" on="1"/>
        <pt x="126" y="548" on="1"/>
        <pt x="126" y="648" on="1"/>
        <pt x="52" y="648" on="1"/>
        <pt x="52" y="698" on="1"/>
        <pt x="301" y="698" on="1"/>
        <pt x="301" y="648" on="1"/>
        <pt x="227" y="648" on="1"/>
        <pt x="227" y="548" on="1"/>
        <pt x="564" y="548" on="1"/>
        <pt x="564" y="648" on="1"/>
        <pt x="490" y="648" on="1"/>
        <pt x="490" y="698" on="1"/>
        <pt x="739" y="698" on="1"/>
        <pt x="739" y="648" on="1"/>
        <pt x="665" y="648" on="1"/>
        <pt x="665" y="548" on="1"/>
        <pt x="753" y="548" on="1"/>
        <pt x="753" y="496" on="1"/>
        <pt x="665" y="496" on="1"/>
        <pt x="665" y="50" on="1"/>
        <pt x="739" y="50" on="1"/>
        <pt x="739" y="0" on="1"/>
        <pt x="490" y="0" on="1"/>
        <pt x="490" y="50" on="1"/>
        <pt x="564" y="50" on="1"/>
        <pt x="564" y="330" on="1"/>
        <pt x="227" y="330" on="1"/>
        <pt x="227" y="50" on="1"/>
        <pt x="301" y="50" on="1"/>
        <pt x="301" y="0" on="1"/>
        <pt x="52" y="0" on="1"/>
      </contour>
      <contour>
        <pt x="227" y="384" on="1"/>
        <pt x="564" y="384" on="1"/>
        <pt x="564" y="496" on="1"/>
        <pt x="227" y="496" on="1"/>
      </contour>
    </TTGlyph>
    <TTGlyph name="Hcircumflex" xMin="52" yMin="0" xMax="739" yMax="938">
      <component glyphName="H" x="0" y="0" flags="0x204"/>
      <component glyphName="circumflex.case" x="95" y="0" flags="0x4"/>
    </TTGlyph>
    <TTGlyph name="I" xMin="52" yMin="0" xMax="301" yMax="698">
      <contour>
        <pt x="52" y="50" on="1"/>
        <pt x="126" y="50" on="1"/>
        <pt x="126" y="648" on="1"/>
        <pt x="52" y="648" on="1"/>
        <pt x="52" y="698" on="1"/>
        <pt x="301" y="698" on="1"/>
        <pt x="301" y="648" on="1"/>
        <pt x="227" y="648" on="1"/>
        <pt x="227" y="50" on="1"/>
        <pt x="301" y="50" on="1"/>
        <pt x="301" y="0" on="1"/>
        <pt x="52" y="0" on="1"/>
      </contour>
    </TTGlyph>
    <TTGlyph name="IJ" xMin="52" yMin="-12" xMax="777" yMax="698">
      <component glyphName="I" x="0" y="0" flags="0x4"/>
      <component glyphName="J" x="353" y="0" flags="0x4"/>
    </TTGlyph>
    <TTGlyph name="IJacute" xMin="52" yMin="-12" xMax="777" yMax="957">
      <component glyphName="I" x="0" y="0" flags="0x4"/>
      <component glyphName="acute.case" x="-124" y="0" flags="0x4"/>
      <component glyphName="J" x="353" y="0" flags="0x4"/>
      <component glyphName="acute.case" x="344" y="0" flags="0x4"/>
    </TTGlyph>
    <TTGlyph name="Iacute" xMin="52" yMin="0" xMax="302" yMax="957">
      <component glyphName="I" x="0" y="0" flags="0x204"/>
      <component glyphName="acute.case" x="-124" y="0" flags="0x4"/>
    </TTGlyph>
    <TTGlyph name="Ibreve" xMin="27" yMin="0" xMax="325" yMax="923">
      <component glyphName="I" x="0" y="0" flags="0x204"/>
      <component glyphName="breve.case" x="-124" y="0" flags="0x4"/>
    </TTGlyph>
    <TTGlyph name="Icircumflex" xMin="19" yMin="0" xMax="333" yMax="938">
      <component glyphName="I" x="0" y="0" flags="0x204"/>
      <component glyphName="circumflex.case" x="-124" y="0" flags="0x4"/>
    </TTGlyph>
    <TTGlyph name="Idieresis" xMin="27" yMin="0" xMax="325" yMax="896">
      <component glyphName="I" x="0" y="0" flags="0x204"/>
      <component glyphName="dieresis.case" x="-124" y="0" flags="0x4"/>
    </TTGlyph>
    <TTGlyph name="Idotaccent" xMin="52" yMin="0" xMax="301" yMax="898">
      <component glyphName="I" x="0" y="0" flags="0x204"/>
      <component glyphName="dotaccent.case" x="-124" y="0" flags="0x4"/>
    </TTGlyph>
    <TTGlyph name="Idotbelow" xMin="52" yMin="-170" xMax="301" yMax="698">
      <component glyphName="I" x="0" y="0" flags="0x204"/>
      <component glyphName="dotbelowcomb" x="176" y="0" flags="0x4"/>
    </TTGlyph>
    <TTGlyph name="Igrave" xMin="50" yMin="0" xMax="301" yMax="957">
      <component glyphName="I" x="0" y="0" flags="0x204"/>
      <component glyphName="grave.case" x="-124" y="0" flags="0x4"/>
    </TTGlyph>
    <TTGlyph name="Ihook" xMin="52" yMin="0" xMax="301" yMax="939">
      <component glyphName="I" x="0" y="0" flags="0x204"/>
      <component glyphName="hookcomb.case" x="176" y="0" flags="0x4"/>
    </TTGlyph>
    <TTGlyph name="Imacron" xMin="33" yMin="0" xMax="319" yMax="872">
      <component glyphName="I" x="0" y="0" flags="0x204"/>
      <component glyphName="macron.case" x="-124" y="0" flags="0x4"/>
    </TTGlyph>
    <TTGlyph name="Iogonek" xMin="52" yMin="-206" xMax="330" yMax="698">
      <contour>
        <pt x="240" y="-206" on="1"/>
        <pt x="199" y="-206" on="0"/>
        <pt x="143" y="-170" on="0"/>
        <pt x="143" y="-130" on="1"/>
        <pt x="143" y="-93" on="0"/>
        <pt x="204" y="-36" on="0"/>
        <pt x="255" y="-4" on="1"/>
        <pt x="254" y="0" on="1"/>
        <pt x="52" y="0" on="1"/>
        <pt x="52" y="50" on="1"/>
        <pt x="126" y="50" on="1"/>
        <pt x="126" y="648" on="1"/>
        <pt x="52" y="648" on="1"/>
        <pt x="52" y="698" on="1"/>
        <pt x="301" y="698" on="1"/>
        <pt x="301" y="648" on="1"/>
        <pt x="227" y="648" on="1"/>
        <pt x="227" y="50" on="1"/>
        <pt x="301" y="50" on="1"/>
        <pt x="301" y="0" on="1"/>
        <pt x="273" y="-22" on="0"/>
        <pt x="240" y="-58" on="0"/>
        <pt x="222" y="-87" on="0"/>
        <pt x="217" y="-110" on="0"/>
        <pt x="217" y="-119" on="1"/>
        <pt x="217" y="-139" on="0"/>
        <pt x="242" y="-165" on="0"/>
        <pt x="263" y="-165" on="1"/>
        <pt x="277" y="-165" on="0"/>
        <pt x="299" y="-152" on="0"/>
        <pt x="306" y="-143" on="1"/>
        <pt x="330" y="-166" on="1"/>
        <pt x="319" y="-183" on="0"/>
        <pt x="275" y="-206" on="0"/>
      </contour>
    </TTGlyph>
    <TTGlyph name="Itilde" xMin="13" yMin="0" xMax="339" yMax="900">
      <component glyphName="I" x="0" y="0" flags="0x204"/>
      <component glyphName="tilde.case" x="-124" y="0" flags="0x4"/>
    </TTGlyph>
    <TTGlyph name="J" xMin="14" yMin="-12" xMax="424" yMax="698">
      <contour>
        <pt x="157" y="-12" on="1"/>
        <pt x="85" y="-12" on="0"/>
        <pt x="14" y="44" on="0"/>
        <pt x="14" y="87" on="1"/>
        <pt x="14" y="116" on="0"/>
        <pt x="48" y="155" on="0"/>
        <pt x="78" y="155" on="1"/>
        <pt x="104" y="155" on="0"/>
        <pt x="135" y="121" on="0"/>
        <pt x="135" y="95" on="1"/>
        <pt x="135" y="75" on="0"/>
        <pt x="116" y="50" on="0"/>
        <pt x="105" y="45" on="1"/>
        <pt x="105" y="42" on="1"/>
        <pt x="115" y="39" on="0"/>
        <pt x="141" y="35" on="0"/>
        <pt x="156" y="35" on="1"/>
        <pt x="249" y="35" on="0"/>
        <pt x="249" y="151" on="1"/>
        <pt x="249" y="648" on="1"/>
        <pt x="155" y="648" on="1"/>
        <pt x="155" y="698" on="1"/>
        <pt x="424" y="698" on="1"/>
        <pt x="424" y="648" on="1"/>
        <pt x="350" y="648" on="1"/>
        <pt x="350" y="168" on="1"/>
        <pt x="350" y="80" on="0"/>
        <pt x="251" y="-12" on="0"/>
      </contour>
    </TTGlyph>
    <TTGlyph name="Jacute" xMin="14" yMin="-12" xMax="424" yMax="957">
      <component glyphName="J" x="0" y="0" flags="0x204"/>
      <component glyphName="acute.case" x="-9" y="0" flags="0x4"/>
    </TTGlyph>
    <TTGlyph name="Jcircumflex" xMin="14" yMin="-12" xMax="448" yMax="938">
      <component glyphName="J" x="0" y="0" flags="0x204"/>
      <component glyphName="circumflex.case" x="-9" y="0" flags="0x4"/>
    </TTGlyph>
    <TTGlyph name="K" xMin="52" yMin="0" xMax="698" yMax="698">
      <contour>
        <pt x="52" y="50" on="1"/>
        <pt x="126" y="50" on="1"/>
        <pt x="126" y="648" on="1"/>
        <pt x="52" y="648" on="1"/>
        <pt x="52" y="698" on="1"/>
        <pt x="301" y="698" on="1"/>
        <pt x="301" y="648" on="1"/>
        <pt x="227" y="648" on="1"/>
        <pt x="227" y="324" on="1"/>
        <pt x="231" y="324" on="1"/>
        <pt x="328" y="433" on="1"/>
        <pt x="526" y="648" on="1"/>
        <pt x="448" y="648" on="1"/>
        <pt x="448" y="698" on="1"/>
        <pt x="668" y="698" on="1"/>
        <pt x="668" y="648" on="1"/>
        <pt x="600" y="648" on="1"/>
        <pt x="390" y="423" on="1"/>
        <pt x="630" y="50" on="1"/>
        <pt x="698" y="50" on="1"/>
        <pt x="698" y="0" on="1"/>
        <pt x="445" y="0" on="1"/>
        <pt x="445" y="50" on="1"/>
        <pt x="513" y="50" on="1"/>
        <pt x="321" y="353" on="1"/>
        <pt x="227" y="251" on="1"/>
        <pt x="227" y="50" on="1"/>
        <pt x="301" y="50" on="1"/>
        <pt x="301" y="0" on="1"/>
        <pt x="52" y="0" on="1"/>
      </contour>
    </TTGlyph>
    <TTGlyph name="Kcommaaccent" xMin="52" yMin="-254" xMax="698" yMax="698">
      <component glyphName="K" x="0" y="0" flags="0x204"/>
      <component glyphName="commabelowcomb" x="364" y="0" flags="0x4"/>
    </TTGlyph>
    <TTGlyph name="L" xMin="52" yMin="0" xMax="550" yMax="698">
      <contour>
        <pt x="52" y="50" on="1"/>
        <pt x="126" y="50" on="1"/>
        <pt x="126" y="648" on="1"/>
        <pt x="52" y="648" on="1"/>
        <pt x="52" y="698" on="1"/>
        <pt x="301" y="698" on="1"/>
        <pt x="301" y="648" on="1"/>
        <pt x="227" y="648" on="1"/>
        <pt x="227" y="54" on="1"/>
        <pt x="470" y="54" on="1"/>
        <pt x="470" y="182" on="1"/>
        <pt x="550" y="182" on="1"/>
        <pt x="550" y="0" on="1"/>
        <pt x="52" y="0" on="1"/>
      </contour>
    </TTGlyph>
    <TTGlyph name="Lacute" xMin="52" yMin="0" xMax="550" yMax="957">
      <component glyphName="L" x="0" y="0" flags="0x204"/>
      <component glyphName="acute.case" x="-124" y="0" flags="0x4"/>
    </TTGlyph>
    <TTGlyph name="Lcaron" xMin="52" yMin="0" xMax="550" yMax="730">
      <component glyphName="L" x="0" y="0" flags="0x204"/>
      <component glyphName="caronslovak" x="66" y="-18" flags="0x4"/>
    </TTGlyph>
    <TTGlyph name="Lcommaaccent" xMin="52" yMin="-254" xMax="550" yMax="698">
      <component glyphName="L" x="0" y="0" flags="0x204"/>
      <component glyphName="commabelowcomb" x="310" y="0" flags="0x4"/>
    </TTGlyph>
    <TTGlyph name="Ldot" xMin="52" yMin="0" xMax="550" yMax="698">
      <component glyphName="L" x="0" y="0" flags="0x204"/>
      <component glyphName="dotaccent" x="88" y="-326" flags="0x4"/>
    </TTGlyph>
    <TTGlyph name="Lslash" xMin="38" yMin="0" xMax="552" yMax="698">
      <contour>
        <pt x="54" y="50" on="1"/>
        <pt x="128" y="50" on="1"/>
        <pt x="128" y="278" on="1"/>
        <pt x="38" y="247" on="1"/>
        <pt x="38" y="301" on="1"/>
        <pt x="128" y="332" on="1"/>
        <pt x="128" y="648" on="1"/>
        <pt x="54" y="648" on="1"/>
        <pt x="54" y="698" on="1"/>
        <pt x="303" y="698" on="1"/>
        <pt x="303" y="648" on="1"/>
        <pt x="229" y="648" on="1"/>
        <pt x="229" y="366" on="1"/>
        <pt x="380" y="418" on="1"/>
        <pt x="380" y="364" on="1"/>
        <pt x="229" y="312" on="1"/>
        <pt x="229" y="54" on="1"/>
        <pt x="472" y="54" on="1"/>
        <pt x="472" y="182" on="1"/>
        <pt x="552" y="182" on="1"/>
        <pt x="552" y="0" on="1"/>
        <pt x="54" y="0" on="1"/>
      </contour>
    </TTGlyph>
    <TTGlyph name="M" xMin="52" yMin="0" xMax="824" yMax="698">
      <contour>
        <pt x="52" y="50" on="1"/>
        <pt x="126" y="50" on="1"/>
        <pt x="126" y="648" on="1"/>
        <pt x="52" y="648" on="1"/>
        <pt x="52" y="698" on="1"/>
        <pt x="243" y="698" on="1"/>
        <pt x="438" y="284" on="1"/>
        <pt x="442" y="284" on="1"/>
        <pt x="642" y="698" on="1"/>
        <pt x="824" y="698" on="1"/>
        <pt x="824" y="648" on="1"/>
        <pt x="750" y="648" on="1"/>
        <pt x="750" y="50" on="1"/>
        <pt x="824" y="50" on="1"/>
        <pt x="824" y="0" on="1"/>
        <pt x="575" y="0" on="1"/>
        <pt x="575" y="50" on="1"/>
        <pt x="649" y="50" on="1"/>
        <pt x="649" y="593" on="1"/>
        <pt x="645" y="593" on="1"/>
        <pt x="593" y="476" on="1"/>
        <pt x="414" y="115" on="1"/>
        <pt x="241" y="476" on="1"/>
        <pt x="189" y="593" on="1"/>
        <pt x="185" y="593" on="1"/>
        <pt x="185" y="50" on="1"/>
        <pt x="259" y="50" on="1"/>
        <pt x="259" y="0" on="1"/>
        <pt x="52" y="0" on="1"/>
      </contour>
    </TTGlyph>
    <TTGlyph name="N" xMin="52" yMin="0" xMax="736" yMax="698">
      <contour>
        <pt x="52" y="50" on="1"/>
        <pt x="126" y="50" on="1"/>
        <pt x="126" y="648" on="1"/>
        <pt x="52" y="648" on="1"/>
        <pt x="52" y="698" on="1"/>
        <pt x="240" y="698" on="1"/>
        <pt x="599" y="149" on="1"/>
        <pt x="603" y="149" on="1"/>
        <pt x="603" y="648" on="1"/>
        <pt x="529" y="648" on="1"/>
        <pt x="529" y="698" on="1"/>
        <pt x="736" y="698" on="1"/>
        <pt x="736" y="648" on="1"/>
        <pt x="662" y="648" on="1"/>
        <pt x="662" y="0" on="1"/>
        <pt x="580" y="0" on="1"/>
        <pt x="189" y="598" on="1"/>
        <pt x="185" y="598" on="1"/>
        <pt x="185" y="50" on="1"/>
        <pt x="259" y="50" on="1"/>
        <pt x="259" y="0" on="1"/>
        <pt x="52" y="0" on="1"/>
      </contour>
    </TTGlyph>
    <TTGlyph name="Nacute" xMin="52" yMin="0" xMax="736" yMax="957">
      <component glyphName="N" x="0" y="0" flags="0x204"/>
      <component glyphName="acute.case" x="99" y="0" flags="0x4"/>
    </TTGlyph>
    <TTGlyph name="Ncaron" xMin="52" yMin="0" xMax="736" yMax="942">
      <component glyphName="N" x="0" y="0" flags="0x204"/>
      <component glyphName="caron.case" x="99" y="0" flags="0x4"/>
    </TTGlyph>
    <TTGlyph name="Ncommaaccent" xMin="52" yMin="-254" xMax="736" yMax="698">
      <component glyphName="N" x="0" y="0" flags="0x204"/>
      <component glyphName="commabelowcomb" x="392" y="0" flags="0x4"/>
    </TTGlyph>
    <TTGlyph name="Ntilde" xMin="52" yMin="0" xMax="736" yMax="900">
      <component glyphName="N" x="0" y="0" flags="0x204"/>
      <component glyphName="tilde.case" x="99" y="0" flags="0x4"/>
    </TTGlyph>
    <TTGlyph name="O" xMin="50" yMin="-12" xMax="674" yMax="710">
      <contour>
        <pt x="362" y="45" on="1"/>
        <pt x="410" y="45" on="0"/>
        <pt x="484" y="79" on="0"/>
        <pt x="535" y="141" on="0"/>
        <pt x="562" y="228" on="0"/>
        <pt x="562" y="281" on="1"/>
        <pt x="562" y="417" on="1"/>
        <pt x="562" y="470" on="0"/>
        <pt x="535" y="557" on="0"/>
        <pt x="484" y="619" on="0"/>
        <pt x="410" y="653" on="0"/>
        <pt x="362" y="653" on="1"/>
        <pt x="314" y="653" on="0"/>
        <pt x="240" y="619" on="0"/>
        <pt x="189" y="557" on="0"/>
        <pt x="162" y="470" on="0"/>
        <pt x="162" y="417" on="1"/>
        <pt x="162" y="281" on="1"/>
        <pt x="162" y="228" on="0"/>
        <pt x="189" y="141" on="0"/>
        <pt x="240" y="79" on="0"/>
        <pt x="314" y="45" on="0"/>
      </contour>
      <contour>
        <pt x="362" y="-12" on="1"/>
        <pt x="292" y="-12" on="0"/>
        <pt x="177" y="38" on="0"/>
        <pt x="95" y="131" on="0"/>
        <pt x="50" y="265" on="0"/>
        <pt x="50" y="349" on="1"/>
        <pt x="50" y="433" on="0"/>
        <pt x="95" y="567" on="0"/>
        <pt x="177" y="660" on="0"/>
        <pt x="292" y="710" on="0"/>
        <pt x="362" y="710" on="1"/>
        <pt x="432" y="710" on="0"/>
        <pt x="547" y="660" on="0"/>
        <pt x="629" y="567" on="0"/>
        <pt x="674" y="433" on="0"/>
        <pt x="674" y="349" on="1"/>
        <pt x="674" y="265" on="0"/>
        <pt x="629" y="131" on="0"/>
        <pt x="547" y="38" on="0"/>
        <pt x="432" y="-12" on="0"/>
      </contour>
    </TTGlyph>
    <TTGlyph name="OE" xMin="50" yMin="-12" xMax="958" yMax="710">
      <contour>
        <pt x="370" y="-12" on="1"/>
        <pt x="296" y="-12" on="0"/>
        <pt x="178" y="38" on="0"/>
        <pt x="95" y="131" on="0"/>
        <pt x="50" y="265" on="0"/>
        <pt x="50" y="349" on="1"/>
        <pt x="50" y="433" on="0"/>
        <pt x="95" y="567" on="0"/>
        <pt x="178" y="660" on="0"/>
        <pt x="296" y="710" on="0"/>
        <pt x="370" y="710" on="1"/>
        <pt x="422" y="710" on="0"/>
        <pt x="464" y="698" on="1"/>
        <pt x="949" y="698" on="1"/>
        <pt x="949" y="527" on="1"/>
        <pt x="869" y="527" on="1"/>
        <pt x="869" y="644" on="1"/>
        <pt x="600" y="644" on="1"/>
        <pt x="600" y="388" on="1"/>
        <pt x="785" y="388" on="1"/>
        <pt x="785" y="464" on="1"/>
        <pt x="848" y="464" on="1"/>
        <pt x="848" y="258" on="1"/>
        <pt x="785" y="258" on="1"/>
        <pt x="785" y="334" on="1"/>
        <pt x="600" y="334" on="1"/>
        <pt x="600" y="54" on="1"/>
        <pt x="878" y="54" on="1"/>
        <pt x="878" y="182" on="1"/>
        <pt x="958" y="182" on="1"/>
        <pt x="958" y="0" on="1"/>
        <pt x="464" y="0" on="1"/>
        <pt x="422" y="-12" on="0"/>
      </contour>
      <contour>
        <pt x="370" y="45" on="1"/>
        <pt x="411" y="45" on="0"/>
        <pt x="477" y="63" on="0"/>
        <pt x="499" y="83" on="1"/>
        <pt x="499" y="615" on="1"/>
        <pt x="477" y="635" on="0"/>
        <pt x="411" y="653" on="0"/>
        <pt x="370" y="653" on="1"/>
        <pt x="318" y="653" on="0"/>
        <pt x="240" y="619" on="0"/>
        <pt x="188" y="557" on="0"/>
        <pt x="162" y="470" on="0"/>
        <pt x="162" y="417" on="1"/>
        <pt x="162" y="281" on="1"/>
        <pt x="162" y="228" on="0"/>
        <pt x="188" y="141" on="0"/>
        <pt x="240" y="79" on="0"/>
        <pt x="318" y="45" on="0"/>
      </contour>
    </TTGlyph>
    <TTGlyph name="Oacute" xMin="50" yMin="-12" xMax="674" yMax="957">
      <component glyphName="O" x="0" y="0" flags="0x204"/>
      <component glyphName="acute.case" x="62" y="0" flags="0x4"/>
    </TTGlyph>
    <TTGlyph name="Obreve" xMin="50" yMin="-12" xMax="674" yMax="923">
      <component glyphName="O" x="0" y="0" flags="0x204"/>
      <component glyphName="breve.case" x="62" y="0" flags="0x4"/>
    </TTGlyph>
    <TTGlyph name="Ocircumflex" xMin="50" yMin="-12" xMax="674" yMax="938">
      <component glyphName="O" x="0" y="0" flags="0x204"/>
      <component glyphName="circumflex.case" x="62" y="0" flags="0x4"/>
    </TTGlyph>
    <TTGlyph name="Ocircumflexacute" xMin="50" yMin="-12" xMax="674" yMax="1071">
      <component glyphName="O" x="0" y="0" flags="0x204"/>
      <component glyphName="circumflexacute.case" x="362" y="0" flags="0x4"/>
    </TTGlyph>
    <TTGlyph name="Ocircumflexdotbelow" xMin="50" yMin="-170" xMax="674" yMax="938">
      <component glyphName="O" x="0" y="0" flags="0x204"/>
      <component glyphName="circumflex.case" x="62" y="0" flags="0x4"/>
      <component glyphName="dotbelowcomb" x="362" y="0" flags="0x4"/>
    </TTGlyph>
    <TTGlyph name="Ocircumflexgrave" xMin="50" yMin="-12" xMax="674" yMax="1071">
      <component glyphName="O" x="0" y="0" flags="0x204"/>
      <component glyphName="circumflexgrave.case" x="362" y="0" flags="0x4"/>
    </TTGlyph>
    <TTGlyph name="Ocircumflexhook" xMin="50" yMin="-12" xMax="674" yMax="1060">
      <component glyphName="O" x="0" y="0" flags="0x204"/>
      <component glyphName="circumflexhook.case" x="362" y="0" flags="0x4"/>
    </TTGlyph>
    <TTGlyph name="Ocircumflextilde" xMin="50" yMin="-12" xMax="674" yMax="1059">
      <component glyphName="O" x="0" y="0" flags="0x204"/>
      <component glyphName="circumflextilde.case" x="362" y="0" flags="0x4"/>
    </TTGlyph>
    <TTGlyph name="Odieresis" xMin="50" yMin="-12" xMax="674" yMax="896">
      <component glyphName="O" x="0" y="0" flags="0x204"/>
      <component glyphName="dieresis.case" x="62" y="0" flags="0x4"/>
    </TTGlyph>
    <TTGlyph name="Odotbelow" xMin="50" yMin="-170" xMax="674" yMax="710">
      <component glyphName="O" x="0" y="0" flags="0x204"/>
      <component glyphName="dotbelowcomb" x="362" y="0" flags="0x4"/>
    </TTGlyph>
    <TTGlyph name="Ograve" xMin="50" yMin="-12" xMax="674" yMax="957">
      <component glyphName="O" x="0" y="0" flags="0x204"/>
      <component glyphName="grave.case" x="62" y="0" flags="0x4"/>
    </TTGlyph>
    <TTGlyph name="Ohook" xMin="50" yMin="-12" xMax="674" yMax="939">
      <component glyphName="O" x="0" y="0" flags="0x204"/>
      <component glyphName="hookcomb.case" x="362" y="0" flags="0x4"/>
    </TTGlyph>
    <TTGlyph name="Ohorn" xMin="50" yMin="-12" xMax="674" yMax="808">
      <contour>
        <pt x="362" y="-12" on="1"/>
        <pt x="292" y="-12" on="0"/>
        <pt x="177" y="38" on="0"/>
        <pt x="95" y="131" on="0"/>
        <pt x="50" y="265" on="0"/>
        <pt x="50" y="349" on="1"/>
        <pt x="50" y="433" on="0"/>
        <pt x="95" y="567" on="0"/>
        <pt x="177" y="660" on="0"/>
        <pt x="292" y="710" on="0"/>
        <pt x="362" y="710" on="1"/>
        <pt x="411" y="710" on="0"/>
        <pt x="453" y="698" on="1"/>
        <pt x="576" y="698" on="1"/>
        <pt x="576" y="808" on="1"/>
        <pt x="660" y="808" on="1"/>
        <pt x="660" y="725" on="1"/>
        <pt x="660" y="696" on="0"/>
        <pt x="625" y="660" on="0"/>
        <pt x="588" y="660" on="1"/>
        <pt x="535" y="660" on="1"/>
        <pt x="601" y="615" on="0"/>
        <pt x="674" y="458" on="0"/>
        <pt x="674" y="349" on="1"/>
        <pt x="674" y="265" on="0"/>
        <pt x="629" y="131" on="0"/>
        <pt x="547" y="38" on="0"/>
        <pt x="432" y="-12" on="0"/>
      </contour>
      <contour>
        <pt x="362" y="45" on="1"/>
        <pt x="410" y="45" on="0"/>
        <pt x="484" y="79" on="0"/>
        <pt x="535" y="141" on="0"/>
        <pt x="562" y="228" on="0"/>
        <pt x="562" y="281" on="1"/>
        <pt x="562" y="417" on="1"/>
        <pt x="562" y="470" on="0"/>
        <pt x="535" y="557" on="0"/>
        <pt x="484" y="619" on="0"/>
        <pt x="410" y="653" on="0"/>
        <pt x="362" y="653" on="1"/>
        <pt x="314" y="653" on="0"/>
        <pt x="240" y="619" on="0"/>
        <pt x="189" y="557" on="0"/>
        <pt x="162" y="470" on="0"/>
        <pt x="162" y="417" on="1"/>
        <pt x="162" y="281" on="1"/>
        <pt x="162" y="228" on="0"/>
        <pt x="189" y="141" on="0"/>
        <pt x="240" y="79" on="0"/>
        <pt x="314" y="45" on="0"/>
      </contour>
    </TTGlyph>
    <TTGlyph name="Ohornacute" xMin="50" yMin="-12" xMax="674" yMax="957">
      <component glyphName="Ohorn" x="0" y="0" flags="0x204"/>
      <component glyphName="acute.case" x="62" y="0" flags="0x4"/>
    </TTGlyph>
    <TTGlyph name="Ohorndotbelow" xMin="50" yMin="-170" xMax="674" yMax="808">
      <component glyphName="Ohorn" x="0" y="0" flags="0x204"/>
      <component glyphName="dotbelowcomb" x="362" y="0" flags="0x4"/>
    </TTGlyph>
    <TTGlyph name="Ohorngrave" xMin="50" yMin="-12" xMax="674" yMax="957">
      <component glyphName="Ohorn" x="0" y="0" flags="0x204"/>
      <component glyphName="grave.case" x="62" y="0" flags="0x4"/>
    </TTGlyph>
    <TTGlyph name="Ohornhook" xMin="50" yMin="-12" xMax="674" yMax="939">
      <component glyphName="Ohorn" x="0" y="0" flags="0x204"/>
      <component glyphName="hookcomb.case" x="362" y="0" flags="0x4"/>
    </TTGlyph>
    <TTGlyph name="Ohorntilde" xMin="50" yMin="-12" xMax="674" yMax="900">
      <component glyphName="Ohorn" x="0" y="0" flags="0x204"/>
      <component glyphName="tilde.alt01.case" x="62" y="0" flags="0x4"/>
    </TTGlyph>
    <TTGlyph name="Ohungarumlaut" xMin="50" yMin="-12" xMax="674" yMax="957">
      <component glyphName="O" x="0" y="0" flags="0x204"/>
      <component glyphName="hungarumlaut.case" x="62" y="0" flags="0x4"/>
    </TTGlyph>
    <TTGlyph name="Omacron" xMin="50" yMin="-12" xMax="674" yMax="872">
      <component glyphName="O" x="0" y="0" flags="0x204"/>
      <component glyphName="macron.case" x="62" y="0" flags="0x4"/>
    </TTGlyph>
    <TTGlyph name="Omega" xMin="50" yMin="0" xMax="658" yMax="710">
      <contour>
        <pt x="50" y="139" on="1"/>
        <pt x="130" y="139" on="1"/>
        <pt x="130" y="52" on="1"/>
        <pt x="253" y="52" on="1"/>
        <pt x="253" y="105" on="1"/>
        <pt x="164" y="142" on="0"/>
        <pt x="58" y="280" on="0"/>
        <pt x="58" y="390" on="1"/>
        <pt x="58" y="451" on="0"/>
        <pt x="93" y="566" on="0"/>
        <pt x="166" y="656" on="0"/>
        <pt x="277" y="710" on="0"/>
        <pt x="354" y="710" on="1"/>
        <pt x="430" y="710" on="0"/>
        <pt x="542" y="656" on="0"/>
        <pt x="615" y="566" on="0"/>
        <pt x="650" y="451" on="0"/>
        <pt x="650" y="390" on="1"/>
        <pt x="650" y="335" on="0"/>
        <pt x="622" y="246" on="0"/>
        <pt x="571" y="176" on="0"/>
        <pt x="499" y="123" on="0"/>
        <pt x="455" y="105" on="1"/>
        <pt x="455" y="52" on="1"/>
        <pt x="578" y="52" on="1"/>
        <pt x="578" y="139" on="1"/>
        <pt x="658" y="139" on="1"/>
        <pt x="658" y="0" on="1"/>
        <pt x="404" y="0" on="1"/>
        <pt x="404" y="133" on="1"/>
        <pt x="432" y="145" on="0"/>
        <pt x="483" y="186" on="0"/>
        <pt x="522" y="241" on="0"/>
        <pt x="545" y="307" on="0"/>
        <pt x="545" y="344" on="1"/>
        <pt x="545" y="446" on="1"/>
        <pt x="545" y="485" on="0"/>
        <pt x="519" y="560" on="0"/>
        <pt x="470" y="618" on="0"/>
        <pt x="399" y="653" on="0"/>
        <pt x="354" y="653" on="1"/>
        <pt x="309" y="653" on="0"/>
        <pt x="238" y="618" on="0"/>
        <pt x="189" y="560" on="0"/>
        <pt x="163" y="485" on="0"/>
        <pt x="163" y="446" on="1"/>
        <pt x="163" y="344" on="1"/>
        <pt x="163" y="307" on="0"/>
        <pt x="186" y="241" on="0"/>
        <pt x="225" y="186" on="0"/>
        <pt x="276" y="145" on="0"/>
        <pt x="304" y="133" on="1"/>
        <pt x="304" y="0" on="1"/>
        <pt x="50" y="0" on="1"/>
      </contour>
    </TTGlyph>
    <TTGlyph name="Oslash" xMin="50" yMin="-44" xMax="674" yMax="742">
      <contour>
        <pt x="89" y="-14" on="1"/>
        <pt x="147" y="73" on="1"/>
        <pt x="101" y="120" on="0"/>
        <pt x="50" y="258" on="0"/>
        <pt x="50" y="349" on="1"/>
        <pt x="50" y="433" on="0"/>
        <pt x="95" y="567" on="0"/>
        <pt x="177" y="660" on="0"/>
        <pt x="292" y="710" on="0"/>
        <pt x="362" y="710" on="1"/>
        <pt x="413" y="710" on="0"/>
        <pt x="500" y="684" on="0"/>
        <pt x="537" y="659" on="1"/>
        <pt x="592" y="742" on="1"/>
        <pt x="635" y="712" on="1"/>
        <pt x="577" y="625" on="1"/>
        <pt x="623" y="578" on="0"/>
        <pt x="674" y="440" on="0"/>
        <pt x="674" y="349" on="1"/>
        <pt x="674" y="265" on="0"/>
        <pt x="629" y="131" on="0"/>
        <pt x="547" y="38" on="0"/>
        <pt x="432" y="-12" on="0"/>
        <pt x="362" y="-12" on="1"/>
        <pt x="311" y="-12" on="0"/>
        <pt x="224" y="14" on="0"/>
        <pt x="187" y="39" on="1"/>
        <pt x="132" y="-44" on="1"/>
      </contour>
      <contour>
        <pt x="498" y="601" on="1"/>
        <pt x="472" y="626" on="0"/>
        <pt x="404" y="653" on="0"/>
        <pt x="362" y="653" on="1"/>
        <pt x="314" y="653" on="0"/>
        <pt x="239" y="619" on="0"/>
        <pt x="187" y="557" on="0"/>
        <pt x="160" y="470" on="0"/>
        <pt x="160" y="417" on="1"/>
        <pt x="160" y="281" on="1"/>
        <pt x="160" y="199" on="0"/>
        <pt x="192" y="141" on="1"/>
      </contour>
      <contour>
        <pt x="362" y="45" on="1"/>
        <pt x="410" y="45" on="0"/>
        <pt x="485" y="79" on="0"/>
        <pt x="537" y="141" on="0"/>
        <pt x="564" y="228" on="0"/>
        <pt x="564" y="281" on="1"/>
        <pt x="564" y="417" on="1"/>
        <pt x="564" y="499" on="0"/>
        <pt x="532" y="557" on="1"/>
        <pt x="226" y="97" on="1"/>
        <pt x="252" y="72" on="0"/>
        <pt x="320" y="45" on="0"/>
      </contour>
    </TTGlyph>
    <TTGlyph name="Oslashacute" xMin="50" yMin="-44" xMax="674" yMax="957">
      <component glyphName="Oslash" x="0" y="0" flags="0x204"/>
      <component glyphName="acute.case" x="62" y="0" flags="0x4"/>
    </TTGlyph>
    <TTGlyph name="Otilde" xMin="50" yMin="-12" xMax="674" yMax="900">
      <component glyphName="O" x="0" y="0" flags="0x204"/>
      <component glyphName="tilde.case" x="62" y="0" flags="0x4"/>
    </TTGlyph>
    <TTGlyph name="P" xMin="52" yMin="0" xMax="590" yMax="698">
      <contour>
        <pt x="52" y="50" on="1"/>
        <pt x="126" y="50" on="1"/>
        <pt x="126" y="648" on="1"/>
        <pt x="52" y="648" on="1"/>
        <pt x="52" y="698" on="1"/>
        <pt x="389" y="698" on="1"/>
        <pt x="487" y="698" on="0"/>
        <pt x="590" y="603" on="0"/>
        <pt x="590" y="510" on="1"/>
        <pt x="590" y="418" on="0"/>
        <pt x="483" y="317" on="0"/>
        <pt x="386" y="317" on="1"/>
        <pt x="227" y="317" on="1"/>
        <pt x="227" y="50" on="1"/>
        <pt x="321" y="50" on="1"/>
        <pt x="321" y="0" on="1"/>
        <pt x="52" y="0" on="1"/>
      </contour>
      <contour>
        <pt x="227" y="371" on="1"/>
        <pt x="373" y="371" on="1"/>
        <pt x="427" y="371" on="0"/>
        <pt x="484" y="435" on="0"/>
        <pt x="484" y="484" on="1"/>
        <pt x="484" y="531" on="1"/>
        <pt x="484" y="580" on="0"/>
        <pt x="427" y="644" on="0"/>
        <pt x="373" y="644" on="1"/>
        <pt x="227" y="644" on="1"/>
      </contour>
    </TTGlyph>
    <TTGlyph name="Q" xMin="50" yMin="-176" xMax="674" yMax="710">
      <contour>
        <pt x="516" y="-176" on="1"/>
        <pt x="487" y="-176" on="0"/>
        <pt x="444" y="-167" on="0"/>
        <pt x="410" y="-149" on="0"/>
        <pt x="382" y="-120" on="0"/>
        <pt x="368" y="-99" on="1"/>
        <pt x="306" y="-8" on="1"/>
        <pt x="248" y="1" on="0"/>
        <pt x="153" y="58" on="0"/>
        <pt x="86" y="150" on="0"/>
        <pt x="50" y="273" on="0"/>
        <pt x="50" y="349" on="1"/>
        <pt x="50" y="433" on="0"/>
        <pt x="95" y="567" on="0"/>
        <pt x="177" y="660" on="0"/>
        <pt x="292" y="710" on="0"/>
        <pt x="362" y="710" on="1"/>
        <pt x="432" y="710" on="0"/>
        <pt x="547" y="660" on="0"/>
        <pt x="629" y="567" on="0"/>
        <pt x="674" y="433" on="0"/>
        <pt x="674" y="349" on="1"/>
        <pt x="674" y="272" on="0"/>
        <pt x="637" y="148" on="0"/>
        <pt x="568" y="56" on="0"/>
        <pt x="471" y="0" on="0"/>
        <pt x="412" y="-8" on="1"/>
        <pt x="461" y="-74" on="1"/>
        <pt x="482" y="-103" on="0"/>
        <pt x="520" y="-126" on="0"/>
        <pt x="553" y="-126" on="1"/>
        <pt x="580" y="-126" on="1"/>
        <pt x="580" y="-176" on="1"/>
      </contour>
      <contour>
        <pt x="362" y="45" on="1"/>
        <pt x="410" y="45" on="0"/>
        <pt x="484" y="79" on="0"/>
        <pt x="535" y="141" on="0"/>
        <pt x="562" y="228" on="0"/>
        <pt x="562" y="281" on="1"/>
        <pt x="562" y="417" on="1"/>
        <pt x="562" y="470" on="0"/>
        <pt x="535" y="557" on="0"/>
        <pt x="484" y="619" on="0"/>
        <pt x="410" y="653" on="0"/>
        <pt x="362" y="653" on="1"/>
        <pt x="314" y="653" on="0"/>
        <pt x="240" y="619" on="0"/>
        <pt x="189" y="557" on="0"/>
        <pt x="162" y="470" on="0"/>
        <pt x="162" y="417" on="1"/>
        <pt x="162" y="281" on="1"/>
        <pt x="162" y="228" on="0"/>
        <pt x="189" y="141" on="0"/>
        <pt x="240" y="79" on="0"/>
        <pt x="314" y="45" on="0"/>
      </contour>
    </TTGlyph>
    <TTGlyph name="R" xMin="52" yMin="0" xMax="667" yMax="698">
      <contour>
        <pt x="52" y="50" on="1"/>
        <pt x="126" y="50" on="1"/>
        <pt x="126" y="648" on="1"/>
        <pt x="52" y="648" on="1"/>
        <pt x="52" y="698" on="1"/>
        <pt x="390" y="698" on="1"/>
        <pt x="483" y="698" on="0"/>
        <pt x="590" y="607" on="0"/>
        <pt x="590" y="515" on="1"/>
        <pt x="590" y="443" on="0"/>
        <pt x="509" y="349" on="0"/>
        <pt x="435" y="335" on="1"/>
        <pt x="554" y="118" on="1"/>
        <pt x="574" y="82" on="0"/>
        <pt x="623" y="50" on="0"/>
        <pt x="659" y="50" on="1"/>
        <pt x="667" y="50" on="1"/>
        <pt x="667" y="0" on="1"/>
        <pt x="597" y="0" on="1"/>
        <pt x="567" y="0" on="0"/>
        <pt x="525" y="12" on="0"/>
        <pt x="494" y="34" on="0"/>
        <pt x="469" y="68" on="0"/>
        <pt x="457" y="91" on="1"/>
        <pt x="336" y="319" on="1"/>
        <pt x="227" y="319" on="1"/>
        <pt x="227" y="50" on="1"/>
        <pt x="301" y="50" on="1"/>
        <pt x="301" y="0" on="1"/>
        <pt x="52" y="0" on="1"/>
      </contour>
      <contour>
        <pt x="227" y="371" on="1"/>
        <pt x="373" y="371" on="1"/>
        <pt x="426" y="371" on="0"/>
        <pt x="484" y="434" on="0"/>
        <pt x="484" y="483" on="1"/>
        <pt x="484" y="532" on="1"/>
        <pt x="484" y="581" on="0"/>
        <pt x="426" y="644" on="0"/>
        <pt x="373" y="644" on="1"/>
        <pt x="227" y="644" on="1"/>
      </contour>
    </TTGlyph>
    <TTGlyph name="Racute" xMin="52" yMin="0" xMax="667" yMax="957">
      <component glyphName="R" x="0" y="0" flags="0x204"/>
      <component glyphName="acute.case" x="15" y="0" flags="0x4"/>
    </TTGlyph>
    <TTGlyph name="Rcaron" xMin="52" yMin="0" xMax="667" yMax="942">
      <component glyphName="R" x="0" y="0" flags="0x204"/>
      <component glyphName="caron.case" x="15" y="0" flags="0x4"/>
    </TTGlyph>
    <TTGlyph name="Rcommaaccent" xMin="52" yMin="-254" xMax="667" yMax="698">
      <component glyphName="R" x="0" y="0" flags="0x204"/>
      <component glyphName="commabelowcomb" x="387" y="0" flags="0x4"/>
    </TTGlyph>
    <TTGlyph name="S" xMin="58" yMin="-12" xMax="532" yMax="710">
      <contour>
        <pt x="299" y="-12" on="1"/>
        <pt x="237" y="-12" on="0"/>
        <pt x="158" y="28" on="0"/>
        <pt x="143" y="60" on="1"/>
        <pt x="138" y="60" on="1"/>
        <pt x="138" y="0" on="1"/>
        <pt x="58" y="0" on="1"/>
        <pt x="58" y="205" on="1"/>
        <pt x="138" y="205" on="1"/>
        <pt x="138" y="159" on="1"/>
        <pt x="138" y="108" on="0"/>
        <pt x="206" y="45" on="0"/>
        <pt x="285" y="45" on="1"/>
        <pt x="369" y="45" on="0"/>
        <pt x="444" y="115" on="0"/>
        <pt x="444" y="174" on="1"/>
        <pt x="444" y="225" on="0"/>
        <pt x="387" y="283" on="0"/>
        <pt x="323" y="299" on="1"/>
        <pt x="270" y="312" on="1"/>
        <pt x="175" y="335" on="0"/>
        <pt x="69" y="433" on="0"/>
        <pt x="69" y="521" on="1"/>
        <pt x="69" y="564" on="0"/>
        <pt x="101" y="634" on="0"/>
        <pt x="159" y="683" on="0"/>
        <pt x="241" y="710" on="0"/>
        <pt x="292" y="710" on="1"/>
        <pt x="350" y="710" on="0"/>
        <pt x="423" y="672" on="0"/>
        <pt x="438" y="643" on="1"/>
        <pt x="443" y="643" on="1"/>
        <pt x="443" y="698" on="1"/>
        <pt x="523" y="698" on="1"/>
        <pt x="523" y="501" on="1"/>
        <pt x="443" y="501" on="1"/>
        <pt x="443" y="547" on="1"/>
        <pt x="443" y="598" on="0"/>
        <pt x="376" y="653" on="0"/>
        <pt x="296" y="653" on="1"/>
        <pt x="226" y="653" on="0"/>
        <pt x="157" y="591" on="0"/>
        <pt x="157" y="541" on="1"/>
        <pt x="157" y="489" on="0"/>
        <pt x="219" y="431" on="0"/>
        <pt x="288" y="413" on="1"/>
        <pt x="338" y="401" on="1"/>
        <pt x="431" y="378" on="0"/>
        <pt x="532" y="281" on="0"/>
        <pt x="532" y="199" on="1"/>
        <pt x="532" y="153" on="0"/>
        <pt x="501" y="76" on="0"/>
        <pt x="442" y="20" on="0"/>
        <pt x="355" y="-12" on="0"/>
      </contour>
    </TTGlyph>
    <TTGlyph name="Sacute" xMin="58" yMin="-12" xMax="532" yMax="957">
      <component glyphName="S" x="0" y="0" flags="0x204"/>
      <component glyphName="acute.case" x="-9" y="0" flags="0x4"/>
    </TTGlyph>
    <TTGlyph name="Scaron" xMin="58" yMin="-12" xMax="532" yMax="942">
      <component glyphName="S" x="0" y="0" flags="0x204"/>
      <component glyphName="caron.case" x="-9" y="0" flags="0x4"/>
    </TTGlyph>
    <TTGlyph name="Scedilla" xMin="58" yMin="-206" xMax="532" yMax="710">
      <contour>
        <pt x="307" y="-206" on="1"/>
        <pt x="269" y="-206" on="0"/>
        <pt x="226" y="-180" on="0"/>
        <pt x="215" y="-166" on="1"/>
        <pt x="237" y="-142" on="1"/>
        <pt x="247" y="-153" on="0"/>
        <pt x="276" y="-166" on="0"/>
        <pt x="296" y="-166" on="1"/>
        <pt x="319" y="-166" on="0"/>
        <pt x="348" y="-146" on="0"/>
        <pt x="348" y="-125" on="1"/>
        <pt x="348" y="-110" on="0"/>
        <pt x="325" y="-84" on="0"/>
        <pt x="287" y="-79" on="1"/>
        <pt x="260" y="-76" on="1"/>
        <pt x="273" y="-11" on="1"/>
        <pt x="222" y="-6" on="0"/>
        <pt x="157" y="32" on="0"/>
        <pt x="143" y="60" on="1"/>
        <pt x="138" y="60" on="1"/>
        <pt x="138" y="0" on="1"/>
        <pt x="58" y="0" on="1"/>
        <pt x="58" y="205" on="1"/>
        <pt x="138" y="205" on="1"/>
        <pt x="138" y="159" on="1"/>
        <pt x="138" y="108" on="0"/>
        <pt x="206" y="45" on="0"/>
        <pt x="285" y="45" on="1"/>
        <pt x="369" y="45" on="0"/>
        <pt x="444" y="115" on="0"/>
        <pt x="444" y="174" on="1"/>
        <pt x="444" y="225" on="0"/>
        <pt x="387" y="283" on="0"/>
        <pt x="323" y="299" on="1"/>
        <pt x="270" y="312" on="1"/>
        <pt x="175" y="335" on="0"/>
        <pt x="69" y="433" on="0"/>
        <pt x="69" y="521" on="1"/>
        <pt x="69" y="564" on="0"/>
        <pt x="101" y="634" on="0"/>
        <pt x="159" y="683" on="0"/>
        <pt x="241" y="710" on="0"/>
        <pt x="292" y="710" on="1"/>
        <pt x="350" y="710" on="0"/>
        <pt x="423" y="672" on="0"/>
        <pt x="438" y="643" on="1"/>
        <pt x="443" y="643" on="1"/>
        <pt x="443" y="698" on="1"/>
        <pt x="523" y="698" on="1"/>
        <pt x="523" y="501" on="1"/>
        <pt x="443" y="501" on="1"/>
        <pt x="443" y="547" on="1"/>
        <pt x="443" y="598" on="0"/>
        <pt x="376" y="653" on="0"/>
        <pt x="296" y="653" on="1"/>
        <pt x="226" y="653" on="0"/>
        <pt x="157" y="591" on="0"/>
        <pt x="157" y="541" on="1"/>
        <pt x="157" y="489" on="0"/>
        <pt x="219" y="431" on="0"/>
        <pt x="288" y="413" on="1"/>
        <pt x="338" y="401" on="1"/>
        <pt x="431" y="378" on="0"/>
        <pt x="532" y="281" on="0"/>
        <pt x="532" y="199" on="1"/>
        <pt x="532" y="155" on="0"/>
        <pt x="503" y="79" on="0"/>
        <pt x="448" y="24" on="0"/>
        <pt x="367" y="-10" on="0"/>
        <pt x="315" y="-12" on="1"/>
        <pt x="305" y="-60" on="1"/>
        <pt x="308" y="-63" on="1"/>
        <pt x="328" y="-58" on="0"/>
        <pt x="345" y="-58" on="1"/>
        <pt x="377" y="-58" on="0"/>
        <pt x="420" y="-91" on="0"/>
        <pt x="420" y="-123" on="1"/>
        <pt x="420" y="-145" on="0"/>
        <pt x="402" y="-176" on="0"/>
        <pt x="370" y="-196" on="0"/>
        <pt x="329" y="-206" on="0"/>
      </contour>
    </TTGlyph>
    <TTGlyph name="Schwa" xMin="50" yMin="-12" xMax="654" yMax="710">
      <contour>
        <pt x="348" y="-12" on="1"/>
        <pt x="277" y="-12" on="0"/>
        <pt x="166" y="37" on="0"/>
        <pt x="90" y="120" on="0"/>
        <pt x="50" y="230" on="0"/>
        <pt x="50" y="292" on="1"/>
        <pt x="50" y="334" on="1"/>
        <pt x="542" y="334" on="1"/>
        <pt x="542" y="413" on="1"/>
        <pt x="542" y="464" on="0"/>
        <pt x="514" y="549" on="0"/>
        <pt x="459" y="609" on="0"/>
        <pt x="376" y="642" on="0"/>
        <pt x="321" y="642" on="1"/>
        <pt x="243" y="642" on="0"/>
        <pt x="135" y="569" on="0"/>
        <pt x="112" y="509" on="1"/>
        <pt x="71" y="530" on="1"/>
        <pt x="81" y="562" on="0"/>
        <pt x="125" y="626" on="0"/>
        <pt x="193" y="678" on="0"/>
        <pt x="284" y="710" on="0"/>
        <pt x="341" y="710" on="1"/>
        <pt x="416" y="710" on="0"/>
        <pt x="532" y="659" on="0"/>
        <pt x="612" y="565" on="0"/>
        <pt x="654" y="431" on="0"/>
        <pt x="654" y="349" on="1"/>
        <pt x="654" y="265" on="0"/>
        <pt x="610" y="131" on="0"/>
        <pt x="529" y="38" on="0"/>
        <pt x="416" y="-12" on="0"/>
      </contour>
      <contour>
        <pt x="348" y="45" on="1"/>
        <pt x="393" y="45" on="0"/>
        <pt x="465" y="77" on="0"/>
        <pt x="515" y="136" on="0"/>
        <pt x="542" y="220" on="0"/>
        <pt x="542" y="271" on="1"/>
        <pt x="542" y="281" on="1"/>
        <pt x="158" y="281" on="1"/>
        <pt x="158" y="271" on="1"/>
        <pt x="158" y="220" on="0"/>
        <pt x="184" y="136" on="0"/>
        <pt x="233" y="77" on="0"/>
        <pt x="304" y="45" on="0"/>
      </contour>
    </TTGlyph>
    <TTGlyph name="Scircumflex" xMin="58" yMin="-12" xMax="532" yMax="938">
      <component glyphName="S" x="0" y="0" flags="0x204"/>
      <component glyphName="circumflex.case" x="-9" y="0" flags="0x4"/>
    </TTGlyph>
    <TTGlyph name="Scommaaccent" xMin="58" yMin="-254" xMax="532" yMax="710">
      <component glyphName="S" x="0" y="0" flags="0x204"/>
      <component glyphName="commabelowcomb" x="298" y="0" flags="0x4"/>
    </TTGlyph>
    <TTGlyph name="T" xMin="35" yMin="0" xMax="630" yMax="698">
      <contour>
        <pt x="189" y="50" on="1"/>
        <pt x="283" y="50" on="1"/>
        <pt x="283" y="644" on="1"/>
        <pt x="115" y="644" on="1"/>
        <pt x="115" y="527" on="1"/>
        <pt x="35" y="527" on="1"/>
        <pt x="35" y="698" on="1"/>
        <pt x="630" y="698" on="1"/>
        <pt x="630" y="527" on="1"/>
        <pt x="550" y="527" on="1"/>
        <pt x="550" y="644" on="1"/>
        <pt x="384" y="644" on="1"/>
        <pt x="384" y="50" on="1"/>
        <pt x="478" y="50" on="1"/>
        <pt x="478" y="0" on="1"/>
        <pt x="189" y="0" on="1"/>
      </contour>
    </TTGlyph>
    <TTGlyph name="Tbar" xMin="35" yMin="0" xMax="630" yMax="698">
      <contour>
        <pt x="189" y="50" on="1"/>
        <pt x="283" y="50" on="1"/>
        <pt x="283" y="330" on="1"/>
        <pt x="135" y="330" on="1"/>
        <pt x="135" y="383" on="1"/>
        <pt x="283" y="383" on="1"/>
        <pt x="283" y="644" on="1"/>
        <pt x="115" y="644" on="1"/>
        <pt x="115" y="527" on="1"/>
        <pt x="35" y="527" on="1"/>
        <pt x="35" y="698" on="1"/>
        <pt x="630" y="698" on="1"/>
        <pt x="630" y="527" on="1"/>
        <pt x="550" y="527" on="1"/>
        <pt x="550" y="644" on="1"/>
        <pt x="384" y="644" on="1"/>
        <pt x="384" y="383" on="1"/>
        <pt x="531" y="383" on="1"/>
        <pt x="531" y="330" on="1"/>
        <pt x="384" y="330" on="1"/>
        <pt x="384" y="50" on="1"/>
        <pt x="478" y="50" on="1"/>
        <pt x="478" y="0" on="1"/>
        <pt x="189" y="0" on="1"/>
      </contour>
    </TTGlyph>
    <TTGlyph name="Tcaron" xMin="35" yMin="0" xMax="630" yMax="942">
      <component glyphName="T" x="0" y="0" flags="0x204"/>
      <component glyphName="caron.case" x="33" y="0" flags="0x4"/>
    </TTGlyph>
    <TTGlyph name="Tcedilla" xMin="35" yMin="-254" xMax="630" yMax="698">
      <component glyphName="T" x="0" y="0" flags="0x204"/>
      <component glyphName="commabelowcomb" x="333" y="0" flags="0x4"/>
    </TTGlyph>
    <TTGlyph name="Tcommaaccent" xMin="35" yMin="-254" xMax="630" yMax="698">
      <component glyphName="T" x="0" y="0" flags="0x204"/>
      <component glyphName="commabelowcomb" x="333" y="0" flags="0x4"/>
    </TTGlyph>
    <TTGlyph name="Thorn" xMin="52" yMin="0" xMax="590" yMax="698">
      <contour>
        <pt x="52" y="50" on="1"/>
        <pt x="126" y="50" on="1"/>
        <pt x="126" y="648" on="1"/>
        <pt x="52" y="648" on="1"/>
        <pt x="52" y="698" on="1"/>
        <pt x="301" y="698" on="1"/>
        <pt x="301" y="648" on="1"/>
        <pt x="227" y="648" on="1"/>
        <pt x="227" y="543" on="1"/>
        <pt x="389" y="543" on="1"/>
        <pt x="487" y="543" on="0"/>
        <pt x="590" y="448" on="0"/>
        <pt x="590" y="355" on="1"/>
        <pt x="590" y="263" on="0"/>
        <pt x="483" y="162" on="0"/>
        <pt x="386" y="162" on="1"/>
        <pt x="227" y="162" on="1"/>
        <pt x="227" y="50" on="1"/>
        <pt x="301" y="50" on="1"/>
        <pt x="301" y="0" on="1"/>
        <pt x="52" y="0" on="1"/>
      </contour>
      <contour>
        <pt x="227" y="216" on="1"/>
        <pt x="373" y="216" on="1"/>
        <pt x="427" y="216" on="0"/>
        <pt x="484" y="280" on="0"/>
        <pt x="484" y="329" on="1"/>
        <pt x="484" y="376" on="1"/>
        <pt x="484" y="425" on="0"/>
        <pt x="427" y="489" on="0"/>
        <pt x="373" y="489" on="1"/>
        <pt x="227" y="489" on="1"/>
      </contour>
    </TTGlyph>
    <TTGlyph name="U" xMin="44" yMin="-12" xMax="698" yMax="698">
      <contour>
        <pt x="381" y="-12" on="1"/>
        <pt x="310" y="-12" on="0"/>
        <pt x="211" y="19" on="0"/>
        <pt x="147" y="86" on="0"/>
        <pt x="118" y="193" on="0"/>
        <pt x="118" y="269" on="1"/>
        <pt x="118" y="648" on="1"/>
        <pt x="44" y="648" on="1"/>
        <pt x="44" y="698" on="1"/>
        <pt x="293" y="698" on="1"/>
        <pt x="293" y="648" on="1"/>
        <pt x="219" y="648" on="1"/>
        <pt x="219" y="255" on="1"/>
        <pt x="219" y="151" on="0"/>
        <pt x="293" y="49" on="0"/>
        <pt x="389" y="49" on="1"/>
        <pt x="485" y="49" on="0"/>
        <pt x="565" y="151" on="0"/>
        <pt x="565" y="255" on="1"/>
        <pt x="565" y="648" on="1"/>
        <pt x="491" y="648" on="1"/>
        <pt x="491" y="698" on="1"/>
        <pt x="698" y="698" on="1"/>
        <pt x="698" y="648" on="1"/>
        <pt x="624" y="648" on="1"/>
        <pt x="624" y="279" on="1"/>
        <pt x="624" y="204" on="0"/>
        <pt x="599" y="95" on="0"/>
        <pt x="541" y="23" on="0"/>
        <pt x="448" y="-12" on="0"/>
      </contour>
    </TTGlyph>
    <TTGlyph name="Uacute" xMin="44" yMin="-12" xMax="698" yMax="957">
      <component glyphName="U" x="0" y="0" flags="0x204"/>
      <component glyphName="acute.case" x="92" y="0" flags="0x4"/>
    </TTGlyph>
    <TTGlyph name="Ubreve" xMin="44" yMin="-12" xMax="698" yMax="923">
      <component glyphName="U" x="0" y="0" flags="0x204"/>
      <component glyphName="breve.case" x="92" y="0" flags="0x4"/>
    </TTGlyph>
    <TTGlyph name="Ucircumflex" xMin="44" yMin="-12" xMax="698" yMax="938">
      <component glyphName="U" x="0" y="0" flags="0x204"/>
      <component glyphName="circumflex.case" x="92" y="0" flags="0x4"/>
    </TTGlyph>
    <TTGlyph name="Udieresis" xMin="44" yMin="-12" xMax="698" yMax="896">
      <component glyphName="U" x="0" y="0" flags="0x204"/>
      <component glyphName="dieresis.case" x="92" y="0" flags="0x4"/>
    </TTGlyph>
    <TTGlyph name="Udotbelow" xMin="44" yMin="-170" xMax="698" yMax="698">
      <component glyphName="U" x="0" y="0" flags="0x204"/>
      <component glyphName="dotbelowcomb" x="376" y="0" flags="0x4"/>
    </TTGlyph>
    <TTGlyph name="Ugrave" xMin="44" yMin="-12" xMax="698" yMax="957">
      <component glyphName="U" x="0" y="0" flags="0x204"/>
      <component glyphName="grave.case" x="92" y="0" flags="0x4"/>
    </TTGlyph>
    <TTGlyph name="Uhook" xMin="44" yMin="-12" xMax="698" yMax="939">
      <component glyphName="U" x="0" y="0" flags="0x204"/>
      <component glyphName="hookcomb.case" x="392" y="0" flags="0x4"/>
    </TTGlyph>
    <TTGlyph name="Uhorn" xMin="44" yMin="-12" xMax="726" yMax="808">
      <contour>
        <pt x="381" y="-12" on="1"/>
        <pt x="310" y="-12" on="0"/>
        <pt x="211" y="19" on="0"/>
        <pt x="147" y="86" on="0"/>
        <pt x="118" y="193" on="0"/>
        <pt x="118" y="269" on="1"/>
        <pt x="118" y="648" on="1"/>
        <pt x="44" y="648" on="1"/>
        <pt x="44" y="698" on="1"/>
        <pt x="293" y="698" on="1"/>
        <pt x="293" y="648" on="1"/>
        <pt x="219" y="648" on="1"/>
        <pt x="219" y="255" on="1"/>
        <pt x="219" y="151" on="0"/>
        <pt x="293" y="49" on="0"/>
        <pt x="389" y="49" on="1"/>
        <pt x="485" y="49" on="0"/>
        <pt x="565" y="151" on="0"/>
        <pt x="565" y="255" on="1"/>
        <pt x="565" y="648" on="1"/>
        <pt x="491" y="648" on="1"/>
        <pt x="491" y="698" on="1"/>
        <pt x="642" y="698" on="1"/>
        <pt x="642" y="808" on="1"/>
        <pt x="726" y="808" on="1"/>
        <pt x="726" y="725" on="1"/>
        <pt x="726" y="696" on="0"/>
        <pt x="691" y="660" on="0"/>
        <pt x="654" y="660" on="1"/>
        <pt x="624" y="660" on="1"/>
        <pt x="624" y="279" on="1"/>
        <pt x="624" y="204" on="0"/>
        <pt x="599" y="95" on="0"/>
        <pt x="541" y="23" on="0"/>
        <pt x="448" y="-12" on="0"/>
      </contour>
    </TTGlyph>
    <TTGlyph name="Uhornacute" xMin="44" yMin="-12" xMax="726" yMax="957">
      <component glyphName="Uhorn" x="0" y="0" flags="0x204"/>
      <component glyphName="acute.case" x="92" y="0" flags="0x4"/>
    </TTGlyph>
    <TTGlyph name="Uhorndotbelow" xMin="44" yMin="-170" xMax="726" yMax="808">
      <component glyphName="Uhorn" x="0" y="0" flags="0x204"/>
      <component glyphName="dotbelowcomb" x="376" y="0" flags="0x4"/>
    </TTGlyph>
    <TTGlyph name="Uhorngrave" xMin="44" yMin="-12" xMax="726" yMax="957">
      <component glyphName="Uhorn" x="0" y="0" flags="0x204"/>
      <component glyphName="grave.case" x="92" y="0" flags="0x4"/>
    </TTGlyph>
    <TTGlyph name="Uhornhook" xMin="44" yMin="-12" xMax="726" yMax="939">
      <component glyphName="Uhorn" x="0" y="0" flags="0x204"/>
      <component glyphName="hookcomb.case" x="392" y="0" flags="0x4"/>
    </TTGlyph>
    <TTGlyph name="Uhorntilde" xMin="44" yMin="-12" xMax="726" yMax="900">
      <component glyphName="Uhorn" x="0" y="0" flags="0x204"/>
      <component glyphName="tilde.alt01.case" x="92" y="0" flags="0x4"/>
    </TTGlyph>
    <TTGlyph name="Uhungarumlaut" xMin="44" yMin="-12" xMax="698" yMax="957">
      <component glyphName="U" x="0" y="0" flags="0x204"/>
      <component glyphName="hungarumlaut.case" x="92" y="0" flags="0x4"/>
    </TTGlyph>
    <TTGlyph name="Umacron" xMin="44" yMin="-12" xMax="698" yMax="872">
      <component glyphName="U" x="0" y="0" flags="0x204"/>
      <component glyphName="macron.case" x="92" y="0" flags="0x4"/>
    </TTGlyph>
    <TTGlyph name="Uogonek" xMin="44" yMin="-206" xMax="698" yMax="698">
      <contour>
        <pt x="467" y="-206" on="1"/>
        <pt x="426" y="-206" on="0"/>
        <pt x="370" y="-170" on="0"/>
        <pt x="370" y="-130" on="1"/>
        <pt x="370" y="-112" on="0"/>
        <pt x="386" y="-79" on="0"/>
        <pt x="413" y="-49" on="0"/>
        <pt x="448" y="-21" on="0"/>
        <pt x="467" y="-7" on="1"/>
        <pt x="466" y="-3" on="1"/>
        <pt x="428" y="-12" on="0"/>
        <pt x="381" y="-12" on="1"/>
        <pt x="310" y="-12" on="0"/>
        <pt x="211" y="19" on="0"/>
        <pt x="147" y="86" on="0"/>
        <pt x="118" y="193" on="0"/>
        <pt x="118" y="269" on="1"/>
        <pt x="118" y="648" on="1"/>
        <pt x="44" y="648" on="1"/>
        <pt x="44" y="698" on="1"/>
        <pt x="293" y="698" on="1"/>
        <pt x="293" y="648" on="1"/>
        <pt x="219" y="648" on="1"/>
        <pt x="219" y="255" on="1"/>
        <pt x="219" y="151" on="0"/>
        <pt x="293" y="49" on="0"/>
        <pt x="389" y="49" on="1"/>
        <pt x="485" y="49" on="0"/>
        <pt x="565" y="151" on="0"/>
        <pt x="565" y="255" on="1"/>
        <pt x="565" y="648" on="1"/>
        <pt x="491" y="648" on="1"/>
        <pt x="491" y="698" on="1"/>
        <pt x="698" y="698" on="1"/>
        <pt x="698" y="648" on="1"/>
        <pt x="624" y="648" on="1"/>
        <pt x="624" y="279" on="1"/>
        <pt x="624" y="187" on="0"/>
        <pt x="588" y="69" on="0"/>
        <pt x="543" y="32" on="1"/>
        <pt x="513" y="6" on="0"/>
        <pt x="474" y="-38" on="0"/>
        <pt x="452" y="-76" on="0"/>
        <pt x="444" y="-107" on="0"/>
        <pt x="444" y="-119" on="1"/>
        <pt x="444" y="-139" on="0"/>
        <pt x="469" y="-165" on="0"/>
        <pt x="490" y="-165" on="1"/>
        <pt x="504" y="-165" on="0"/>
        <pt x="526" y="-152" on="0"/>
        <pt x="533" y="-143" on="1"/>
        <pt x="557" y="-166" on="1"/>
        <pt x="546" y="-183" on="0"/>
        <pt x="502" y="-206" on="0"/>
      </contour>
    </TTGlyph>
    <TTGlyph name="Uring" xMin="44" yMin="-12" xMax="698" yMax="977">
      <component glyphName="U" x="0" y="0" flags="0x204"/>
      <component glyphName="ring.case" x="92" y="0" flags="0x4"/>
    </TTGlyph>
    <TTGlyph name="Utilde" xMin="44" yMin="-12" xMax="698" yMax="900">
      <component glyphName="U" x="0" y="0" flags="0x204"/>
      <component glyphName="tilde.case" x="92" y="0" flags="0x4"/>
    </TTGlyph>
    <TTGlyph name="V" xMin="21" yMin="0" xMax="649" yMax="698">
      <contour>
        <pt x="73" y="648" on="1"/>
        <pt x="21" y="648" on="1"/>
        <pt x="21" y="698" on="1"/>
        <pt x="266" y="698" on="1"/>
        <pt x="266" y="648" on="1"/>
        <pt x="178" y="648" on="1"/>
        <pt x="278" y="341" on="1"/>
        <pt x="354" y="93" on="1"/>
        <pt x="358" y="93" on="1"/>
        <pt x="434" y="342" on="1"/>
        <pt x="534" y="648" on="1"/>
        <pt x="446" y="648" on="1"/>
        <pt x="446" y="698" on="1"/>
        <pt x="649" y="698" on="1"/>
        <pt x="649" y="648" on="1"/>
        <pt x="597" y="648" on="1"/>
        <pt x="383" y="0" on="1"/>
        <pt x="287" y="0" on="1"/>
      </contour>
    </TTGlyph>
    <TTGlyph name="W" xMin="22" yMin="0" xMax="958" yMax="698">
      <contour>
        <pt x="74" y="648" on="1"/>
        <pt x="22" y="648" on="1"/>
        <pt x="22" y="698" on="1"/>
        <pt x="267" y="698" on="1"/>
        <pt x="267" y="648" on="1"/>
        <pt x="179" y="648" on="1"/>
        <pt x="306" y="109" on="1"/>
        <pt x="310" y="109" on="1"/>
        <pt x="463" y="698" on="1"/>
        <pt x="557" y="698" on="1"/>
        <pt x="710" y="109" on="1"/>
        <pt x="714" y="109" on="1"/>
        <pt x="841" y="648" on="1"/>
        <pt x="753" y="648" on="1"/>
        <pt x="753" y="698" on="1"/>
        <pt x="958" y="698" on="1"/>
        <pt x="958" y="648" on="1"/>
        <pt x="906" y="648" on="1"/>
        <pt x="742" y="0" on="1"/>
        <pt x="645" y="0" on="1"/>
        <pt x="492" y="569" on="1"/>
        <pt x="488" y="569" on="1"/>
        <pt x="335" y="0" on="1"/>
        <pt x="238" y="0" on="1"/>
      </contour>
    </TTGlyph>
    <TTGlyph name="Wacute" xMin="22" yMin="0" xMax="958" yMax="957">
      <component glyphName="W" x="0" y="0" flags="0x204"/>
      <component glyphName="acute.case" x="208" y="0" flags="0x4"/>
    </TTGlyph>
    <TTGlyph name="Wcircumflex" xMin="22" yMin="0" xMax="958" yMax="938">
      <component glyphName="W" x="0" y="0" flags="0x204"/>
      <component glyphName="circumflex.case" x="208" y="0" flags="0x4"/>
    </TTGlyph>
    <TTGlyph name="Wdieresis" xMin="22" yMin="0" xMax="958" yMax="896">
      <component glyphName="W" x="0" y="0" flags="0x204"/>
      <component glyphName="dieresis.case" x="208" y="0" flags="0x4"/>
    </TTGlyph>
    <TTGlyph name="Wgrave" xMin="22" yMin="0" xMax="958" yMax="957">
      <component glyphName="W" x="0" y="0" flags="0x204"/>
      <component glyphName="grave.case" x="208" y="0" flags="0x4"/>
    </TTGlyph>
    <TTGlyph name="X" xMin="19" yMin="0" xMax="659" yMax="698">
      <contour>
        <pt x="19" y="50" on="1"/>
        <pt x="78" y="50" on="1"/>
        <pt x="290" y="339" on="1"/>
        <pt x="85" y="648" on="1"/>
        <pt x="26" y="648" on="1"/>
        <pt x="26" y="698" on="1"/>
        <pt x="278" y="698" on="1"/>
        <pt x="278" y="648" on="1"/>
        <pt x="205" y="648" on="1"/>
        <pt x="356" y="413" on="1"/>
        <pt x="360" y="413" on="1"/>
        <pt x="519" y="648" on="1"/>
        <pt x="452" y="648" on="1"/>
        <pt x="452" y="698" on="1"/>
        <pt x="652" y="698" on="1"/>
        <pt x="652" y="648" on="1"/>
        <pt x="593" y="648" on="1"/>
        <pt x="390" y="367" on="1"/>
        <pt x="600" y="50" on="1"/>
        <pt x="659" y="50" on="1"/>
        <pt x="659" y="0" on="1"/>
        <pt x="407" y="0" on="1"/>
        <pt x="407" y="50" on="1"/>
        <pt x="480" y="50" on="1"/>
        <pt x="324" y="293" on="1"/>
        <pt x="320" y="293" on="1"/>
        <pt x="152" y="50" on="1"/>
        <pt x="219" y="50" on="1"/>
        <pt x="219" y="0" on="1"/>
        <pt x="19" y="0" on="1"/>
      </contour>
    </TTGlyph>
    <TTGlyph name="Y" xMin="21" yMin="0" xMax="623" yMax="698">
      <contour>
        <pt x="181" y="50" on="1"/>
        <pt x="272" y="50" on="1"/>
        <pt x="272" y="281" on="1"/>
        <pt x="73" y="648" on="1"/>
        <pt x="21" y="648" on="1"/>
        <pt x="21" y="698" on="1"/>
        <pt x="272" y="698" on="1"/>
        <pt x="272" y="648" on="1"/>
        <pt x="186" y="648" on="1"/>
        <pt x="344" y="347" on="1"/>
        <pt x="348" y="347" on="1"/>
        <pt x="506" y="648" on="1"/>
        <pt x="420" y="648" on="1"/>
        <pt x="420" y="698" on="1"/>
        <pt x="623" y="698" on="1"/>
        <pt x="623" y="648" on="1"/>
        <pt x="571" y="648" on="1"/>
        <pt x="373" y="289" on="1"/>
        <pt x="373" y="50" on="1"/>
        <pt x="464" y="50" on="1"/>
        <pt x="464" y="0" on="1"/>
        <pt x="181" y="0" on="1"/>
      </contour>
    </TTGlyph>
    <TTGlyph name="Yacute" xMin="21" yMin="0" xMax="623" yMax="957">
      <component glyphName="Y" x="0" y="0" flags="0x204"/>
      <component glyphName="acute.case" x="46" y="0" flags="0x4"/>
    </TTGlyph>
    <TTGlyph name="Ycircumflex" xMin="21" yMin="0" xMax="623" yMax="938">
      <component glyphName="Y" x="0" y="0" flags="0x204"/>
      <component glyphName="circumflex.case" x="46" y="0" flags="0x4"/>
    </TTGlyph>
    <TTGlyph name="Ydieresis" xMin="21" yMin="0" xMax="623" yMax="896">
      <component glyphName="Y" x="0" y="0" flags="0x204"/>
      <component glyphName="dieresis.case" x="46" y="0" flags="0x4"/>
    </TTGlyph>
    <TTGlyph name="Ydotbelow" xMin="21" yMin="-170" xMax="623" yMax="698">
      <component glyphName="Y" x="0" y="0" flags="0x204"/>
      <component glyphName="dotbelowcomb" x="323" y="0" flags="0x4"/>
    </TTGlyph>
    <TTGlyph name="Ygrave" xMin="21" yMin="0" xMax="623" yMax="957">
      <component glyphName="Y" x="0" y="0" flags="0x204"/>
      <component glyphName="grave.case" x="46" y="0" flags="0x4"/>
    </TTGlyph>
    <TTGlyph name="Yhook" xMin="21" yMin="0" xMax="623" yMax="939">
      <component glyphName="Y" x="0" y="0" flags="0x204"/>
      <component glyphName="hookcomb.case" x="346" y="0" flags="0x4"/>
    </TTGlyph>
    <TTGlyph name="Ytilde" xMin="21" yMin="0" xMax="623" yMax="900">
      <component glyphName="Y" x="0" y="0" flags="0x204"/>
      <component glyphName="tilde.case" x="46" y="0" flags="0x4"/>
    </TTGlyph>
    <TTGlyph name="Z" xMin="57" yMin="0" xMax="579" yMax="698">
      <contour>
        <pt x="57" y="53" on="1"/>
        <pt x="453" y="644" on="1"/>
        <pt x="148" y="644" on="1"/>
        <pt x="148" y="527" on="1"/>
        <pt x="67" y="527" on="1"/>
        <pt x="67" y="698" on="1"/>
        <pt x="569" y="698" on="1"/>
        <pt x="569" y="645" on="1"/>
        <pt x="173" y="54" on="1"/>
        <pt x="498" y="54" on="1"/>
        <pt x="498" y="182" on="1"/>
        <pt x="579" y="182" on="1"/>
        <pt x="579" y="0" on="1"/>
        <pt x="57" y="0" on="1"/>
      </contour>
    </TTGlyph>
    <TTGlyph name="Zacute" xMin="57" yMin="0" xMax="579" yMax="957">
      <component glyphName="Z" x="0" y="0" flags="0x204"/>
      <component glyphName="acute.case" x="10" y="0" flags="0x4"/>
    </TTGlyph>
    <TTGlyph name="Zcaron" xMin="57" yMin="0" xMax="579" yMax="942">
      <component glyphName="Z" x="0" y="0" flags="0x204"/>
      <component glyphName="caron.case" x="10" y="0" flags="0x4"/>
    </TTGlyph>
    <TTGlyph name="Zdotaccent" xMin="57" yMin="0" xMax="579" yMax="898">
      <component glyphName="Z" x="0" y="0" flags="0x204"/>
      <component glyphName="dotaccent.case" x="10" y="0" flags="0x4"/>
    </TTGlyph>
    <TTGlyph name="a" xMin="43" yMin="-12" xMax="515" yMax="530">
      <contour>
        <pt x="199" y="-12" on="1"/>
        <pt x="124" y="-12" on="0"/>
        <pt x="43" y="64" on="0"/>
        <pt x="43" y="130" on="1"/>
        <pt x="43" y="204" on="0"/>
        <pt x="149" y="282" on="0"/>
        <pt x="274" y="282" on="1"/>
        <pt x="347" y="282" on="1"/>
        <pt x="347" y="355" on="1"/>
        <pt x="347" y="416" on="0"/>
        <pt x="290" y="480" on="0"/>
        <pt x="232" y="480" on="1"/>
        <pt x="207" y="480" on="0"/>
        <pt x="166" y="472" on="0"/>
        <pt x="152" y="464" on="1"/>
        <pt x="152" y="462" on="1"/>
        <pt x="163" y="456" on="0"/>
        <pt x="183" y="432" on="0"/>
        <pt x="183" y="410" on="1"/>
        <pt x="183" y="383" on="0"/>
        <pt x="152" y="352" on="0"/>
        <pt x="125" y="352" on="1"/>
        <pt x="99" y="352" on="0"/>
        <pt x="67" y="384" on="0"/>
        <pt x="67" y="413" on="1"/>
        <pt x="67" y="435" on="0"/>
        <pt x="93" y="477" on="0"/>
        <pt x="143" y="510" on="0"/>
        <pt x="216" y="530" on="0"/>
        <pt x="263" y="530" on="1"/>
        <pt x="351" y="530" on="0"/>
        <pt x="443" y="444" on="0"/>
        <pt x="443" y="366" on="1"/>
        <pt x="443" y="47" on="1"/>
        <pt x="515" y="47" on="1"/>
        <pt x="515" y="8" on="1"/>
        <pt x="502" y="0" on="0"/>
        <pt x="462" y="-12" on="0"/>
        <pt x="438" y="-12" on="1"/>
        <pt x="395" y="-12" on="0"/>
        <pt x="352" y="33" on="0"/>
        <pt x="352" y="71" on="1"/>
        <pt x="352" y="77" on="1"/>
        <pt x="348" y="77" on="1"/>
        <pt x="341" y="60" on="0"/>
        <pt x="318" y="28" on="0"/>
        <pt x="283" y="3" on="0"/>
        <pt x="233" y="-12" on="0"/>
      </contour>
      <contour>
        <pt x="238" y="50" on="1"/>
        <pt x="284" y="50" on="0"/>
        <pt x="347" y="96" on="0"/>
        <pt x="347" y="145" on="1"/>
        <pt x="347" y="239" on="1"/>
        <pt x="284" y="239" on="1"/>
        <pt x="206" y="239" on="0"/>
        <pt x="146" y="190" on="0"/>
        <pt x="146" y="145" on="1"/>
        <pt x="146" y="125" on="1"/>
        <pt x="146" y="87" on="0"/>
        <pt x="195" y="50" on="0"/>
      </contour>
    </TTGlyph>
    <TTGlyph name="a.alt01" xMin="48" yMin="-12" xMax="580" yMax="530">
      <contour>
        <pt x="259" y="-12" on="1"/>
        <pt x="211" y="-12" on="0"/>
        <pt x="133" y="24" on="0"/>
        <pt x="78" y="93" on="0"/>
        <pt x="48" y="194" on="0"/>
        <pt x="48" y="259" on="1"/>
        <pt x="48" y="324" on="0"/>
        <pt x="78" y="425" on="0"/>
        <pt x="133" y="494" on="0"/>
        <pt x="211" y="530" on="0"/>
        <pt x="259" y="530" on="1"/>
        <pt x="320" y="530" on="0"/>
        <pt x="396" y="476" on="0"/>
        <pt x="412" y="439" on="1"/>
        <pt x="416" y="439" on="1"/>
        <pt x="468" y="518" on="1"/>
        <pt x="508" y="518" on="1"/>
        <pt x="508" y="47" on="1"/>
        <pt x="580" y="47" on="1"/>
        <pt x="580" y="8" on="1"/>
        <pt x="567" y="0" on="0"/>
        <pt x="526" y="-12" on="0"/>
        <pt x="502" y="-12" on="1"/>
        <pt x="458" y="-12" on="0"/>
        <pt x="415" y="33" on="0"/>
        <pt x="415" y="70" on="1"/>
        <pt x="415" y="79" on="1"/>
        <pt x="409" y="79" on="1"/>
        <pt x="393" y="42" on="0"/>
        <pt x="319" y="-12" on="0"/>
      </contour>
      <contour>
        <pt x="288" y="52" on="1"/>
        <pt x="311" y="52" on="0"/>
        <pt x="356" y="66" on="0"/>
        <pt x="391" y="92" on="0"/>
        <pt x="412" y="129" on="0"/>
        <pt x="412" y="153" on="1"/>
        <pt x="412" y="365" on="1"/>
        <pt x="412" y="389" on="0"/>
        <pt x="391" y="426" on="0"/>
        <pt x="356" y="452" on="0"/>
        <pt x="311" y="466" on="0"/>
        <pt x="288" y="466" on="1"/>
        <pt x="224" y="466" on="0"/>
        <pt x="151" y="380" on="0"/>
        <pt x="151" y="306" on="1"/>
        <pt x="151" y="212" on="1"/>
        <pt x="151" y="138" on="0"/>
        <pt x="224" y="52" on="0"/>
      </contour>
    </TTGlyph>
    <TTGlyph name="aacute" xMin="43" yMin="-12" xMax="515" yMax="783">
      <component glyphName="a" x="0" y="0" flags="0x204"/>
      <component glyphName="acute" x="-37" y="0" flags="0x4"/>
    </TTGlyph>
    <TTGlyph name="aacute.alt01" xMin="48" yMin="-12" xMax="580" yMax="783">
      <component glyphName="a.alt01" x="0" y="0" flags="0x204"/>
      <component glyphName="acute" x="-26" y="0" flags="0x4"/>
    </TTGlyph>
    <TTGlyph name="abreve" xMin="43" yMin="-12" xMax="515" yMax="754">
      <component glyphName="a" x="0" y="0" flags="0x204"/>
      <component glyphName="breve" x="-37" y="0" flags="0x4"/>
    </TTGlyph>
    <TTGlyph name="abreve.alt01" xMin="48" yMin="-12" xMax="580" yMax="754">
      <component glyphName="a.alt01" x="0" y="0" flags="0x204"/>
      <component glyphName="breve" x="-26" y="0" flags="0x4"/>
    </TTGlyph>
    <TTGlyph name="abreveacute" xMin="43" yMin="-12" xMax="515" yMax="902">
      <component glyphName="a" x="0" y="0" flags="0x204"/>
      <component glyphName="breveacute" x="263" y="0" flags="0x4"/>
    </TTGlyph>
    <TTGlyph name="abreveacute.alt01" xMin="48" yMin="-12" xMax="580" yMax="902">
      <component glyphName="a.alt01" x="0" y="0" flags="0x204"/>
      <component glyphName="breveacute" x="274" y="0" flags="0x4"/>
    </TTGlyph>
    <TTGlyph name="abrevedotbelow" xMin="43" yMin="-170" xMax="515" yMax="754">
      <component glyphName="a" x="0" y="0" flags="0x204"/>
      <component glyphName="breve" x="-37" y="0" flags="0x4"/>
      <component glyphName="dotbelowcomb" x="243" y="0" flags="0x4"/>
    </TTGlyph>
    <TTGlyph name="abrevedotbelow.alt01" xMin="48" yMin="-170" xMax="580" yMax="754">
      <component glyphName="a.alt01" x="0" y="0" flags="0x204"/>
      <component glyphName="breve" x="-26" y="0" flags="0x4"/>
      <component glyphName="dotbelowcomb" x="280" y="0" flags="0x4"/>
    </TTGlyph>
    <TTGlyph name="abrevegrave" xMin="43" yMin="-12" xMax="515" yMax="902">
      <component glyphName="a" x="0" y="0" flags="0x204"/>
      <component glyphName="brevegrave" x="263" y="0" flags="0x4"/>
    </TTGlyph>
    <TTGlyph name="abrevegrave.alt01" xMin="48" yMin="-12" xMax="580" yMax="902">
      <component glyphName="a.alt01" x="0" y="0" flags="0x204"/>
      <component glyphName="brevegrave" x="274" y="0" flags="0x4"/>
    </TTGlyph>
    <TTGlyph name="abrevehook" xMin="43" yMin="-12" xMax="515" yMax="891">
      <component glyphName="a" x="0" y="0" flags="0x204"/>
      <component glyphName="brevehook" x="263" y="0" flags="0x4"/>
    </TTGlyph>
    <TTGlyph name="abrevehook.alt01" xMin="48" yMin="-12" xMax="580" yMax="891">
      <component glyphName="a.alt01" x="0" y="0" flags="0x204"/>
      <component glyphName="brevehook" x="274" y="0" flags="0x4"/>
    </TTGlyph>
    <TTGlyph name="abrevetilde" xMin="43" yMin="-12" xMax="515" yMax="889">
      <component glyphName="a" x="0" y="0" flags="0x204"/>
      <component glyphName="brevetilde" x="263" y="0" flags="0x4"/>
    </TTGlyph>
    <TTGlyph name="abrevetilde.alt01" xMin="48" yMin="-12" xMax="580" yMax="889">
      <component glyphName="a.alt01" x="0" y="0" flags="0x204"/>
      <component glyphName="brevetilde" x="274" y="0" flags="0x4"/>
    </TTGlyph>
    <TTGlyph name="acircumflex" xMin="43" yMin="-12" xMax="515" yMax="769">
      <component glyphName="a" x="0" y="0" flags="0x204"/>
      <component glyphName="circumflex" x="-37" y="0" flags="0x4"/>
    </TTGlyph>
    <TTGlyph name="acircumflex.alt01" xMin="48" yMin="-12" xMax="580" yMax="769">
      <component glyphName="a.alt01" x="0" y="0" flags="0x204"/>
      <component glyphName="circumflex" x="-26" y="0" flags="0x4"/>
    </TTGlyph>
    <TTGlyph name="acircumflexacute" xMin="43" yMin="-12" xMax="523" yMax="902">
      <component glyphName="a" x="0" y="0" flags="0x204"/>
      <component glyphName="circumflexacute" x="263" y="0" flags="0x4"/>
    </TTGlyph>
    <TTGlyph name="acircumflexacute.alt01" xMin="48" yMin="-12" xMax="580" yMax="902">
      <component glyphName="a.alt01" x="0" y="0" flags="0x204"/>
      <component glyphName="circumflexacute" x="274" y="0" flags="0x4"/>
    </TTGlyph>
    <TTGlyph name="acircumflexdotbelow" xMin="43" yMin="-170" xMax="515" yMax="769">
      <component glyphName="a" x="0" y="0" flags="0x204"/>
      <component glyphName="circumflex" x="-37" y="0" flags="0x4"/>
      <component glyphName="dotbelowcomb" x="243" y="0" flags="0x4"/>
    </TTGlyph>
    <TTGlyph name="acircumflexdotbelow.alt01" xMin="48" yMin="-170" xMax="580" yMax="769">
      <component glyphName="a.alt01" x="0" y="0" flags="0x204"/>
      <component glyphName="circumflex" x="-26" y="0" flags="0x4"/>
      <component glyphName="dotbelowcomb" x="280" y="0" flags="0x4"/>
    </TTGlyph>
    <TTGlyph name="acircumflexgrave" xMin="3" yMin="-12" xMax="515" yMax="902">
      <component glyphName="a" x="0" y="0" flags="0x204"/>
      <component glyphName="circumflexgrave" x="263" y="0" flags="0x4"/>
    </TTGlyph>
    <TTGlyph name="acircumflexgrave.alt01" xMin="14" yMin="-12" xMax="580" yMax="902">
      <component glyphName="a.alt01" x="0" y="0" flags="0x204"/>
      <component glyphName="circumflexgrave" x="274" y="0" flags="0x4"/>
    </TTGlyph>
    <TTGlyph name="acircumflexhook" xMin="43" yMin="-12" xMax="515" yMax="891">
      <component glyphName="a" x="0" y="0" flags="0x204"/>
      <component glyphName="circumflexhook" x="263" y="0" flags="0x4"/>
    </TTGlyph>
    <TTGlyph name="acircumflexhook.alt01" xMin="48" yMin="-12" xMax="580" yMax="891">
      <component glyphName="a.alt01" x="0" y="0" flags="0x204"/>
      <component glyphName="circumflexhook" x="274" y="0" flags="0x4"/>
    </TTGlyph>
    <TTGlyph name="acircumflextilde" xMin="43" yMin="-12" xMax="515" yMax="890">
      <component glyphName="a" x="0" y="0" flags="0x204"/>
      <component glyphName="circumflextilde" x="263" y="0" flags="0x4"/>
    </TTGlyph>
    <TTGlyph name="acircumflextilde.alt01" xMin="48" yMin="-12" xMax="580" yMax="890">
      <component glyphName="a.alt01" x="0" y="0" flags="0x204"/>
      <component glyphName="circumflextilde" x="274" y="0" flags="0x4"/>
    </TTGlyph>
    <TTGlyph name="acute" xMin="263" yMin="584" xMax="426" yMax="783">
      <contour>
        <pt x="263" y="600" on="1"/>
        <pt x="338" y="783" on="1"/>
        <pt x="426" y="740" on="1"/>
        <pt x="294" y="584" on="1"/>
      </contour>
    </TTGlyph>
    <TTGlyph name="acute.case" xMin="263" yMin="758" xMax="426" yMax="957">
      <contour>
        <pt x="263" y="774" on="1"/>
        <pt x="338" y="957" on="1"/>
        <pt x="426" y="914" on="1"/>
        <pt x="294" y="758" on="1"/>
      </contour>
    </TTGlyph>
    <TTGlyph name="acutecomb" xMin="-37" yMin="584" xMax="126" yMax="783">
      <component glyphName="acute" x="-300" y="0" flags="0x4"/>
    </TTGlyph>
    <TTGlyph name="adieresis" xMin="43" yMin="-12" xMax="515" yMax="725">
      <component glyphName="a" x="0" y="0" flags="0x204"/>
      <component glyphName="dieresis" x="-37" y="0" flags="0x4"/>
    </TTGlyph>
    <TTGlyph name="adieresis.alt01" xMin="48" yMin="-12" xMax="580" yMax="725">
      <component glyphName="a.alt01" x="0" y="0" flags="0x204"/>
      <component glyphName="dieresis" x="-26" y="0" flags="0x4"/>
    </TTGlyph>
    <TTGlyph name="adotbelow" xMin="43" yMin="-170" xMax="515" yMax="530">
      <component glyphName="a" x="0" y="0" flags="0x204"/>
      <component glyphName="dotbelowcomb" x="243" y="0" flags="0x4"/>
    </TTGlyph>
    <TTGlyph name="adotbelow.alt01" xMin="48" yMin="-170" xMax="580" yMax="530">
      <component glyphName="a.alt01" x="0" y="0" flags="0x204"/>
      <component glyphName="dotbelowcomb" x="280" y="0" flags="0x4"/>
    </TTGlyph>
    <TTGlyph name="ae" xMin="43" yMin="-12" xMax="783" yMax="530">
      <contour>
        <pt x="200" y="-12" on="1"/>
        <pt x="124" y="-12" on="0"/>
        <pt x="43" y="68" on="0"/>
        <pt x="43" y="134" on="1"/>
        <pt x="43" y="214" on="0"/>
        <pt x="149" y="291" on="0"/>
        <pt x="274" y="291" on="1"/>
        <pt x="347" y="291" on="1"/>
        <pt x="347" y="355" on="1"/>
        <pt x="347" y="416" on="0"/>
        <pt x="290" y="480" on="0"/>
        <pt x="232" y="480" on="1"/>
        <pt x="207" y="480" on="0"/>
        <pt x="166" y="472" on="0"/>
        <pt x="152" y="464" on="1"/>
        <pt x="152" y="462" on="1"/>
        <pt x="163" y="456" on="0"/>
        <pt x="183" y="432" on="0"/>
        <pt x="183" y="410" on="1"/>
        <pt x="183" y="383" on="0"/>
        <pt x="152" y="352" on="0"/>
        <pt x="125" y="352" on="1"/>
        <pt x="99" y="352" on="0"/>
        <pt x="67" y="384" on="0"/>
        <pt x="67" y="413" on="1"/>
        <pt x="67" y="435" on="0"/>
        <pt x="93" y="477" on="0"/>
        <pt x="143" y="510" on="0"/>
        <pt x="215" y="530" on="0"/>
        <pt x="262" y="530" on="1"/>
        <pt x="293" y="530" on="0"/>
        <pt x="343" y="513" on="0"/>
        <pt x="379" y="485" on="0"/>
        <pt x="401" y="448" on="0"/>
        <pt x="405" y="428" on="1"/>
        <pt x="411" y="428" on="1"/>
        <pt x="425" y="472" on="0"/>
        <pt x="510" y="530" on="0"/>
        <pt x="570" y="530" on="1"/>
        <pt x="622" y="530" on="0"/>
        <pt x="701" y="492" on="0"/>
        <pt x="755" y="425" on="0"/>
        <pt x="783" y="334" on="0"/>
        <pt x="783" y="280" on="1"/>
        <pt x="783" y="250" on="1"/>
        <pt x="443" y="250" on="1"/>
        <pt x="443" y="232" on="1"/>
        <pt x="443" y="151" on="0"/>
        <pt x="525" y="58" on="0"/>
        <pt x="594" y="58" on="1"/>
        <pt x="624" y="58" on="0"/>
        <pt x="668" y="69" on="0"/>
        <pt x="701" y="91" on="0"/>
        <pt x="724" y="122" on="0"/>
        <pt x="734" y="142" on="1"/>
        <pt x="771" y="118" on="1"/>
        <pt x="762" y="92" on="0"/>
        <pt x="731" y="45" on="0"/>
        <pt x="684" y="9" on="0"/>
        <pt x="620" y="-12" on="0"/>
        <pt x="578" y="-12" on="1"/>
        <pt x="542" y="-12" on="0"/>
        <pt x="481" y="6" on="0"/>
        <pt x="434" y="38" on="0"/>
        <pt x="401" y="78" on="0"/>
        <pt x="393" y="101" on="1"/>
        <pt x="387" y="101" on="1"/>
        <pt x="369" y="44" on="0"/>
        <pt x="273" y="-12" on="0"/>
      </contour>
      <contour>
        <pt x="238" y="50" on="1"/>
        <pt x="284" y="50" on="0"/>
        <pt x="347" y="96" on="0"/>
        <pt x="347" y="145" on="1"/>
        <pt x="347" y="248" on="1"/>
        <pt x="284" y="248" on="1"/>
        <pt x="206" y="248" on="0"/>
        <pt x="146" y="198" on="0"/>
        <pt x="146" y="153" on="1"/>
        <pt x="146" y="125" on="1"/>
        <pt x="146" y="87" on="0"/>
        <pt x="195" y="50" on="0"/>
      </contour>
      <contour>
        <pt x="443" y="299" on="1"/>
        <pt x="684" y="299" on="1"/>
        <pt x="684" y="315" on="1"/>
        <pt x="684" y="350" on="0"/>
        <pt x="671" y="410" on="0"/>
        <pt x="644" y="453" on="0"/>
        <pt x="600" y="478" on="0"/>
        <pt x="569" y="478" on="1"/>
        <pt x="506" y="478" on="0"/>
        <pt x="443" y="391" on="0"/>
        <pt x="443" y="321" on="1"/>
      </contour>
    </TTGlyph>
    <TTGlyph name="aeacute" xMin="43" yMin="-12" xMax="783" yMax="783">
      <component glyphName="ae" x="0" y="0" flags="0x204"/>
      <component glyphName="acute" x="108" y="0" flags="0x4"/>
    </TTGlyph>
    <TTGlyph name="agrave" xMin="43" yMin="-12" xMax="515" yMax="783">
      <component glyphName="a" x="0" y="0" flags="0x204"/>
      <component glyphName="grave" x="-37" y="0" flags="0x4"/>
    </TTGlyph>
    <TTGlyph name="agrave.alt01" xMin="48" yMin="-12" xMax="580" yMax="783">
      <component glyphName="a.alt01" x="0" y="0" flags="0x204"/>
      <component glyphName="grave" x="-26" y="0" flags="0x4"/>
    </TTGlyph>
    <TTGlyph name="ahook" xMin="43" yMin="-12" xMax="515" yMax="769">
      <component glyphName="a" x="0" y="0" flags="0x204"/>
      <component glyphName="hookcomb" x="263" y="0" flags="0x4"/>
    </TTGlyph>
    <TTGlyph name="ahook.alt01" xMin="48" yMin="-12" xMax="580" yMax="769">
      <component glyphName="a.alt01" x="0" y="0" flags="0x204"/>
      <component glyphName="hookcomb" x="274" y="0" flags="0x4"/>
    </TTGlyph>
    <TTGlyph name="amacron" xMin="43" yMin="-12" xMax="515" yMax="703">
      <component glyphName="a" x="0" y="0" flags="0x204"/>
      <component glyphName="macron" x="-37" y="0" flags="0x4"/>
    </TTGlyph>
    <TTGlyph name="amacron.alt01" xMin="48" yMin="-12" xMax="580" yMax="703">
      <component glyphName="a.alt01" x="0" y="0" flags="0x204"/>
      <component glyphName="macron" x="-26" y="0" flags="0x4"/>
    </TTGlyph>
    <TTGlyph name="ampersand" xMin="49" yMin="-12" xMax="684" yMax="710">
      <contour>
        <pt x="293" y="-12" on="1"/>
        <pt x="238" y="-12" on="0"/>
        <pt x="148" y="14" on="0"/>
        <pt x="84" y="63" on="0"/>
        <pt x="49" y="133" on="0"/>
        <pt x="49" y="177" on="1"/>
        <pt x="49" y="213" on="0"/>
        <pt x="71" y="270" on="0"/>
        <pt x="111" y="317" on="0"/>
        <pt x="167" y="356" on="0"/>
        <pt x="201" y="374" on="1"/>
        <pt x="186" y="391" on="1"/>
        <pt x="155" y="425" on="0"/>
        <pt x="116" y="504" on="0"/>
        <pt x="116" y="551" on="1"/>
        <pt x="116" y="587" on="0"/>
        <pt x="143" y="646" on="0"/>
        <pt x="194" y="688" on="0"/>
        <pt x="264" y="710" on="0"/>
        <pt x="308" y="710" on="1"/>
        <pt x="391" y="710" on="0"/>
        <pt x="490" y="634" on="0"/>
        <pt x="490" y="571" on="1"/>
        <pt x="490" y="540" on="0"/>
        <pt x="461" y="485" on="0"/>
        <pt x="413" y="438" on="0"/>
        <pt x="349" y="398" on="0"/>
        <pt x="313" y="381" on="1"/>
        <pt x="503" y="171" on="1"/>
        <pt x="520" y="204" on="0"/>
        <pt x="539" y="287" on="0"/>
        <pt x="542" y="332" on="1"/>
        <pt x="470" y="332" on="1"/>
        <pt x="470" y="382" on="1"/>
        <pt x="675" y="382" on="1"/>
        <pt x="675" y="332" on="1"/>
        <pt x="597" y="332" on="1"/>
        <pt x="592" y="275" on="0"/>
        <pt x="562" y="173" on="0"/>
        <pt x="538" y="132" on="1"/>
        <pt x="572" y="93" on="1"/>
        <pt x="594" y="70" on="0"/>
        <pt x="642" y="50" on="0"/>
        <pt x="684" y="50" on="1"/>
        <pt x="684" y="0" on="1"/>
        <pt x="606" y="0" on="1"/>
        <pt x="568" y="0" on="0"/>
        <pt x="515" y="23" on="0"/>
        <pt x="492" y="49" on="1"/>
        <pt x="481" y="62" on="1"/>
        <pt x="444" y="27" on="0"/>
        <pt x="350" y="-12" on="0"/>
      </contour>
      <contour>
        <pt x="284" y="414" on="1"/>
        <pt x="343" y="445" on="0"/>
        <pt x="401" y="512" on="0"/>
        <pt x="401" y="554" on="1"/>
        <pt x="401" y="568" on="1"/>
        <pt x="401" y="607" on="0"/>
        <pt x="350" y="659" on="0"/>
        <pt x="305" y="659" on="1"/>
        <pt x="258" y="659" on="0"/>
        <pt x="209" y="602" on="0"/>
        <pt x="209" y="560" on="1"/>
        <pt x="209" y="549" on="1"/>
        <pt x="209" y="514" on="0"/>
        <pt x="251" y="452" on="0"/>
        <pt x="279" y="420" on="1"/>
      </contour>
      <contour>
        <pt x="308" y="45" on="1"/>
        <pt x="352" y="45" on="0"/>
        <pt x="423" y="72" on="0"/>
        <pt x="449" y="98" on="1"/>
        <pt x="232" y="340" on="1"/>
        <pt x="186" y="310" on="0"/>
        <pt x="154" y="238" on="0"/>
        <pt x="154" y="193" on="1"/>
        <pt x="154" y="174" on="1"/>
        <pt x="154" y="114" on="0"/>
        <pt x="239" y="45" on="0"/>
      </contour>
    </TTGlyph>
    <TTGlyph name="aogonek" xMin="43" yMin="-206" xMax="527" yMax="530">
      <contour>
        <pt x="437" y="-206" on="1"/>
        <pt x="396" y="-206" on="0"/>
        <pt x="340" y="-170" on="0"/>
        <pt x="340" y="-130" on="1"/>
        <pt x="340" y="-95" on="0"/>
        <pt x="390" y="-43" on="0"/>
        <pt x="444" y="-14" on="1"/>
        <pt x="444" y="-10" on="1"/>
        <pt x="438" y="-10" on="1"/>
        <pt x="395" y="-10" on="0"/>
        <pt x="352" y="34" on="0"/>
        <pt x="352" y="71" on="1"/>
        <pt x="352" y="77" on="1"/>
        <pt x="348" y="77" on="1"/>
        <pt x="341" y="60" on="0"/>
        <pt x="318" y="28" on="0"/>
        <pt x="283" y="3" on="0"/>
        <pt x="233" y="-12" on="0"/>
        <pt x="199" y="-12" on="1"/>
        <pt x="124" y="-12" on="0"/>
        <pt x="43" y="64" on="0"/>
        <pt x="43" y="130" on="1"/>
        <pt x="43" y="204" on="0"/>
        <pt x="149" y="282" on="0"/>
        <pt x="274" y="282" on="1"/>
        <pt x="347" y="282" on="1"/>
        <pt x="347" y="355" on="1"/>
        <pt x="347" y="416" on="0"/>
        <pt x="290" y="480" on="0"/>
        <pt x="232" y="480" on="1"/>
        <pt x="207" y="480" on="0"/>
        <pt x="166" y="472" on="0"/>
        <pt x="152" y="464" on="1"/>
        <pt x="152" y="462" on="1"/>
        <pt x="163" y="456" on="0"/>
        <pt x="183" y="432" on="0"/>
        <pt x="183" y="410" on="1"/>
        <pt x="183" y="383" on="0"/>
        <pt x="152" y="352" on="0"/>
        <pt x="125" y="352" on="1"/>
        <pt x="99" y="352" on="0"/>
        <pt x="67" y="384" on="0"/>
        <pt x="67" y="413" on="1"/>
        <pt x="67" y="435" on="0"/>
        <pt x="93" y="477" on="0"/>
        <pt x="143" y="510" on="0"/>
        <pt x="216" y="530" on="0"/>
        <pt x="263" y="530" on="1"/>
        <pt x="351" y="530" on="0"/>
        <pt x="443" y="444" on="0"/>
        <pt x="443" y="366" on="1"/>
        <pt x="443" y="47" on="1"/>
        <pt x="515" y="47" on="1"/>
        <pt x="515" y="8" on="1"/>
        <pt x="498" y="-2" on="1"/>
        <pt x="449" y="-31" on="0"/>
        <pt x="414" y="-96" on="0"/>
        <pt x="414" y="-119" on="1"/>
        <pt x="414" y="-139" on="0"/>
        <pt x="439" y="-165" on="0"/>
        <pt x="460" y="-165" on="1"/>
        <pt x="474" y="-165" on="0"/>
        <pt x="496" y="-152" on="0"/>
        <pt x="503" y="-143" on="1"/>
        <pt x="527" y="-166" on="1"/>
        <pt x="516" y="-183" on="0"/>
        <pt x="472" y="-206" on="0"/>
      </contour>
      <contour>
        <pt x="238" y="50" on="1"/>
        <pt x="284" y="50" on="0"/>
        <pt x="347" y="96" on="0"/>
        <pt x="347" y="145" on="1"/>
        <pt x="347" y="239" on="1"/>
        <pt x="284" y="239" on="1"/>
        <pt x="206" y="239" on="0"/>
        <pt x="146" y="190" on="0"/>
        <pt x="146" y="145" on="1"/>
        <pt x="146" y="125" on="1"/>
        <pt x="146" y="87" on="0"/>
        <pt x="195" y="50" on="0"/>
      </contour>
    </TTGlyph>
    <TTGlyph name="aogonek.alt01" xMin="48" yMin="-206" xMax="592" yMax="530">
      <contour>
        <pt x="502" y="-206" on="1"/>
        <pt x="461" y="-206" on="0"/>
        <pt x="405" y="-170" on="0"/>
        <pt x="405" y="-130" on="1"/>
        <pt x="405" y="-95" on="0"/>
        <pt x="455" y="-43" on="0"/>
        <pt x="509" y="-14" on="1"/>
        <pt x="509" y="-10" on="1"/>
        <pt x="502" y="-10" on="1"/>
        <pt x="458" y="-10" on="0"/>
        <pt x="415" y="34" on="0"/>
        <pt x="415" y="70" on="1"/>
        <pt x="415" y="79" on="1"/>
        <pt x="409" y="79" on="1"/>
        <pt x="393" y="42" on="0"/>
        <pt x="319" y="-12" on="0"/>
        <pt x="259" y="-12" on="1"/>
        <pt x="211" y="-12" on="0"/>
        <pt x="133" y="24" on="0"/>
        <pt x="78" y="93" on="0"/>
        <pt x="48" y="194" on="0"/>
        <pt x="48" y="259" on="1"/>
        <pt x="48" y="324" on="0"/>
        <pt x="78" y="425" on="0"/>
        <pt x="133" y="494" on="0"/>
        <pt x="211" y="530" on="0"/>
        <pt x="259" y="530" on="1"/>
        <pt x="320" y="530" on="0"/>
        <pt x="396" y="476" on="0"/>
        <pt x="412" y="439" on="1"/>
        <pt x="416" y="439" on="1"/>
        <pt x="468" y="518" on="1"/>
        <pt x="508" y="518" on="1"/>
        <pt x="508" y="47" on="1"/>
        <pt x="580" y="47" on="1"/>
        <pt x="580" y="8" on="1"/>
        <pt x="579" y="7" on="0"/>
        <pt x="574" y="4" on="0"/>
        <pt x="563" y="-2" on="1"/>
        <pt x="514" y="-31" on="0"/>
        <pt x="479" y="-96" on="0"/>
        <pt x="479" y="-119" on="1"/>
        <pt x="479" y="-139" on="0"/>
        <pt x="504" y="-165" on="0"/>
        <pt x="525" y="-165" on="1"/>
        <pt x="539" y="-165" on="0"/>
        <pt x="561" y="-152" on="0"/>
        <pt x="568" y="-143" on="1"/>
        <pt x="592" y="-166" on="1"/>
        <pt x="581" y="-183" on="0"/>
        <pt x="537" y="-206" on="0"/>
      </contour>
      <contour>
        <pt x="288" y="52" on="1"/>
        <pt x="311" y="52" on="0"/>
        <pt x="356" y="66" on="0"/>
        <pt x="391" y="92" on="0"/>
        <pt x="412" y="129" on="0"/>
        <pt x="412" y="153" on="1"/>
        <pt x="412" y="365" on="1"/>
        <pt x="412" y="389" on="0"/>
        <pt x="391" y="426" on="0"/>
        <pt x="356" y="452" on="0"/>
        <pt x="311" y="466" on="0"/>
        <pt x="288" y="466" on="1"/>
        <pt x="224" y="466" on="0"/>
        <pt x="151" y="380" on="0"/>
        <pt x="151" y="306" on="1"/>
        <pt x="151" y="212" on="1"/>
        <pt x="151" y="138" on="0"/>
        <pt x="224" y="52" on="0"/>
      </contour>
    </TTGlyph>
    <TTGlyph name="approxequal" xMin="63" yMin="139" xMax="537" yMax="475">
      <component glyphName="asciitilde" x="0" y="101" flags="0x204"/>
      <component glyphName="asciitilde" x="0" y="-101" flags="0x4"/>
    </TTGlyph>
    <TTGlyph name="aring" xMin="43" yMin="-12" xMax="515" yMax="810">
      <component glyphName="a" x="0" y="0" flags="0x204"/>
      <component glyphName="ring" x="-37" y="0" flags="0x4"/>
    </TTGlyph>
    <TTGlyph name="aring.alt01" xMin="48" yMin="-12" xMax="580" yMax="810">
      <component glyphName="a.alt01" x="0" y="0" flags="0x204"/>
      <component glyphName="ring" x="-26" y="0" flags="0x4"/>
    </TTGlyph>
    <TTGlyph name="aringacute" xMin="43" yMin="-12" xMax="515" yMax="959">
      <component glyphName="a" x="0" y="0" flags="0x204"/>
      <component glyphName="ringacute" x="-37" y="0" flags="0x4"/>
    </TTGlyph>
    <TTGlyph name="aringacute.alt01" xMin="48" yMin="-12" xMax="580" yMax="959">
      <component glyphName="a.alt01" x="0" y="0" flags="0x204"/>
      <component glyphName="ringacute" x="-26" y="0" flags="0x4"/>
    </TTGlyph>
    <TTGlyph name="arrowdown" xMin="219" yMin="-12" xMax="641" yMax="698">
      <contour>
        <pt x="219" y="199" on="1"/>
        <pt x="244" y="230" on="1"/>
        <pt x="410" y="114" on="1"/>
        <pt x="390" y="465" on="1"/>
        <pt x="390" y="698" on="1"/>
        <pt x="470" y="698" on="1"/>
        <pt x="470" y="465" on="1"/>
        <pt x="450" y="114" on="1"/>
        <pt x="616" y="230" on="1"/>
        <pt x="641" y="199" on="1"/>
        <pt x="430" y="-12" on="1"/>
      </contour>
    </TTGlyph>
    <TTGlyph name="arrowdownclockhalf" xMin="33" yMin="45" xMax="828" yMax="664">
      <contour>
        <pt x="406" y="256" on="1"/>
        <pt x="431" y="287" on="1"/>
        <pt x="597" y="171" on="1"/>
        <pt x="584" y="340" on="1"/>
        <pt x="579" y="401" on="0"/>
        <pt x="542" y="493" on="0"/>
        <pt x="480" y="555" on="0"/>
        <pt x="399" y="587" on="0"/>
        <pt x="351" y="587" on="1"/>
        <pt x="291" y="587" on="0"/>
        <pt x="202" y="544" on="0"/>
        <pt x="143" y="471" on="0"/>
        <pt x="115" y="376" on="0"/>
        <pt x="115" y="324" on="1"/>
        <pt x="33" y="324" on="1"/>
        <pt x="33" y="394" on="0"/>
        <pt x="75" y="517" on="0"/>
        <pt x="156" y="610" on="0"/>
        <pt x="274" y="664" on="0"/>
        <pt x="350" y="664" on="1"/>
        <pt x="425" y="664" on="0"/>
        <pt x="540" y="611" on="0"/>
        <pt x="617" y="528" on="0"/>
        <pt x="656" y="425" on="0"/>
        <pt x="656" y="374" on="1"/>
        <pt x="656" y="339" on="0"/>
        <pt x="644" y="234" on="0"/>
        <pt x="637" y="171" on="1"/>
        <pt x="803" y="287" on="1"/>
        <pt x="828" y="256" on="1"/>
        <pt x="617" y="45" on="1"/>
      </contour>
    </TTGlyph>
    <TTGlyph name="arrowdowncounterclockhalf" xMin="32" yMin="45" xMax="827" yMax="664">
      <contour>
        <pt x="32" y="256" on="1"/>
        <pt x="57" y="287" on="1"/>
        <pt x="223" y="171" on="1"/>
        <pt x="216" y="234" on="0"/>
        <pt x="204" y="339" on="0"/>
        <pt x="204" y="374" on="1"/>
        <pt x="204" y="425" on="0"/>
        <pt x="243" y="528" on="0"/>
        <pt x="320" y="611" on="0"/>
        <pt x="435" y="664" on="0"/>
        <pt x="510" y="664" on="1"/>
        <pt x="586" y="664" on="0"/>
        <pt x="704" y="610" on="0"/>
        <pt x="785" y="517" on="0"/>
        <pt x="827" y="394" on="0"/>
        <pt x="827" y="324" on="1"/>
        <pt x="745" y="324" on="1"/>
        <pt x="745" y="376" on="0"/>
        <pt x="717" y="471" on="0"/>
        <pt x="658" y="544" on="0"/>
        <pt x="569" y="587" on="0"/>
        <pt x="509" y="587" on="1"/>
        <pt x="461" y="587" on="0"/>
        <pt x="380" y="555" on="0"/>
        <pt x="318" y="493" on="0"/>
        <pt x="280" y="401" on="0"/>
        <pt x="276" y="340" on="1"/>
        <pt x="263" y="171" on="1"/>
        <pt x="429" y="287" on="1"/>
        <pt x="454" y="256" on="1"/>
        <pt x="243" y="45" on="1"/>
      </contour>
    </TTGlyph>
    <TTGlyph name="arrowdownleft" xMin="187" yMin="98" xMax="718" yMax="628">
      <contour>
        <pt x="187" y="396" on="1"/>
        <pt x="227" y="400" on="1"/>
        <pt x="262" y="201" on="1"/>
        <pt x="496" y="463" on="1"/>
        <pt x="661" y="628" on="1"/>
        <pt x="718" y="572" on="1"/>
        <pt x="553" y="407" on="1"/>
        <pt x="290" y="173" on="1"/>
        <pt x="490" y="137" on="1"/>
        <pt x="486" y="98" on="1"/>
        <pt x="187" y="98" on="1"/>
      </contour>
    </TTGlyph>
    <TTGlyph name="arrowdownleftcorner" xMin="156" yMin="-12" xMax="660" yMax="698">
      <contour>
        <pt x="156" y="199" on="1"/>
        <pt x="367" y="410" on="1"/>
        <pt x="398" y="385" on="1"/>
        <pt x="282" y="219" on="1"/>
        <pt x="580" y="235" on="1"/>
        <pt x="580" y="698" on="1"/>
        <pt x="660" y="698" on="1"/>
        <pt x="660" y="160" on="1"/>
        <pt x="580" y="160" on="1"/>
        <pt x="282" y="179" on="1"/>
        <pt x="398" y="13" on="1"/>
        <pt x="367" y="-12" on="1"/>
      </contour>
    </TTGlyph>
    <TTGlyph name="arrowdownright" xMin="142" yMin="98" xMax="673" yMax="628">
      <contour>
        <pt x="370" y="137" on="1"/>
        <pt x="570" y="173" on="1"/>
        <pt x="307" y="407" on="1"/>
        <pt x="142" y="572" on="1"/>
        <pt x="199" y="628" on="1"/>
        <pt x="364" y="463" on="1"/>
        <pt x="598" y="201" on="1"/>
        <pt x="633" y="400" on="1"/>
        <pt x="673" y="396" on="1"/>
        <pt x="673" y="98" on="1"/>
        <pt x="374" y="98" on="1"/>
      </contour>
    </TTGlyph>
    <TTGlyph name="arrowdownrightcorner" xMin="200" yMin="-12" xMax="704" yMax="698">
      <contour>
        <pt x="462" y="13" on="1"/>
        <pt x="578" y="179" on="1"/>
        <pt x="280" y="160" on="1"/>
        <pt x="200" y="160" on="1"/>
        <pt x="200" y="698" on="1"/>
        <pt x="280" y="698" on="1"/>
        <pt x="280" y="235" on="1"/>
        <pt x="578" y="219" on="1"/>
        <pt x="462" y="385" on="1"/>
        <pt x="493" y="410" on="1"/>
        <pt x="704" y="199" on="1"/>
        <pt x="493" y="-12" on="1"/>
      </contour>
    </TTGlyph>
    <TTGlyph name="arrowhookleft" xMin="73" yMin="78" xMax="786" yMax="598">
      <contour>
        <pt x="73" y="289" on="1"/>
        <pt x="284" y="500" on="1"/>
        <pt x="315" y="475" on="1"/>
        <pt x="199" y="309" on="1"/>
        <pt x="578" y="329" on="1"/>
        <pt x="600" y="329" on="0"/>
        <pt x="642" y="340" on="0"/>
        <pt x="675" y="363" on="0"/>
        <pt x="694" y="399" on="0"/>
        <pt x="694" y="424" on="1"/>
        <pt x="694" y="448" on="0"/>
        <pt x="675" y="484" on="0"/>
        <pt x="643" y="507" on="0"/>
        <pt x="601" y="518" on="0"/>
        <pt x="578" y="518" on="1"/>
        <pt x="578" y="598" on="1"/>
        <pt x="623" y="598" on="0"/>
        <pt x="700" y="575" on="0"/>
        <pt x="755" y="530" on="0"/>
        <pt x="786" y="466" on="0"/>
        <pt x="786" y="424" on="1"/>
        <pt x="786" y="384" on="0"/>
        <pt x="756" y="319" on="0"/>
        <pt x="702" y="274" on="0"/>
        <pt x="625" y="249" on="0"/>
        <pt x="578" y="249" on="1"/>
        <pt x="199" y="269" on="1"/>
        <pt x="315" y="103" on="1"/>
        <pt x="284" y="78" on="1"/>
      </contour>
    </TTGlyph>
    <TTGlyph name="arrowhookright" xMin="74" yMin="78" xMax="787" yMax="598">
      <contour>
        <pt x="545" y="103" on="1"/>
        <pt x="661" y="269" on="1"/>
        <pt x="282" y="249" on="1"/>
        <pt x="235" y="249" on="0"/>
        <pt x="158" y="274" on="0"/>
        <pt x="104" y="319" on="0"/>
        <pt x="74" y="384" on="0"/>
        <pt x="74" y="424" on="1"/>
        <pt x="74" y="466" on="0"/>
        <pt x="105" y="530" on="0"/>
        <pt x="160" y="575" on="0"/>
        <pt x="237" y="598" on="0"/>
        <pt x="282" y="598" on="1"/>
        <pt x="282" y="518" on="1"/>
        <pt x="259" y="518" on="0"/>
        <pt x="217" y="507" on="0"/>
        <pt x="185" y="484" on="0"/>
        <pt x="166" y="448" on="0"/>
        <pt x="166" y="424" on="1"/>
        <pt x="166" y="399" on="0"/>
        <pt x="185" y="363" on="0"/>
        <pt x="218" y="340" on="0"/>
        <pt x="259" y="329" on="0"/>
        <pt x="282" y="329" on="1"/>
        <pt x="661" y="309" on="1"/>
        <pt x="545" y="475" on="1"/>
        <pt x="576" y="500" on="1"/>
        <pt x="787" y="289" on="1"/>
        <pt x="576" y="78" on="1"/>
      </contour>
    </TTGlyph>
    <TTGlyph name="arrowleft" xMin="75" yMin="138" xMax="785" yMax="560">
      <contour>
        <pt x="75" y="349" on="1"/>
        <pt x="286" y="560" on="1"/>
        <pt x="317" y="535" on="1"/>
        <pt x="201" y="369" on="1"/>
        <pt x="552" y="389" on="1"/>
        <pt x="785" y="389" on="1"/>
        <pt x="785" y="309" on="1"/>
        <pt x="552" y="309" on="1"/>
        <pt x="201" y="329" on="1"/>
        <pt x="317" y="163" on="1"/>
        <pt x="286" y="138" on="1"/>
      </contour>
    </TTGlyph>
    <TTGlyph name="arrowleftarrowright" xMin="75" yMin="-10" xMax="785" yMax="708">
      <component glyphName="arrowright" x="0" y="-148" flags="0x204"/>
      <component glyphName="arrowleft" x="0" y="148" flags="0x4"/>
    </TTGlyph>
    <TTGlyph name="arrowleftdowncorner" xMin="75" yMin="96" xMax="785" yMax="600">
      <contour>
        <pt x="75" y="307" on="1"/>
        <pt x="100" y="338" on="1"/>
        <pt x="266" y="222" on="1"/>
        <pt x="247" y="520" on="1"/>
        <pt x="247" y="600" on="1"/>
        <pt x="785" y="600" on="1"/>
        <pt x="785" y="520" on="1"/>
        <pt x="322" y="520" on="1"/>
        <pt x="306" y="222" on="1"/>
        <pt x="472" y="338" on="1"/>
        <pt x="497" y="307" on="1"/>
        <pt x="286" y="96" on="1"/>
      </contour>
    </TTGlyph>
    <TTGlyph name="arrowleftright" xMin="74" yMin="138" xMax="786" yMax="560">
      <contour>
        <pt x="74" y="349" on="1"/>
        <pt x="285" y="560" on="1"/>
        <pt x="316" y="535" on="1"/>
        <pt x="200" y="369" on="1"/>
        <pt x="430" y="390" on="1"/>
        <pt x="660" y="369" on="1"/>
        <pt x="544" y="535" on="1"/>
        <pt x="575" y="560" on="1"/>
        <pt x="786" y="349" on="1"/>
        <pt x="575" y="138" on="1"/>
        <pt x="544" y="163" on="1"/>
        <pt x="660" y="329" on="1"/>
        <pt x="430" y="308" on="1"/>
        <pt x="200" y="329" on="1"/>
        <pt x="316" y="163" on="1"/>
        <pt x="285" y="138" on="1"/>
      </contour>
    </TTGlyph>
    <TTGlyph name="arrowleftupcorner" xMin="75" yMin="126" xMax="785" yMax="630">
      <contour>
        <pt x="247" y="206" on="1"/>
        <pt x="266" y="504" on="1"/>
        <pt x="100" y="388" on="1"/>
        <pt x="75" y="419" on="1"/>
        <pt x="286" y="630" on="1"/>
        <pt x="497" y="419" on="1"/>
        <pt x="472" y="388" on="1"/>
        <pt x="306" y="504" on="1"/>
        <pt x="322" y="206" on="1"/>
        <pt x="785" y="206" on="1"/>
        <pt x="785" y="126" on="1"/>
        <pt x="247" y="126" on="1"/>
      </contour>
    </TTGlyph>
    <TTGlyph name="arrowright" xMin="75" yMin="138" xMax="785" yMax="560">
      <contour>
        <pt x="543" y="163" on="1"/>
        <pt x="659" y="329" on="1"/>
        <pt x="308" y="309" on="1"/>
        <pt x="75" y="309" on="1"/>
        <pt x="75" y="389" on="1"/>
        <pt x="308" y="389" on="1"/>
        <pt x="659" y="369" on="1"/>
        <pt x="543" y="535" on="1"/>
        <pt x="574" y="560" on="1"/>
        <pt x="785" y="349" on="1"/>
        <pt x="574" y="138" on="1"/>
      </contour>
    </TTGlyph>
    <TTGlyph name="arrowrightarrowleft" xMin="75" yMin="-10" xMax="785" yMax="708">
      <component glyphName="arrowright" x="0" y="148" flags="0x204"/>
      <component glyphName="arrowleft" x="0" y="-148" flags="0x4"/>
    </TTGlyph>
    <TTGlyph name="arrowrightdowncorner" xMin="75" yMin="96" xMax="785" yMax="600">
      <contour>
        <pt x="363" y="307" on="1"/>
        <pt x="388" y="338" on="1"/>
        <pt x="554" y="222" on="1"/>
        <pt x="538" y="520" on="1"/>
        <pt x="75" y="520" on="1"/>
        <pt x="75" y="600" on="1"/>
        <pt x="613" y="600" on="1"/>
        <pt x="613" y="520" on="1"/>
        <pt x="594" y="222" on="1"/>
        <pt x="760" y="338" on="1"/>
        <pt x="785" y="307" on="1"/>
        <pt x="574" y="96" on="1"/>
      </contour>
    </TTGlyph>
    <TTGlyph name="arrowrightupcorner" xMin="75" yMin="126" xMax="785" yMax="630">
      <contour>
        <pt x="75" y="206" on="1"/>
        <pt x="538" y="206" on="1"/>
        <pt x="554" y="504" on="1"/>
        <pt x="388" y="388" on="1"/>
        <pt x="363" y="419" on="1"/>
        <pt x="574" y="630" on="1"/>
        <pt x="785" y="419" on="1"/>
        <pt x="760" y="388" on="1"/>
        <pt x="594" y="504" on="1"/>
        <pt x="613" y="206" on="1"/>
        <pt x="613" y="126" on="1"/>
        <pt x="75" y="126" on="1"/>
      </contour>
    </TTGlyph>
    <TTGlyph name="arrowup" xMin="219" yMin="0" xMax="641" yMax="710">
      <contour>
        <pt x="390" y="233" on="1"/>
        <pt x="410" y="584" on="1"/>
        <pt x="244" y="468" on="1"/>
        <pt x="219" y="499" on="1"/>
        <pt x="430" y="710" on="1"/>
        <pt x="641" y="499" on="1"/>
        <pt x="616" y="468" on="1"/>
        <pt x="450" y="584" on="1"/>
        <pt x="470" y="233" on="1"/>
        <pt x="470" y="0" on="1"/>
        <pt x="390" y="0" on="1"/>
      </contour>
    </TTGlyph>
    <TTGlyph name="arrowupdown" xMin="219" yMin="-12" xMax="641" yMax="710">
      <contour>
        <pt x="219" y="199" on="1"/>
        <pt x="244" y="230" on="1"/>
        <pt x="410" y="114" on="1"/>
        <pt x="387" y="349" on="1"/>
        <pt x="410" y="584" on="1"/>
        <pt x="244" y="468" on="1"/>
        <pt x="219" y="499" on="1"/>
        <pt x="430" y="710" on="1"/>
        <pt x="641" y="499" on="1"/>
        <pt x="616" y="468" on="1"/>
        <pt x="450" y="584" on="1"/>
        <pt x="473" y="349" on="1"/>
        <pt x="450" y="114" on="1"/>
        <pt x="616" y="230" on="1"/>
        <pt x="641" y="199" on="1"/>
        <pt x="430" y="-12" on="1"/>
      </contour>
    </TTGlyph>
    <TTGlyph name="arrowupleft" xMin="187" yMin="85" xMax="718" yMax="615">
      <contour>
        <pt x="496" y="250" on="1"/>
        <pt x="262" y="512" on="1"/>
        <pt x="227" y="313" on="1"/>
        <pt x="187" y="317" on="1"/>
        <pt x="187" y="615" on="1"/>
        <pt x="486" y="615" on="1"/>
        <pt x="490" y="576" on="1"/>
        <pt x="290" y="540" on="1"/>
        <pt x="553" y="306" on="1"/>
        <pt x="718" y="141" on="1"/>
        <pt x="661" y="85" on="1"/>
      </contour>
    </TTGlyph>
    <TTGlyph name="arrowupleftcorner" xMin="156" yMin="0" xMax="660" yMax="710">
      <contour>
        <pt x="580" y="463" on="1"/>
        <pt x="282" y="479" on="1"/>
        <pt x="398" y="313" on="1"/>
        <pt x="367" y="288" on="1"/>
        <pt x="156" y="499" on="1"/>
        <pt x="367" y="710" on="1"/>
        <pt x="398" y="685" on="1"/>
        <pt x="282" y="519" on="1"/>
        <pt x="580" y="538" on="1"/>
        <pt x="660" y="538" on="1"/>
        <pt x="660" y="0" on="1"/>
        <pt x="580" y="0" on="1"/>
      </contour>
    </TTGlyph>
    <TTGlyph name="arrowupleftcounterclock" xMin="102" yMin="-12" xMax="759" yMax="698">
      <contour>
        <pt x="432" y="-12" on="1"/>
        <pt x="363" y="-12" on="0"/>
        <pt x="243" y="36" on="0"/>
        <pt x="154" y="122" on="0"/>
        <pt x="102" y="240" on="0"/>
        <pt x="102" y="309" on="1"/>
        <pt x="102" y="403" on="0"/>
        <pt x="198" y="556" on="0"/>
        <pt x="277" y="604" on="1"/>
        <pt x="322" y="540" on="1"/>
        <pt x="253" y="496" on="0"/>
        <pt x="185" y="378" on="0"/>
        <pt x="185" y="311" on="1"/>
        <pt x="185" y="257" on="0"/>
        <pt x="225" y="167" on="0"/>
        <pt x="292" y="102" on="0"/>
        <pt x="383" y="66" on="0"/>
        <pt x="434" y="66" on="1"/>
        <pt x="485" y="66" on="0"/>
        <pt x="574" y="100" on="0"/>
        <pt x="639" y="163" on="0"/>
        <pt x="677" y="249" on="0"/>
        <pt x="677" y="302" on="1"/>
        <pt x="677" y="344" on="0"/>
        <pt x="656" y="413" on="0"/>
        <pt x="612" y="479" on="0"/>
        <pt x="544" y="550" on="0"/>
        <pt x="497" y="595" on="1"/>
        <pt x="462" y="396" on="1"/>
        <pt x="422" y="400" on="1"/>
        <pt x="422" y="698" on="1"/>
        <pt x="721" y="698" on="1"/>
        <pt x="725" y="659" on="1"/>
        <pt x="525" y="623" on="1"/>
        <pt x="577" y="582" on="0"/>
        <pt x="663" y="508" on="0"/>
        <pt x="725" y="432" on="0"/>
        <pt x="759" y="349" on="0"/>
        <pt x="759" y="300" on="1"/>
        <pt x="759" y="234" on="0"/>
        <pt x="709" y="120" on="0"/>
        <pt x="622" y="36" on="0"/>
        <pt x="502" y="-12" on="0"/>
      </contour>
    </TTGlyph>
    <TTGlyph name="arrowupright" xMin="142" yMin="85" xMax="673" yMax="615">
      <contour>
        <pt x="142" y="141" on="1"/>
        <pt x="307" y="306" on="1"/>
        <pt x="570" y="540" on="1"/>
        <pt x="370" y="576" on="1"/>
        <pt x="374" y="615" on="1"/>
        <pt x="673" y="615" on="1"/>
        <pt x="673" y="317" on="1"/>
        <pt x="633" y="313" on="1"/>
        <pt x="598" y="512" on="1"/>
        <pt x="364" y="250" on="1"/>
        <pt x="199" y="85" on="1"/>
      </contour>
    </TTGlyph>
    <TTGlyph name="arrowuprightclock" xMin="101" yMin="-12" xMax="758" yMax="698">
      <contour>
        <pt x="428" y="-12" on="1"/>
        <pt x="358" y="-12" on="0"/>
        <pt x="238" y="36" on="0"/>
        <pt x="151" y="120" on="0"/>
        <pt x="101" y="234" on="0"/>
        <pt x="101" y="300" on="1"/>
        <pt x="101" y="349" on="0"/>
        <pt x="135" y="432" on="0"/>
        <pt x="197" y="508" on="0"/>
        <pt x="283" y="582" on="0"/>
        <pt x="335" y="623" on="1"/>
        <pt x="135" y="659" on="1"/>
        <pt x="139" y="698" on="1"/>
        <pt x="438" y="698" on="1"/>
        <pt x="438" y="400" on="1"/>
        <pt x="398" y="396" on="1"/>
        <pt x="363" y="595" on="1"/>
        <pt x="316" y="550" on="0"/>
        <pt x="248" y="479" on="0"/>
        <pt x="204" y="413" on="0"/>
        <pt x="183" y="344" on="0"/>
        <pt x="183" y="302" on="1"/>
        <pt x="183" y="249" on="0"/>
        <pt x="221" y="163" on="0"/>
        <pt x="286" y="100" on="0"/>
        <pt x="375" y="66" on="0"/>
        <pt x="426" y="66" on="1"/>
        <pt x="477" y="66" on="0"/>
        <pt x="568" y="102" on="0"/>
        <pt x="635" y="167" on="0"/>
        <pt x="675" y="257" on="0"/>
        <pt x="675" y="311" on="1"/>
        <pt x="675" y="378" on="0"/>
        <pt x="607" y="496" on="0"/>
        <pt x="538" y="540" on="1"/>
        <pt x="583" y="604" on="1"/>
        <pt x="662" y="556" on="0"/>
        <pt x="758" y="403" on="0"/>
        <pt x="758" y="309" on="1"/>
        <pt x="758" y="240" on="0"/>
        <pt x="706" y="122" on="0"/>
        <pt x="617" y="36" on="0"/>
        <pt x="497" y="-12" on="0"/>
      </contour>
    </TTGlyph>
    <TTGlyph name="arrowuprightcorner" xMin="200" yMin="0" xMax="704" yMax="710">
      <contour>
        <pt x="200" y="538" on="1"/>
        <pt x="280" y="538" on="1"/>
        <pt x="578" y="519" on="1"/>
        <pt x="462" y="685" on="1"/>
        <pt x="493" y="710" on="1"/>
        <pt x="704" y="499" on="1"/>
        <pt x="493" y="288" on="1"/>
        <pt x="462" y="313" on="1"/>
        <pt x="578" y="479" on="1"/>
        <pt x="280" y="463" on="1"/>
        <pt x="280" y="0" on="1"/>
        <pt x="200" y="0" on="1"/>
      </contour>
    </TTGlyph>
    <TTGlyph name="asciicircum" xMin="55" yMin="313" xMax="545" yMax="698">
      <contour>
        <pt x="55" y="341" on="1"/>
        <pt x="262" y="698" on="1"/>
        <pt x="338" y="698" on="1"/>
        <pt x="545" y="341" on="1"/>
        <pt x="494" y="313" on="1"/>
        <pt x="303" y="630" on="1"/>
        <pt x="297" y="630" on="1"/>
        <pt x="106" y="313" on="1"/>
      </contour>
    </TTGlyph>
    <TTGlyph name="asciitilde" xMin="63" yMin="240" xMax="537" yMax="374">
      <contour>
        <pt x="418" y="240" on="1"/>
        <pt x="382" y="240" on="0"/>
        <pt x="325" y="260" on="0"/>
        <pt x="290" y="277" on="1"/>
        <pt x="261" y="291" on="0"/>
        <pt x="207" y="311" on="0"/>
        <pt x="177" y="311" on="1"/>
        <pt x="151" y="311" on="0"/>
        <pt x="113" y="296" on="0"/>
        <pt x="90" y="280" on="1"/>
        <pt x="63" y="318" on="1"/>
        <pt x="83" y="343" on="0"/>
        <pt x="137" y="374" on="0"/>
        <pt x="182" y="374" on="1"/>
        <pt x="218" y="374" on="0"/>
        <pt x="275" y="354" on="0"/>
        <pt x="310" y="337" on="1"/>
        <pt x="339" y="323" on="0"/>
        <pt x="393" y="303" on="0"/>
        <pt x="423" y="303" on="1"/>
        <pt x="449" y="303" on="0"/>
        <pt x="487" y="318" on="0"/>
        <pt x="510" y="334" on="1"/>
        <pt x="537" y="296" on="1"/>
        <pt x="517" y="271" on="0"/>
        <pt x="463" y="240" on="0"/>
      </contour>
    </TTGlyph>
    <TTGlyph name="asterisk" xMin="35" yMin="365" xMax="436" yMax="747">
      <contour>
        <pt x="87" y="415" on="1"/>
        <pt x="118" y="458" on="1"/>
        <pt x="200" y="526" on="1"/>
        <pt x="224" y="508" on="1"/>
        <pt x="185" y="409" on="1"/>
        <pt x="154" y="365" on="1"/>
      </contour>
      <contour>
        <pt x="86" y="554" on="1"/>
        <pt x="35" y="570" on="1"/>
        <pt x="61" y="650" on="1"/>
        <pt x="111" y="633" on="1"/>
        <pt x="202" y="576" on="1"/>
        <pt x="192" y="548" on="1"/>
      </contour>
      <contour>
        <pt x="194" y="694" on="1"/>
        <pt x="194" y="747" on="1"/>
        <pt x="277" y="747" on="1"/>
        <pt x="277" y="694" on="1"/>
        <pt x="250" y="589" on="1"/>
        <pt x="221" y="589" on="1"/>
      </contour>
      <contour>
        <pt x="286" y="409" on="1"/>
        <pt x="247" y="508" on="1"/>
        <pt x="271" y="526" on="1"/>
        <pt x="353" y="458" on="1"/>
        <pt x="384" y="415" on="1"/>
        <pt x="317" y="365" on="1"/>
      </contour>
      <contour>
        <pt x="269" y="576" on="1"/>
        <pt x="360" y="633" on="1"/>
        <pt x="410" y="650" on="1"/>
        <pt x="436" y="570" on="1"/>
        <pt x="385" y="554" on="1"/>
        <pt x="279" y="548" on="1"/>
      </contour>
    </TTGlyph>
    <TTGlyph name="at" xMin="74" yMin="-121" xMax="843" yMax="710">
      <contour>
        <pt x="452" y="-121" on="1"/>
        <pt x="366" y="-121" on="0"/>
        <pt x="227" y="-63" on="0"/>
        <pt x="128" y="45" on="0"/>
        <pt x="74" y="196" on="0"/>
        <pt x="74" y="289" on="1"/>
        <pt x="74" y="382" on="0"/>
        <pt x="129" y="537" on="0"/>
        <pt x="229" y="648" on="0"/>
        <pt x="371" y="710" on="0"/>
        <pt x="458" y="710" on="1"/>
        <pt x="544" y="710" on="0"/>
        <pt x="686" y="653" on="0"/>
        <pt x="787" y="551" on="0"/>
        <pt x="843" y="408" on="0"/>
        <pt x="843" y="322" on="1"/>
        <pt x="843" y="270" on="0"/>
        <pt x="824" y="178" on="0"/>
        <pt x="784" y="109" on="0"/>
        <pt x="719" y="69" on="0"/>
        <pt x="674" y="69" on="1"/>
        <pt x="622" y="69" on="0"/>
        <pt x="564" y="118" on="0"/>
        <pt x="559" y="157" on="1"/>
        <pt x="555" y="157" on="1"/>
        <pt x="538" y="118" on="0"/>
        <pt x="481" y="69" on="0"/>
        <pt x="434" y="69" on="1"/>
        <pt x="400" y="69" on="0"/>
        <pt x="339" y="96" on="0"/>
        <pt x="294" y="151" on="0"/>
        <pt x="268" y="233" on="0"/>
        <pt x="268" y="289" on="1"/>
        <pt x="268" y="344" on="0"/>
        <pt x="294" y="427" on="0"/>
        <pt x="339" y="482" on="0"/>
        <pt x="400" y="509" on="0"/>
        <pt x="434" y="509" on="1"/>
        <pt x="479" y="509" on="0"/>
        <pt x="535" y="464" on="0"/>
        <pt x="547" y="431" on="1"/>
        <pt x="551" y="431" on="1"/>
        <pt x="584" y="500" on="1"/>
        <pt x="624" y="500" on="1"/>
        <pt x="624" y="185" on="1"/>
        <pt x="624" y="111" on="0"/>
        <pt x="680" y="111" on="1"/>
        <pt x="728" y="111" on="0"/>
        <pt x="777" y="206" on="0"/>
        <pt x="777" y="306" on="1"/>
        <pt x="777" y="350" on="1"/>
        <pt x="777" y="418" on="0"/>
        <pt x="734" y="533" on="0"/>
        <pt x="651" y="617" on="0"/>
        <pt x="533" y="665" on="0"/>
        <pt x="458" y="665" on="1"/>
        <pt x="383" y="665" on="0"/>
        <pt x="265" y="612" on="0"/>
        <pt x="182" y="519" on="0"/>
        <pt x="139" y="393" on="0"/>
        <pt x="139" y="320" on="1"/>
        <pt x="139" y="265" on="1"/>
        <pt x="139" y="191" on="0"/>
        <pt x="183" y="67" on="0"/>
        <pt x="265" y="-22" on="0"/>
        <pt x="381" y="-71" on="0"/>
        <pt x="453" y="-71" on="1"/>
        <pt x="678" y="-71" on="1"/>
        <pt x="678" y="-103" on="1"/>
        <pt x="628" y="-111" on="0"/>
        <pt x="514" y="-121" on="0"/>
      </contour>
      <contour>
        <pt x="450" y="123" on="1"/>
        <pt x="498" y="123" on="0"/>
        <pt x="549" y="172" on="0"/>
        <pt x="549" y="216" on="1"/>
        <pt x="549" y="362" on="1"/>
        <pt x="549" y="406" on="0"/>
        <pt x="498" y="455" on="0"/>
        <pt x="450" y="455" on="1"/>
        <pt x="400" y="455" on="0"/>
        <pt x="351" y="393" on="0"/>
        <pt x="351" y="341" on="1"/>
        <pt x="351" y="237" on="1"/>
        <pt x="351" y="185" on="0"/>
        <pt x="400" y="123" on="0"/>
      </contour>
    </TTGlyph>
    <TTGlyph name="atilde" xMin="43" yMin="-12" xMax="515" yMax="733">
      <component glyphName="a" x="0" y="0" flags="0x204"/>
      <component glyphName="tilde" x="-37" y="0" flags="0x4"/>
    </TTGlyph>
    <TTGlyph name="atilde.alt01" xMin="48" yMin="-12" xMax="580" yMax="733">
      <component glyphName="a.alt01" x="0" y="0" flags="0x204"/>
      <component glyphName="tilde" x="-26" y="0" flags="0x4"/>
    </TTGlyph>
    <TTGlyph name="b" xMin="25" yMin="-12" xMax="556" yMax="760">
      <contour>
        <pt x="345" y="-12" on="1"/>
        <pt x="284" y="-12" on="0"/>
        <pt x="208" y="42" on="0"/>
        <pt x="192" y="79" on="1"/>
        <pt x="188" y="79" on="1"/>
        <pt x="136" y="0" on="1"/>
        <pt x="96" y="0" on="1"/>
        <pt x="96" y="676" on="1"/>
        <pt x="25" y="689" on="1"/>
        <pt x="25" y="727" on="1"/>
        <pt x="192" y="760" on="1"/>
        <pt x="192" y="439" on="1"/>
        <pt x="196" y="439" on="1"/>
        <pt x="212" y="476" on="0"/>
        <pt x="285" y="530" on="0"/>
        <pt x="345" y="530" on="1"/>
        <pt x="393" y="530" on="0"/>
        <pt x="471" y="494" on="0"/>
        <pt x="526" y="425" on="0"/>
        <pt x="556" y="324" on="0"/>
        <pt x="556" y="259" on="1"/>
        <pt x="556" y="194" on="0"/>
        <pt x="526" y="93" on="0"/>
        <pt x="471" y="24" on="0"/>
        <pt x="393" y="-12" on="0"/>
      </contour>
      <contour>
        <pt x="316" y="52" on="1"/>
        <pt x="380" y="52" on="0"/>
        <pt x="453" y="138" on="0"/>
        <pt x="453" y="212" on="1"/>
        <pt x="453" y="306" on="1"/>
        <pt x="453" y="380" on="0"/>
        <pt x="380" y="466" on="0"/>
        <pt x="316" y="466" on="1"/>
        <pt x="293" y="466" on="0"/>
        <pt x="248" y="452" on="0"/>
        <pt x="213" y="426" on="0"/>
        <pt x="192" y="389" on="0"/>
        <pt x="192" y="365" on="1"/>
        <pt x="192" y="153" on="1"/>
        <pt x="192" y="129" on="0"/>
        <pt x="213" y="92" on="0"/>
        <pt x="248" y="66" on="0"/>
        <pt x="293" y="52" on="0"/>
      </contour>
    </TTGlyph>
    <TTGlyph name="backslash" xMin="42" yMin="-143" xMax="372" yMax="748">
      <contour>
        <pt x="42" y="748" on="1"/>
        <pt x="106" y="748" on="1"/>
        <pt x="372" y="-143" on="1"/>
        <pt x="308" y="-143" on="1"/>
      </contour>
    </TTGlyph>
    <TTGlyph name="baht" xMin="50" yMin="-82" xMax="592" yMax="780">
      <contour>
        <pt x="308" y="21" on="1"/>
        <pt x="50" y="21" on="1"/>
        <pt x="50" y="71" on="1"/>
        <pt x="124" y="71" on="1"/>
        <pt x="124" y="627" on="1"/>
        <pt x="50" y="627" on="1"/>
        <pt x="50" y="677" on="1"/>
        <pt x="308" y="677" on="1"/>
        <pt x="308" y="780" on="1"/>
        <pt x="363" y="780" on="1"/>
        <pt x="363" y="677" on="1"/>
        <pt x="384" y="677" on="1"/>
        <pt x="429" y="677" on="0"/>
        <pt x="500" y="653" on="0"/>
        <pt x="548" y="611" on="0"/>
        <pt x="574" y="553" on="0"/>
        <pt x="574" y="519" on="1"/>
        <pt x="574" y="485" on="0"/>
        <pt x="548" y="432" on="0"/>
        <pt x="507" y="393" on="0"/>
        <pt x="456" y="369" on="0"/>
        <pt x="430" y="364" on="1"/>
        <pt x="430" y="360" on="1"/>
        <pt x="459" y="357" on="0"/>
        <pt x="517" y="335" on="0"/>
        <pt x="563" y="294" on="0"/>
        <pt x="592" y="236" on="0"/>
        <pt x="592" y="199" on="1"/>
        <pt x="592" y="160" on="0"/>
        <pt x="564" y="95" on="0"/>
        <pt x="515" y="47" on="0"/>
        <pt x="446" y="21" on="0"/>
        <pt x="404" y="21" on="1"/>
        <pt x="363" y="21" on="1"/>
        <pt x="363" y="-82" on="1"/>
        <pt x="308" y="-82" on="1"/>
      </contour>
      <contour>
        <pt x="361" y="72" on="1"/>
        <pt x="376" y="72" on="1"/>
        <pt x="429" y="72" on="0"/>
        <pt x="490" y="137" on="0"/>
        <pt x="490" y="187" on="1"/>
        <pt x="490" y="220" on="1"/>
        <pt x="490" y="270" on="0"/>
        <pt x="429" y="335" on="0"/>
        <pt x="376" y="335" on="1"/>
        <pt x="361" y="335" on="1"/>
      </contour>
      <contour>
        <pt x="361" y="385" on="1"/>
        <pt x="417" y="385" on="0"/>
        <pt x="472" y="443" on="0"/>
        <pt x="472" y="488" on="1"/>
        <pt x="472" y="523" on="1"/>
        <pt x="472" y="568" on="0"/>
        <pt x="417" y="626" on="0"/>
        <pt x="361" y="626" on="1"/>
      </contour>
      <contour>
        <pt x="221" y="72" on="1"/>
        <pt x="310" y="72" on="1"/>
        <pt x="310" y="335" on="1"/>
        <pt x="221" y="335" on="1"/>
      </contour>
      <contour>
        <pt x="221" y="385" on="1"/>
        <pt x="310" y="385" on="1"/>
        <pt x="310" y="626" on="1"/>
        <pt x="221" y="626" on="1"/>
      </contour>
    </TTGlyph>
    <TTGlyph name="bar" xMin="126" yMin="-138" xMax="187" yMax="760">
      <contour>
        <pt x="126" y="760" on="1"/>
        <pt x="187" y="760" on="1"/>
        <pt x="187" y="-138" on="1"/>
        <pt x="126" y="-138" on="1"/>
      </contour>
    </TTGlyph>
    <TTGlyph name="bitcoin" xMin="50" yMin="-82" xMax="592" yMax="780">
      <contour>
        <pt x="233" y="21" on="1"/>
        <pt x="50" y="21" on="1"/>
        <pt x="50" y="71" on="1"/>
        <pt x="124" y="71" on="1"/>
        <pt x="124" y="627" on="1"/>
        <pt x="50" y="627" on="1"/>
        <pt x="50" y="677" on="1"/>
        <pt x="233" y="677" on="1"/>
        <pt x="233" y="780" on="1"/>
        <pt x="288" y="780" on="1"/>
        <pt x="288" y="677" on="1"/>
        <pt x="354" y="677" on="1"/>
        <pt x="354" y="780" on="1"/>
        <pt x="409" y="780" on="1"/>
        <pt x="409" y="676" on="1"/>
        <pt x="487" y="669" on="0"/>
        <pt x="574" y="583" on="0"/>
        <pt x="574" y="519" on="1"/>
        <pt x="574" y="485" on="0"/>
        <pt x="548" y="432" on="0"/>
        <pt x="507" y="393" on="0"/>
        <pt x="456" y="369" on="0"/>
        <pt x="430" y="364" on="1"/>
        <pt x="430" y="360" on="1"/>
        <pt x="459" y="357" on="0"/>
        <pt x="517" y="335" on="0"/>
        <pt x="563" y="294" on="0"/>
        <pt x="592" y="236" on="0"/>
        <pt x="592" y="199" on="1"/>
        <pt x="592" y="161" on="0"/>
        <pt x="566" y="96" on="0"/>
        <pt x="518" y="49" on="0"/>
        <pt x="450" y="22" on="0"/>
        <pt x="409" y="21" on="1"/>
        <pt x="409" y="-82" on="1"/>
        <pt x="354" y="-82" on="1"/>
        <pt x="354" y="21" on="1"/>
        <pt x="288" y="21" on="1"/>
        <pt x="288" y="-82" on="1"/>
        <pt x="233" y="-82" on="1"/>
      </contour>
      <contour>
        <pt x="221" y="72" on="1"/>
        <pt x="375" y="72" on="1"/>
        <pt x="429" y="72" on="0"/>
        <pt x="490" y="136" on="0"/>
        <pt x="490" y="187" on="1"/>
        <pt x="490" y="220" on="1"/>
        <pt x="490" y="271" on="0"/>
        <pt x="429" y="335" on="0"/>
        <pt x="375" y="335" on="1"/>
        <pt x="221" y="335" on="1"/>
      </contour>
      <contour>
        <pt x="221" y="385" on="1"/>
        <pt x="368" y="385" on="1"/>
        <pt x="417" y="385" on="0"/>
        <pt x="472" y="443" on="0"/>
        <pt x="472" y="488" on="1"/>
        <pt x="472" y="523" on="1"/>
        <pt x="472" y="568" on="0"/>
        <pt x="417" y="626" on="0"/>
        <pt x="368" y="626" on="1"/>
        <pt x="221" y="626" on="1"/>
      </contour>
    </TTGlyph>
    <TTGlyph name="braceleft" xMin="15" yMin="-138" xMax="304" yMax="760">
      <contour>
        <pt x="203" y="-138" on="1"/>
        <pt x="159" y="-138" on="0"/>
        <pt x="116" y="-91" on="0"/>
        <pt x="116" y="-53" on="1"/>
        <pt x="116" y="195" on="1"/>
        <pt x="116" y="239" on="0"/>
        <pt x="59" y="283" on="0"/>
        <pt x="15" y="283" on="1"/>
        <pt x="15" y="339" on="1"/>
        <pt x="59" y="339" on="0"/>
        <pt x="116" y="383" on="0"/>
        <pt x="116" y="427" on="1"/>
        <pt x="116" y="675" on="1"/>
        <pt x="116" y="713" on="0"/>
        <pt x="159" y="760" on="0"/>
        <pt x="203" y="760" on="1"/>
        <pt x="304" y="760" on="1"/>
        <pt x="304" y="711" on="1"/>
        <pt x="204" y="711" on="1"/>
        <pt x="204" y="445" on="1"/>
        <pt x="204" y="421" on="0"/>
        <pt x="186" y="377" on="0"/>
        <pt x="156" y="343" on="0"/>
        <pt x="115" y="321" on="0"/>
        <pt x="93" y="317" on="1"/>
        <pt x="93" y="305" on="1"/>
        <pt x="115" y="301" on="0"/>
        <pt x="156" y="279" on="0"/>
        <pt x="186" y="245" on="0"/>
        <pt x="204" y="201" on="0"/>
        <pt x="204" y="177" on="1"/>
        <pt x="204" y="-89" on="1"/>
        <pt x="304" y="-89" on="1"/>
        <pt x="304" y="-138" on="1"/>
        <pt x="203" y="-138" on="1"/>
      </contour>
    </TTGlyph>
    <TTGlyph name="braceright" xMin="29" yMin="-138" xMax="318" yMax="760">
      <contour>
        <pt x="29" y="-89" on="1"/>
        <pt x="129" y="-89" on="1"/>
        <pt x="129" y="177" on="1"/>
        <pt x="129" y="201" on="0"/>
        <pt x="147" y="245" on="0"/>
        <pt x="177" y="279" on="0"/>
        <pt x="217" y="301" on="0"/>
        <pt x="240" y="305" on="1"/>
        <pt x="240" y="317" on="1"/>
        <pt x="217" y="321" on="0"/>
        <pt x="177" y="343" on="0"/>
        <pt x="147" y="377" on="0"/>
        <pt x="129" y="421" on="0"/>
        <pt x="129" y="445" on="1"/>
        <pt x="129" y="711" on="1"/>
        <pt x="29" y="711" on="1"/>
        <pt x="29" y="760" on="1"/>
        <pt x="130" y="760" on="1"/>
        <pt x="174" y="760" on="0"/>
        <pt x="217" y="713" on="0"/>
        <pt x="217" y="675" on="1"/>
        <pt x="217" y="427" on="1"/>
        <pt x="217" y="383" on="0"/>
        <pt x="274" y="339" on="0"/>
        <pt x="318" y="339" on="1"/>
        <pt x="318" y="283" on="1"/>
        <pt x="274" y="283" on="0"/>
        <pt x="217" y="239" on="0"/>
        <pt x="217" y="195" on="1"/>
        <pt x="217" y="-53" on="1"/>
        <pt x="217" y="-91" on="0"/>
        <pt x="174" y="-138" on="0"/>
        <pt x="130" y="-138" on="1"/>
        <pt x="29" y="-138" on="1"/>
      </contour>
    </TTGlyph>
    <TTGlyph name="bracketleft" xMin="57" yMin="-138" xMax="264" yMax="760">
      <contour>
        <pt x="57" y="760" on="1"/>
        <pt x="264" y="760" on="1"/>
        <pt x="264" y="711" on="1"/>
        <pt x="145" y="711" on="1"/>
        <pt x="145" y="-89" on="1"/>
        <pt x="264" y="-89" on="1"/>
        <pt x="264" y="-138" on="1"/>
        <pt x="57" y="-138" on="1"/>
      </contour>
    </TTGlyph>
    <TTGlyph name="bracketright" xMin="26" yMin="-138" xMax="233" yMax="760">
      <contour>
        <pt x="26" y="-89" on="1"/>
        <pt x="145" y="-89" on="1"/>
        <pt x="145" y="711" on="1"/>
        <pt x="26" y="711" on="1"/>
        <pt x="26" y="760" on="1"/>
        <pt x="233" y="760" on="1"/>
        <pt x="233" y="-138" on="1"/>
        <pt x="26" y="-138" on="1"/>
      </contour>
    </TTGlyph>
    <TTGlyph name="breve" xMin="151" yMin="595" xMax="449" yMax="754">
      <contour>
        <pt x="300" y="595" on="1"/>
        <pt x="262" y="595" on="0"/>
        <pt x="213" y="621" on="0"/>
        <pt x="180" y="663" on="0"/>
        <pt x="160" y="714" on="0"/>
        <pt x="151" y="738" on="1"/>
        <pt x="182" y="754" on="1"/>
        <pt x="203" y="718" on="1"/>
        <pt x="217" y="692" on="0"/>
        <pt x="258" y="668" on="0"/>
        <pt x="300" y="668" on="1"/>
        <pt x="342" y="668" on="0"/>
        <pt x="383" y="692" on="0"/>
        <pt x="397" y="718" on="1"/>
        <pt x="418" y="754" on="1"/>
        <pt x="449" y="738" on="1"/>
        <pt x="440" y="714" on="0"/>
        <pt x="420" y="663" on="0"/>
        <pt x="387" y="621" on="0"/>
        <pt x="337" y="595" on="0"/>
      </contour>
    </TTGlyph>
    <TTGlyph name="breve.case" xMin="151" yMin="764" xMax="449" yMax="923">
      <contour>
        <pt x="300" y="764" on="1"/>
        <pt x="262" y="764" on="0"/>
        <pt x="213" y="790" on="0"/>
        <pt x="180" y="832" on="0"/>
        <pt x="160" y="883" on="0"/>
        <pt x="151" y="907" on="1"/>
        <pt x="182" y="923" on="1"/>
        <pt x="203" y="887" on="1"/>
        <pt x="217" y="861" on="0"/>
        <pt x="258" y="837" on="0"/>
        <pt x="300" y="837" on="1"/>
        <pt x="342" y="837" on="0"/>
        <pt x="383" y="861" on="0"/>
        <pt x="397" y="887" on="1"/>
        <pt x="418" y="923" on="1"/>
        <pt x="449" y="907" on="1"/>
        <pt x="440" y="883" on="0"/>
        <pt x="420" y="832" on="0"/>
        <pt x="387" y="790" on="0"/>
        <pt x="337" y="764" on="0"/>
      </contour>
    </TTGlyph>
    <TTGlyph name="breve.cyrl" xMin="135" yMin="594" xMax="465" yMax="765">
      <contour>
        <pt x="300" y="594" on="1"/>
        <pt x="258" y="594" on="0"/>
        <pt x="195" y="613" on="0"/>
        <pt x="155" y="644" on="0"/>
        <pt x="135" y="685" on="0"/>
        <pt x="135" y="707" on="1"/>
        <pt x="135" y="736" on="0"/>
        <pt x="165" y="765" on="0"/>
        <pt x="191" y="765" on="1"/>
        <pt x="216" y="765" on="0"/>
        <pt x="244" y="736" on="0"/>
        <pt x="244" y="711" on="1"/>
        <pt x="244" y="690" on="0"/>
        <pt x="222" y="664" on="0"/>
        <pt x="207" y="659" on="1"/>
        <pt x="207" y="656" on="1"/>
        <pt x="223" y="648" on="0"/>
        <pt x="271" y="641" on="0"/>
        <pt x="300" y="641" on="1"/>
        <pt x="361" y="641" on="0"/>
        <pt x="393" y="656" on="1"/>
        <pt x="393" y="659" on="1"/>
        <pt x="378" y="664" on="0"/>
        <pt x="356" y="690" on="0"/>
        <pt x="356" y="711" on="1"/>
        <pt x="356" y="736" on="0"/>
        <pt x="384" y="765" on="0"/>
        <pt x="409" y="765" on="1"/>
        <pt x="435" y="765" on="0"/>
        <pt x="465" y="736" on="0"/>
        <pt x="465" y="707" on="1"/>
        <pt x="465" y="685" on="0"/>
        <pt x="445" y="644" on="0"/>
        <pt x="405" y="613" on="0"/>
        <pt x="342" y="594" on="0"/>
      </contour>
    </TTGlyph>
    <TTGlyph name="breve.cyrl_case" xMin="135" yMin="765" xMax="465" yMax="936">
      <contour>
        <pt x="300" y="765" on="1"/>
        <pt x="258" y="765" on="0"/>
        <pt x="195" y="784" on="0"/>
        <pt x="155" y="815" on="0"/>
        <pt x="135" y="856" on="0"/>
        <pt x="135" y="878" on="1"/>
        <pt x="135" y="907" on="0"/>
        <pt x="165" y="936" on="0"/>
        <pt x="191" y="936" on="1"/>
        <pt x="216" y="936" on="0"/>
        <pt x="244" y="907" on="0"/>
        <pt x="244" y="882" on="1"/>
        <pt x="244" y="861" on="0"/>
        <pt x="222" y="835" on="0"/>
        <pt x="207" y="830" on="1"/>
        <pt x="207" y="827" on="1"/>
        <pt x="223" y="819" on="0"/>
        <pt x="271" y="812" on="0"/>
        <pt x="300" y="812" on="1"/>
        <pt x="361" y="812" on="0"/>
        <pt x="393" y="827" on="1"/>
        <pt x="393" y="830" on="1"/>
        <pt x="378" y="835" on="0"/>
        <pt x="356" y="861" on="0"/>
        <pt x="356" y="882" on="1"/>
        <pt x="356" y="907" on="0"/>
        <pt x="384" y="936" on="0"/>
        <pt x="409" y="936" on="1"/>
        <pt x="435" y="936" on="0"/>
        <pt x="465" y="907" on="0"/>
        <pt x="465" y="878" on="1"/>
        <pt x="465" y="856" on="0"/>
        <pt x="445" y="815" on="0"/>
        <pt x="405" y="784" on="0"/>
        <pt x="342" y="765" on="0"/>
      </contour>
    </TTGlyph>
    <TTGlyph name="breveacute" xMin="-149" yMin="583" xMax="149" yMax="902">
      <contour>
        <pt x="0" y="583" on="1"/>
        <pt x="-38" y="583" on="0"/>
        <pt x="-87" y="609" on="0"/>
        <pt x="-120" y="649" on="0"/>
        <pt x="-140" y="699" on="0"/>
        <pt x="-149" y="723" on="1"/>
        <pt x="-118" y="739" on="1"/>
        <pt x="-97" y="701" on="1"/>
        <pt x="-83" y="675" on="0"/>
        <pt x="-42" y="653" on="0"/>
        <pt x="0" y="653" on="1"/>
        <pt x="42" y="653" on="0"/>
        <pt x="83" y="675" on="0"/>
        <pt x="97" y="701" on="1"/>
        <pt x="118" y="739" on="1"/>
        <pt x="149" y="723" on="1"/>
        <pt x="140" y="699" on="0"/>
        <pt x="120" y="649" on="0"/>
        <pt x="87" y="609" on="0"/>
        <pt x="37" y="583" on="0"/>
      </contour>
      <contour>
        <pt x="-34" y="723" on="1"/>
        <pt x="44" y="902" on="1"/>
        <pt x="117" y="864" on="1"/>
        <pt x="-3" y="708" on="1"/>
      </contour>
    </TTGlyph>
    <TTGlyph name="breveacute.case" xMin="-149" yMin="753" xMax="149" yMax="1072">
      <contour>
        <pt x="0" y="753" on="1"/>
        <pt x="-38" y="753" on="0"/>
        <pt x="-87" y="779" on="0"/>
        <pt x="-120" y="819" on="0"/>
        <pt x="-140" y="869" on="0"/>
        <pt x="-149" y="893" on="1"/>
        <pt x="-118" y="909" on="1"/>
        <pt x="-97" y="871" on="1"/>
        <pt x="-83" y="845" on="0"/>
        <pt x="-42" y="823" on="0"/>
        <pt x="0" y="823" on="1"/>
        <pt x="42" y="823" on="0"/>
        <pt x="83" y="845" on="0"/>
        <pt x="97" y="871" on="1"/>
        <pt x="118" y="909" on="1"/>
        <pt x="149" y="893" on="1"/>
        <pt x="140" y="869" on="0"/>
        <pt x="120" y="819" on="0"/>
        <pt x="87" y="779" on="0"/>
        <pt x="37" y="753" on="0"/>
      </contour>
      <contour>
        <pt x="-34" y="893" on="1"/>
        <pt x="44" y="1072" on="1"/>
        <pt x="117" y="1034" on="1"/>
        <pt x="-3" y="878" on="1"/>
      </contour>
    </TTGlyph>
    <TTGlyph name="brevecomb" xMin="-149" yMin="595" xMax="149" yMax="754">
      <component glyphName="breve" x="-300" y="0" flags="0x4"/>
    </TTGlyph>
    <TTGlyph name="brevegrave" xMin="-149" yMin="583" xMax="149" yMax="902">
      <contour>
        <pt x="0" y="583" on="1"/>
        <pt x="-38" y="583" on="0"/>
        <pt x="-87" y="609" on="0"/>
        <pt x="-120" y="649" on="0"/>
        <pt x="-140" y="699" on="0"/>
        <pt x="-149" y="723" on="1"/>
        <pt x="-118" y="739" on="1"/>
        <pt x="-97" y="701" on="1"/>
        <pt x="-83" y="675" on="0"/>
        <pt x="-42" y="653" on="0"/>
        <pt x="0" y="653" on="1"/>
        <pt x="42" y="653" on="0"/>
        <pt x="83" y="675" on="0"/>
        <pt x="97" y="701" on="1"/>
        <pt x="118" y="739" on="1"/>
        <pt x="149" y="723" on="1"/>
        <pt x="140" y="699" on="0"/>
        <pt x="120" y="649" on="0"/>
        <pt x="87" y="609" on="0"/>
        <pt x="37" y="583" on="0"/>
      </contour>
      <contour>
        <pt x="-117" y="864" on="1"/>
        <pt x="-44" y="902" on="1"/>
        <pt x="34" y="723" on="1"/>
        <pt x="3" y="708" on="1"/>
      </contour>
    </TTGlyph>
    <TTGlyph name="brevegrave.case" xMin="-149" yMin="753" xMax="149" yMax="1072">
      <contour>
        <pt x="0" y="753" on="1"/>
        <pt x="-38" y="753" on="0"/>
        <pt x="-87" y="779" on="0"/>
        <pt x="-120" y="819" on="0"/>
        <pt x="-140" y="869" on="0"/>
        <pt x="-149" y="893" on="1"/>
        <pt x="-118" y="909" on="1"/>
        <pt x="-97" y="871" on="1"/>
        <pt x="-83" y="845" on="0"/>
        <pt x="-42" y="823" on="0"/>
        <pt x="0" y="823" on="1"/>
        <pt x="42" y="823" on="0"/>
        <pt x="83" y="845" on="0"/>
        <pt x="97" y="871" on="1"/>
        <pt x="118" y="909" on="1"/>
        <pt x="149" y="893" on="1"/>
        <pt x="140" y="869" on="0"/>
        <pt x="120" y="819" on="0"/>
        <pt x="87" y="779" on="0"/>
        <pt x="37" y="753" on="0"/>
      </contour>
      <contour>
        <pt x="-117" y="1034" on="1"/>
        <pt x="-44" y="1072" on="1"/>
        <pt x="34" y="893" on="1"/>
        <pt x="3" y="878" on="1"/>
      </contour>
    </TTGlyph>
    <TTGlyph name="brevehook" xMin="-149" yMin="583" xMax="149" yMax="891">
      <contour>
        <pt x="0" y="583" on="1"/>
        <pt x="-38" y="583" on="0"/>
        <pt x="-87" y="609" on="0"/>
        <pt x="-120" y="649" on="0"/>
        <pt x="-140" y="699" on="0"/>
        <pt x="-149" y="723" on="1"/>
        <pt x="-118" y="739" on="1"/>
        <pt x="-97" y="701" on="1"/>
        <pt x="-83" y="675" on="0"/>
        <pt x="-42" y="653" on="0"/>
        <pt x="0" y="653" on="1"/>
        <pt x="42" y="653" on="0"/>
        <pt x="83" y="675" on="0"/>
        <pt x="97" y="701" on="1"/>
        <pt x="118" y="739" on="1"/>
        <pt x="149" y="723" on="1"/>
        <pt x="140" y="699" on="0"/>
        <pt x="120" y="649" on="0"/>
        <pt x="87" y="609" on="0"/>
        <pt x="37" y="583" on="0"/>
      </contour>
      <contour>
        <pt x="-25" y="714" on="1"/>
        <pt x="27" y="822" on="1"/>
        <pt x="-101" y="822" on="1"/>
        <pt x="-101" y="891" on="1"/>
        <pt x="12" y="891" on="1"/>
        <pt x="51" y="891" on="0"/>
        <pt x="83" y="859" on="0"/>
        <pt x="83" y="836" on="1"/>
        <pt x="83" y="814" on="0"/>
        <pt x="57" y="763" on="0"/>
        <pt x="34" y="733" on="1"/>
        <pt x="7" y="698" on="1"/>
      </contour>
    </TTGlyph>
    <TTGlyph name="brevehook.case" xMin="-149" yMin="753" xMax="149" yMax="1061">
      <contour>
        <pt x="0" y="753" on="1"/>
        <pt x="-38" y="753" on="0"/>
        <pt x="-87" y="779" on="0"/>
        <pt x="-120" y="819" on="0"/>
        <pt x="-140" y="869" on="0"/>
        <pt x="-149" y="893" on="1"/>
        <pt x="-118" y="909" on="1"/>
        <pt x="-97" y="871" on="1"/>
        <pt x="-83" y="845" on="0"/>
        <pt x="-42" y="823" on="0"/>
        <pt x="0" y="823" on="1"/>
        <pt x="42" y="823" on="0"/>
        <pt x="83" y="845" on="0"/>
        <pt x="97" y="871" on="1"/>
        <pt x="118" y="909" on="1"/>
        <pt x="149" y="893" on="1"/>
        <pt x="140" y="869" on="0"/>
        <pt x="120" y="819" on="0"/>
        <pt x="87" y="779" on="0"/>
        <pt x="37" y="753" on="0"/>
      </contour>
      <contour>
        <pt x="-25" y="884" on="1"/>
        <pt x="27" y="992" on="1"/>
        <pt x="-101" y="992" on="1"/>
        <pt x="-101" y="1061" on="1"/>
        <pt x="12" y="1061" on="1"/>
        <pt x="51" y="1061" on="0"/>
        <pt x="83" y="1029" on="0"/>
        <pt x="83" y="1006" on="1"/>
        <pt x="83" y="984" on="0"/>
        <pt x="57" y="933" on="0"/>
        <pt x="34" y="903" on="1"/>
        <pt x="7" y="868" on="1"/>
      </contour>
    </TTGlyph>
    <TTGlyph name="brevetilde" xMin="-163" yMin="583" xMax="163" yMax="889">
      <contour>
        <pt x="64" y="772" on="1"/>
        <pt x="44" y="772" on="0"/>
        <pt x="6" y="789" on="0"/>
        <pt x="-12" y="798" on="1"/>
        <pt x="-31" y="808" on="0"/>
        <pt x="-71" y="826" on="0"/>
        <pt x="-86" y="826" on="1"/>
        <pt x="-101" y="826" on="0"/>
        <pt x="-121" y="813" on="0"/>
        <pt x="-141" y="793" on="1"/>
        <pt x="-163" y="816" on="1"/>
        <pt x="-138" y="849" on="0"/>
        <pt x="-96" y="889" on="0"/>
        <pt x="-64" y="889" on="1"/>
        <pt x="-44" y="889" on="0"/>
        <pt x="-6" y="872" on="0"/>
        <pt x="12" y="863" on="1"/>
        <pt x="31" y="853" on="0"/>
        <pt x="71" y="835" on="0"/>
        <pt x="86" y="835" on="1"/>
        <pt x="101" y="835" on="0"/>
        <pt x="121" y="848" on="0"/>
        <pt x="141" y="868" on="1"/>
        <pt x="163" y="845" on="1"/>
        <pt x="138" y="812" on="0"/>
        <pt x="96" y="772" on="0"/>
      </contour>
      <contour>
        <pt x="0" y="583" on="1"/>
        <pt x="-38" y="583" on="0"/>
        <pt x="-87" y="609" on="0"/>
        <pt x="-120" y="649" on="0"/>
        <pt x="-140" y="699" on="0"/>
        <pt x="-149" y="723" on="1"/>
        <pt x="-118" y="739" on="1"/>
        <pt x="-97" y="701" on="1"/>
        <pt x="-83" y="675" on="0"/>
        <pt x="-42" y="653" on="0"/>
        <pt x="0" y="653" on="1"/>
        <pt x="42" y="653" on="0"/>
        <pt x="83" y="675" on="0"/>
        <pt x="97" y="701" on="1"/>
        <pt x="118" y="739" on="1"/>
        <pt x="149" y="723" on="1"/>
        <pt x="140" y="699" on="0"/>
        <pt x="120" y="649" on="0"/>
        <pt x="87" y="609" on="0"/>
        <pt x="37" y="583" on="0"/>
      </contour>
    </TTGlyph>
    <TTGlyph name="brevetilde.case" xMin="-163" yMin="753" xMax="163" yMax="1059">
      <contour>
        <pt x="64" y="942" on="1"/>
        <pt x="44" y="942" on="0"/>
        <pt x="6" y="959" on="0"/>
        <pt x="-12" y="968" on="1"/>
        <pt x="-31" y="978" on="0"/>
        <pt x="-71" y="996" on="0"/>
        <pt x="-86" y="996" on="1"/>
        <pt x="-101" y="996" on="0"/>
        <pt x="-121" y="983" on="0"/>
        <pt x="-141" y="963" on="1"/>
        <pt x="-163" y="986" on="1"/>
        <pt x="-138" y="1019" on="0"/>
        <pt x="-96" y="1059" on="0"/>
        <pt x="-64" y="1059" on="1"/>
        <pt x="-44" y="1059" on="0"/>
        <pt x="-6" y="1042" on="0"/>
        <pt x="12" y="1033" on="1"/>
        <pt x="31" y="1023" on="0"/>
        <pt x="71" y="1005" on="0"/>
        <pt x="86" y="1005" on="1"/>
        <pt x="101" y="1005" on="0"/>
        <pt x="121" y="1018" on="0"/>
        <pt x="141" y="1038" on="1"/>
        <pt x="163" y="1015" on="1"/>
        <pt x="138" y="982" on="0"/>
        <pt x="96" y="942" on="0"/>
      </contour>
      <contour>
        <pt x="0" y="753" on="1"/>
        <pt x="-38" y="753" on="0"/>
        <pt x="-87" y="779" on="0"/>
        <pt x="-120" y="819" on="0"/>
        <pt x="-140" y="869" on="0"/>
        <pt x="-149" y="893" on="1"/>
        <pt x="-118" y="909" on="1"/>
        <pt x="-97" y="871" on="1"/>
        <pt x="-83" y="845" on="0"/>
        <pt x="-42" y="823" on="0"/>
        <pt x="0" y="823" on="1"/>
        <pt x="42" y="823" on="0"/>
        <pt x="83" y="845" on="0"/>
        <pt x="97" y="871" on="1"/>
        <pt x="118" y="909" on="1"/>
        <pt x="149" y="893" on="1"/>
        <pt x="140" y="869" on="0"/>
        <pt x="120" y="819" on="0"/>
        <pt x="87" y="779" on="0"/>
        <pt x="37" y="753" on="0"/>
      </contour>
    </TTGlyph>
    <TTGlyph name="brokenbar" xMin="126" yMin="-138" xMax="187" yMax="760">
      <contour>
        <pt x="126" y="221" on="1"/>
        <pt x="187" y="221" on="1"/>
        <pt x="187" y="-138" on="1"/>
        <pt x="126" y="-138" on="1"/>
      </contour>
      <contour>
        <pt x="126" y="760" on="1"/>
        <pt x="187" y="760" on="1"/>
        <pt x="187" y="401" on="1"/>
        <pt x="126" y="401" on="1"/>
      </contour>
    </TTGlyph>
    <TTGlyph name="bullet" xMin="84" yMin="177" xMax="332" yMax="430">
      <contour>
        <pt x="208" y="177" on="1"/>
        <pt x="150" y="177" on="0"/>
        <pt x="84" y="247" on="0"/>
        <pt x="84" y="298" on="1"/>
        <pt x="84" y="309" on="1"/>
        <pt x="84" y="360" on="0"/>
        <pt x="150" y="430" on="0"/>
        <pt x="208" y="430" on="1"/>
        <pt x="266" y="430" on="0"/>
        <pt x="332" y="360" on="0"/>
        <pt x="332" y="309" on="1"/>
        <pt x="332" y="298" on="1"/>
        <pt x="332" y="247" on="0"/>
        <pt x="266" y="177" on="0"/>
      </contour>
    </TTGlyph>
    <TTGlyph name="c" xMin="44" yMin="-12" xMax="482" yMax="530">
      <contour>
        <pt x="283" y="-12" on="1"/>
        <pt x="226" y="-12" on="0"/>
        <pt x="137" y="27" on="0"/>
        <pt x="76" y="99" on="0"/>
        <pt x="44" y="199" on="0"/>
        <pt x="44" y="259" on="1"/>
        <pt x="44" y="322" on="0"/>
        <pt x="81" y="422" on="0"/>
        <pt x="147" y="492" on="0"/>
        <pt x="238" y="530" on="0"/>
        <pt x="292" y="530" on="1"/>
        <pt x="333" y="530" on="0"/>
        <pt x="399" y="511" on="0"/>
        <pt x="445" y="478" on="0"/>
        <pt x="470" y="432" on="0"/>
        <pt x="470" y="405" on="1"/>
        <pt x="470" y="373" on="0"/>
        <pt x="435" y="334" on="0"/>
        <pt x="405" y="334" on="1"/>
        <pt x="373" y="334" on="0"/>
        <pt x="341" y="371" on="0"/>
        <pt x="341" y="397" on="1"/>
        <pt x="341" y="420" on="0"/>
        <pt x="364" y="451" on="0"/>
        <pt x="383" y="460" on="1"/>
        <pt x="383" y="464" on="1"/>
        <pt x="371" y="470" on="0"/>
        <pt x="332" y="478" on="0"/>
        <pt x="302" y="478" on="1"/>
        <pt x="268" y="478" on="0"/>
        <pt x="211" y="453" on="0"/>
        <pt x="171" y="409" on="0"/>
        <pt x="148" y="347" on="0"/>
        <pt x="148" y="311" on="1"/>
        <pt x="148" y="231" on="1"/>
        <pt x="148" y="152" on="0"/>
        <pt x="228" y="58" on="0"/>
        <pt x="297" y="58" on="1"/>
        <pt x="357" y="58" on="0"/>
        <pt x="426" y="110" on="0"/>
        <pt x="446" y="149" on="1"/>
        <pt x="482" y="126" on="1"/>
        <pt x="473" y="100" on="0"/>
        <pt x="440" y="51" on="0"/>
        <pt x="391" y="12" on="0"/>
        <pt x="325" y="-12" on="0"/>
      </contour>
    </TTGlyph>
    <TTGlyph name="cacute" xMin="44" yMin="-12" xMax="482" yMax="783">
      <component glyphName="c" x="0" y="0" flags="0x204"/>
      <component glyphName="acute" x="-17" y="0" flags="0x4"/>
    </TTGlyph>
    <TTGlyph name="caron" xMin="143" yMin="599" xMax="457" yMax="773">
      <contour>
        <pt x="143" y="753" on="1"/>
        <pt x="171" y="773" on="1"/>
        <pt x="300" y="675" on="1"/>
        <pt x="429" y="773" on="1"/>
        <pt x="457" y="753" on="1"/>
        <pt x="331" y="599" on="1"/>
        <pt x="269" y="599" on="1"/>
      </contour>
    </TTGlyph>
    <TTGlyph name="caron.case" xMin="143" yMin="768" xMax="457" yMax="942">
      <contour>
        <pt x="143" y="922" on="1"/>
        <pt x="171" y="942" on="1"/>
        <pt x="300" y="844" on="1"/>
        <pt x="429" y="942" on="1"/>
        <pt x="457" y="922" on="1"/>
        <pt x="331" y="768" on="1"/>
        <pt x="269" y="768" on="1"/>
      </contour>
    </TTGlyph>
    <TTGlyph name="caroncomb" xMin="-157" yMin="599" xMax="157" yMax="773">
      <component glyphName="caron" x="-300" y="0" flags="0x4"/>
    </TTGlyph>
    <TTGlyph name="caronslovak" xMin="307" yMin="558" xMax="409" yMax="748">
      <contour>
        <pt x="318" y="748" on="1"/>
        <pt x="409" y="748" on="1"/>
        <pt x="340" y="558" on="1"/>
        <pt x="307" y="558" on="1"/>
      </contour>
    </TTGlyph>
    <TTGlyph name="caronslovakcomb" xMin="7" yMin="558" xMax="109" yMax="748">
      <component glyphName="caronslovak" x="-300" y="0" flags="0x4"/>
    </TTGlyph>
    <TTGlyph name="ccaron" xMin="44" yMin="-12" xMax="482" yMax="773">
      <component glyphName="c" x="0" y="0" flags="0x204"/>
      <component glyphName="caron" x="-17" y="0" flags="0x4"/>
    </TTGlyph>
    <TTGlyph name="ccedilla" xMin="44" yMin="-206" xMax="482" yMax="530">
      <contour>
        <pt x="292" y="-206" on="1"/>
        <pt x="254" y="-206" on="0"/>
        <pt x="211" y="-180" on="0"/>
        <pt x="200" y="-166" on="1"/>
        <pt x="222" y="-142" on="1"/>
        <pt x="232" y="-153" on="0"/>
        <pt x="261" y="-166" on="0"/>
        <pt x="281" y="-166" on="1"/>
        <pt x="304" y="-166" on="0"/>
        <pt x="333" y="-146" on="0"/>
        <pt x="333" y="-125" on="1"/>
        <pt x="333" y="-110" on="0"/>
        <pt x="310" y="-84" on="0"/>
        <pt x="272" y="-79" on="1"/>
        <pt x="245" y="-76" on="1"/>
        <pt x="258" y="-11" on="1"/>
        <pt x="207" y="-7" on="0"/>
        <pt x="127" y="36" on="0"/>
        <pt x="72" y="107" on="0"/>
        <pt x="44" y="202" on="0"/>
        <pt x="44" y="259" on="1"/>
        <pt x="44" y="322" on="0"/>
        <pt x="81" y="422" on="0"/>
        <pt x="147" y="492" on="0"/>
        <pt x="238" y="530" on="0"/>
        <pt x="292" y="530" on="1"/>
        <pt x="333" y="530" on="0"/>
        <pt x="399" y="511" on="0"/>
        <pt x="445" y="478" on="0"/>
        <pt x="470" y="432" on="0"/>
        <pt x="470" y="405" on="1"/>
        <pt x="470" y="373" on="0"/>
        <pt x="435" y="334" on="0"/>
        <pt x="405" y="334" on="1"/>
        <pt x="373" y="334" on="0"/>
        <pt x="341" y="371" on="0"/>
        <pt x="341" y="397" on="1"/>
        <pt x="341" y="420" on="0"/>
        <pt x="364" y="451" on="0"/>
        <pt x="383" y="460" on="1"/>
        <pt x="383" y="464" on="1"/>
        <pt x="371" y="470" on="0"/>
        <pt x="332" y="478" on="0"/>
        <pt x="302" y="478" on="1"/>
        <pt x="268" y="478" on="0"/>
        <pt x="211" y="453" on="0"/>
        <pt x="171" y="409" on="0"/>
        <pt x="148" y="347" on="0"/>
        <pt x="148" y="311" on="1"/>
        <pt x="148" y="231" on="1"/>
        <pt x="148" y="152" on="0"/>
        <pt x="228" y="58" on="0"/>
        <pt x="297" y="58" on="1"/>
        <pt x="357" y="58" on="0"/>
        <pt x="426" y="110" on="0"/>
        <pt x="446" y="149" on="1"/>
        <pt x="482" y="126" on="1"/>
        <pt x="473" y="102" on="0"/>
        <pt x="443" y="54" on="0"/>
        <pt x="398" y="16" on="0"/>
        <pt x="338" y="-9" on="0"/>
        <pt x="300" y="-11" on="1"/>
        <pt x="290" y="-60" on="1"/>
        <pt x="293" y="-63" on="1"/>
        <pt x="313" y="-58" on="0"/>
        <pt x="330" y="-58" on="1"/>
        <pt x="362" y="-58" on="0"/>
        <pt x="405" y="-91" on="0"/>
        <pt x="405" y="-123" on="1"/>
        <pt x="405" y="-145" on="0"/>
        <pt x="387" y="-176" on="0"/>
        <pt x="355" y="-196" on="0"/>
        <pt x="314" y="-206" on="0"/>
      </contour>
    </TTGlyph>
    <TTGlyph name="ccircumflex" xMin="44" yMin="-12" xMax="482" yMax="769">
      <component glyphName="c" x="0" y="0" flags="0x204"/>
      <component glyphName="circumflex" x="-17" y="0" flags="0x4"/>
    </TTGlyph>
    <TTGlyph name="cdotaccent" xMin="44" yMin="-12" xMax="482" yMax="728">
      <component glyphName="c" x="0" y="0" flags="0x204"/>
      <component glyphName="dotaccent" x="-17" y="0" flags="0x4"/>
    </TTGlyph>
    <TTGlyph name="cedi" xMin="50" yMin="-82" xMax="567" yMax="780">
      <contour>
        <pt x="243" y="11" on="1"/>
        <pt x="152" y="39" on="0"/>
        <pt x="50" y="217" on="0"/>
        <pt x="50" y="349" on="1"/>
        <pt x="50" y="433" on="0"/>
        <pt x="91" y="564" on="0"/>
        <pt x="168" y="654" on="0"/>
        <pt x="278" y="700" on="0"/>
        <pt x="347" y="700" on="1"/>
        <pt x="356" y="700" on="1"/>
        <pt x="369" y="780" on="1"/>
        <pt x="424" y="780" on="1"/>
        <pt x="410" y="695" on="1"/>
        <pt x="482" y="684" on="0"/>
        <pt x="560" y="614" on="0"/>
        <pt x="560" y="566" on="1"/>
        <pt x="560" y="534" on="0"/>
        <pt x="524" y="495" on="0"/>
        <pt x="494" y="495" on="1"/>
        <pt x="463" y="495" on="0"/>
        <pt x="431" y="534" on="0"/>
        <pt x="431" y="560" on="1"/>
        <pt x="431" y="580" on="0"/>
        <pt x="452" y="612" on="0"/>
        <pt x="472" y="621" on="1"/>
        <pt x="472" y="625" on="1"/>
        <pt x="445" y="638" on="0"/>
        <pt x="400" y="643" on="1"/>
        <pt x="305" y="69" on="1"/>
        <pt x="325" y="65" on="0"/>
        <pt x="352" y="65" on="1"/>
        <pt x="386" y="65" on="0"/>
        <pt x="440" y="85" on="0"/>
        <pt x="483" y="121" on="0"/>
        <pt x="515" y="169" on="0"/>
        <pt x="526" y="197" on="1"/>
        <pt x="567" y="176" on="1"/>
        <pt x="558" y="146" on="0"/>
        <pt x="520" y="82" on="0"/>
        <pt x="461" y="31" on="0"/>
        <pt x="382" y="-2" on="0"/>
        <pt x="332" y="-2" on="1"/>
        <pt x="324" y="-2" on="0"/>
        <pt x="304" y="-1" on="0"/>
        <pt x="297" y="0" on="1"/>
        <pt x="283" y="-82" on="1"/>
        <pt x="228" y="-82" on="1"/>
      </contour>
      <contour>
        <pt x="349" y="645" on="1"/>
        <pt x="297" y="644" on="0"/>
        <pt x="225" y="609" on="0"/>
        <pt x="180" y="548" on="0"/>
        <pt x="160" y="468" on="0"/>
        <pt x="160" y="422" on="1"/>
        <pt x="160" y="285" on="1"/>
        <pt x="160" y="213" on="0"/>
        <pt x="211" y="111" on="0"/>
        <pt x="258" y="87" on="1"/>
      </contour>
    </TTGlyph>
    <TTGlyph name="cedilla" xMin="219" yMin="-206" xMax="424" yMax="20">
      <contour>
        <pt x="311" y="-206" on="1"/>
        <pt x="273" y="-206" on="0"/>
        <pt x="230" y="-180" on="0"/>
        <pt x="219" y="-166" on="1"/>
        <pt x="241" y="-142" on="1"/>
        <pt x="251" y="-153" on="0"/>
        <pt x="280" y="-166" on="0"/>
        <pt x="300" y="-166" on="1"/>
        <pt x="323" y="-166" on="0"/>
        <pt x="352" y="-146" on="0"/>
        <pt x="352" y="-125" on="1"/>
        <pt x="352" y="-110" on="0"/>
        <pt x="329" y="-84" on="0"/>
        <pt x="291" y="-79" on="1"/>
        <pt x="264" y="-76" on="1"/>
        <pt x="283" y="20" on="1"/>
        <pt x="325" y="20" on="1"/>
        <pt x="309" y="-60" on="1"/>
        <pt x="312" y="-63" on="1"/>
        <pt x="332" y="-58" on="0"/>
        <pt x="349" y="-58" on="1"/>
        <pt x="381" y="-58" on="0"/>
        <pt x="424" y="-91" on="0"/>
        <pt x="424" y="-123" on="1"/>
        <pt x="424" y="-145" on="0"/>
        <pt x="406" y="-176" on="0"/>
        <pt x="374" y="-196" on="0"/>
        <pt x="333" y="-206" on="0"/>
      </contour>
    </TTGlyph>
    <TTGlyph name="cedillacomb" xMin="-81" yMin="-206" xMax="124" yMax="20">
      <component glyphName="cedilla" x="-300" y="0" flags="0x4"/>
    </TTGlyph>
    <TTGlyph name="celogo" xMin="91" yMin="-12" xMax="1108" yMax="710">
      <contour>
        <pt x="1070" y="-12" on="1"/>
        <pt x="996" y="-12" on="0"/>
        <pt x="866" y="45" on="0"/>
        <pt x="768" y="143" on="0"/>
        <pt x="711" y="274" on="0"/>
        <pt x="711" y="349" on="1"/>
        <pt x="711" y="424" on="0"/>
        <pt x="768" y="555" on="0"/>
        <pt x="866" y="653" on="0"/>
        <pt x="996" y="710" on="0"/>
        <pt x="1070" y="710" on="1"/>
        <pt x="1081" y="710" on="0"/>
        <pt x="1102" y="709" on="0"/>
        <pt x="1108" y="708" on="1"/>
        <pt x="1108" y="601" on="1"/>
        <pt x="1090" y="604" on="0"/>
        <pt x="1071" y="604" on="1"/>
        <pt x="1026" y="604" on="0"/>
        <pt x="944" y="574" on="0"/>
        <pt x="878" y="520" on="0"/>
        <pt x="832" y="447" on="0"/>
        <pt x="823" y="404" on="1"/>
        <pt x="1032" y="404" on="1"/>
        <pt x="1032" y="294" on="1"/>
        <pt x="823" y="294" on="1"/>
        <pt x="832" y="251" on="0"/>
        <pt x="878" y="178" on="0"/>
        <pt x="944" y="124" on="0"/>
        <pt x="1026" y="94" on="0"/>
        <pt x="1071" y="94" on="1"/>
        <pt x="1090" y="94" on="0"/>
        <pt x="1108" y="97" on="1"/>
        <pt x="1108" y="-10" on="1"/>
        <pt x="1102" y="-11" on="0"/>
        <pt x="1081" y="-12" on="0"/>
      </contour>
      <contour>
        <pt x="450" y="-12" on="1"/>
        <pt x="376" y="-12" on="0"/>
        <pt x="246" y="45" on="0"/>
        <pt x="148" y="143" on="0"/>
        <pt x="91" y="274" on="0"/>
        <pt x="91" y="349" on="1"/>
        <pt x="91" y="424" on="0"/>
        <pt x="148" y="555" on="0"/>
        <pt x="246" y="653" on="0"/>
        <pt x="376" y="710" on="0"/>
        <pt x="450" y="710" on="1"/>
        <pt x="461" y="710" on="0"/>
        <pt x="482" y="709" on="0"/>
        <pt x="488" y="708" on="1"/>
        <pt x="488" y="601" on="1"/>
        <pt x="470" y="604" on="0"/>
        <pt x="451" y="604" on="1"/>
        <pt x="399" y="604" on="0"/>
        <pt x="306" y="564" on="0"/>
        <pt x="237" y="494" on="0"/>
        <pt x="197" y="401" on="0"/>
        <pt x="197" y="349" on="1"/>
        <pt x="197" y="296" on="0"/>
        <pt x="237" y="204" on="0"/>
        <pt x="306" y="134" on="0"/>
        <pt x="399" y="94" on="0"/>
        <pt x="451" y="94" on="1"/>
        <pt x="470" y="94" on="0"/>
        <pt x="488" y="97" on="1"/>
        <pt x="488" y="-10" on="1"/>
        <pt x="482" y="-11" on="0"/>
        <pt x="461" y="-12" on="0"/>
      </contour>
    </TTGlyph>
    <TTGlyph name="cent" xMin="44" yMin="-114" xMax="484" yMax="629">
      <contour>
        <pt x="256" y="-11" on="1"/>
        <pt x="205" y="-6" on="0"/>
        <pt x="126" y="37" on="0"/>
        <pt x="72" y="107" on="0"/>
        <pt x="44" y="202" on="0"/>
        <pt x="44" y="259" on="1"/>
        <pt x="44" y="316" on="0"/>
        <pt x="75" y="409" on="0"/>
        <pt x="131" y="478" on="0"/>
        <pt x="209" y="521" on="0"/>
        <pt x="256" y="527" on="1"/>
        <pt x="256" y="629" on="1"/>
        <pt x="311" y="629" on="1"/>
        <pt x="311" y="529" on="1"/>
        <pt x="386" y="525" on="0"/>
        <pt x="472" y="456" on="0"/>
        <pt x="472" y="405" on="1"/>
        <pt x="472" y="373" on="0"/>
        <pt x="438" y="338" on="0"/>
        <pt x="407" y="338" on="1"/>
        <pt x="378" y="338" on="0"/>
        <pt x="347" y="374" on="0"/>
        <pt x="347" y="400" on="1"/>
        <pt x="347" y="420" on="0"/>
        <pt x="370" y="450" on="0"/>
        <pt x="390" y="458" on="1"/>
        <pt x="390" y="462" on="1"/>
        <pt x="375" y="470" on="0"/>
        <pt x="336" y="479" on="0"/>
        <pt x="309" y="479" on="1"/>
        <pt x="309" y="57" on="1"/>
        <pt x="337" y="58" on="0"/>
        <pt x="380" y="73" on="0"/>
        <pt x="413" y="97" on="0"/>
        <pt x="438" y="130" on="0"/>
        <pt x="448" y="149" on="1"/>
        <pt x="484" y="126" on="1"/>
        <pt x="475" y="102" on="0"/>
        <pt x="446" y="56" on="0"/>
        <pt x="404" y="19" on="0"/>
        <pt x="347" y="-7" on="0"/>
        <pt x="311" y="-11" on="1"/>
        <pt x="311" y="-114" on="1"/>
        <pt x="256" y="-114" on="1"/>
      </contour>
      <contour>
        <pt x="258" y="472" on="1"/>
        <pt x="207" y="458" on="0"/>
        <pt x="148" y="371" on="0"/>
        <pt x="148" y="310" on="1"/>
        <pt x="148" y="231" on="1"/>
        <pt x="148" y="164" on="0"/>
        <pt x="206" y="76" on="0"/>
        <pt x="258" y="62" on="1"/>
      </contour>
    </TTGlyph>
    <TTGlyph name="checkmark" xMin="139" yMin="0" xMax="757" yMax="719">
      <contour>
        <pt x="221" y="288" on="1"/>
        <pt x="139" y="473" on="1"/>
        <pt x="218" y="509" on="1"/>
        <pt x="303" y="324" on="1"/>
        <pt x="407" y="64" on="1"/>
        <pt x="411" y="64" on="1"/>
        <pt x="584" y="503" on="1"/>
        <pt x="676" y="719" on="1"/>
        <pt x="757" y="685" on="1"/>
        <pt x="666" y="470" on="1"/>
        <pt x="443" y="0" on="1"/>
        <pt x="375" y="0" on="1"/>
      </contour>
    </TTGlyph>
    <TTGlyph name="circumflex" xMin="143" yMin="595" xMax="457" yMax="769">
      <contour>
        <pt x="143" y="615" on="1"/>
        <pt x="269" y="769" on="1"/>
        <pt x="331" y="769" on="1"/>
        <pt x="457" y="615" on="1"/>
        <pt x="429" y="595" on="1"/>
        <pt x="300" y="693" on="1"/>
        <pt x="171" y="595" on="1"/>
      </contour>
    </TTGlyph>
    <TTGlyph name="circumflex.case" xMin="143" yMin="764" xMax="457" yMax="938">
      <contour>
        <pt x="143" y="784" on="1"/>
        <pt x="269" y="938" on="1"/>
        <pt x="331" y="938" on="1"/>
        <pt x="457" y="784" on="1"/>
        <pt x="429" y="764" on="1"/>
        <pt x="300" y="862" on="1"/>
        <pt x="171" y="764" on="1"/>
      </contour>
    </TTGlyph>
    <TTGlyph name="circumflexacute" xMin="-157" yMin="577" xMax="260" yMax="902">
      <contour>
        <pt x="-157" y="597" on="1"/>
        <pt x="-31" y="751" on="1"/>
        <pt x="31" y="751" on="1"/>
        <pt x="157" y="597" on="1"/>
        <pt x="129" y="577" on="1"/>
        <pt x="0" y="679" on="1"/>
        <pt x="-129" y="577" on="1"/>
      </contour>
      <contour>
        <pt x="105" y="723" on="1"/>
        <pt x="181" y="902" on="1"/>
        <pt x="260" y="862" on="1"/>
        <pt x="136" y="708" on="1"/>
      </contour>
    </TTGlyph>
    <TTGlyph name="circumflexacute.case" xMin="-157" yMin="746" xMax="260" yMax="1071">
      <contour>
        <pt x="-157" y="766" on="1"/>
        <pt x="-31" y="920" on="1"/>
        <pt x="31" y="920" on="1"/>
        <pt x="157" y="766" on="1"/>
        <pt x="129" y="746" on="1"/>
        <pt x="0" y="848" on="1"/>
        <pt x="-129" y="746" on="1"/>
      </contour>
      <contour>
        <pt x="105" y="892" on="1"/>
        <pt x="181" y="1071" on="1"/>
        <pt x="260" y="1031" on="1"/>
        <pt x="136" y="877" on="1"/>
      </contour>
    </TTGlyph>
    <TTGlyph name="circumflexbreve" xMin="-157" yMin="577" xMax="157" yMax="906">
      <contour>
        <pt x="0" y="753" on="1"/>
        <pt x="-37" y="753" on="0"/>
        <pt x="-86" y="778" on="0"/>
        <pt x="-119" y="818" on="0"/>
        <pt x="-139" y="866" on="0"/>
        <pt x="-148" y="890" on="1"/>
        <pt x="-117" y="906" on="1"/>
        <pt x="-96" y="868" on="1"/>
        <pt x="-82" y="842" on="0"/>
        <pt x="-41" y="820" on="0"/>
        <pt x="0" y="820" on="1"/>
        <pt x="41" y="820" on="0"/>
        <pt x="82" y="842" on="0"/>
        <pt x="96" y="868" on="1"/>
        <pt x="117" y="906" on="1"/>
        <pt x="148" y="890" on="1"/>
        <pt x="139" y="866" on="0"/>
        <pt x="119" y="818" on="0"/>
        <pt x="86" y="778" on="0"/>
        <pt x="37" y="753" on="0"/>
      </contour>
      <contour>
        <pt x="-157" y="599" on="1"/>
        <pt x="-31" y="720" on="1"/>
        <pt x="31" y="720" on="1"/>
        <pt x="157" y="599" on="1"/>
        <pt x="134" y="577" on="1"/>
        <pt x="0" y="652" on="1"/>
        <pt x="-134" y="577" on="1"/>
      </contour>
    </TTGlyph>
    <TTGlyph name="circumflexbreve.case" xMin="-157" yMin="746" xMax="157" yMax="1075">
      <contour>
        <pt x="0" y="922" on="1"/>
        <pt x="-37" y="922" on="0"/>
        <pt x="-86" y="947" on="0"/>
        <pt x="-119" y="987" on="0"/>
        <pt x="-139" y="1035" on="0"/>
        <pt x="-148" y="1059" on="1"/>
        <pt x="-117" y="1075" on="1"/>
        <pt x="-96" y="1037" on="1"/>
        <pt x="-82" y="1011" on="0"/>
        <pt x="-41" y="989" on="0"/>
        <pt x="0" y="989" on="1"/>
        <pt x="41" y="989" on="0"/>
        <pt x="82" y="1011" on="0"/>
        <pt x="96" y="1037" on="1"/>
        <pt x="117" y="1075" on="1"/>
        <pt x="148" y="1059" on="1"/>
        <pt x="139" y="1035" on="0"/>
        <pt x="119" y="987" on="0"/>
        <pt x="86" y="947" on="0"/>
        <pt x="37" y="922" on="0"/>
      </contour>
      <contour>
        <pt x="-157" y="768" on="1"/>
        <pt x="-31" y="889" on="1"/>
        <pt x="31" y="889" on="1"/>
        <pt x="157" y="768" on="1"/>
        <pt x="134" y="746" on="1"/>
        <pt x="0" y="821" on="1"/>
        <pt x="-134" y="746" on="1"/>
      </contour>
    </TTGlyph>
    <TTGlyph name="circumflexcomb" xMin="-157" yMin="595" xMax="157" yMax="769">
      <component glyphName="circumflex" x="-300" y="0" flags="0x4"/>
    </TTGlyph>
    <TTGlyph name="circumflexgrave" xMin="-260" yMin="577" xMax="157" yMax="902">
      <contour>
        <pt x="-157" y="597" on="1"/>
        <pt x="-31" y="751" on="1"/>
        <pt x="31" y="751" on="1"/>
        <pt x="157" y="597" on="1"/>
        <pt x="129" y="577" on="1"/>
        <pt x="0" y="679" on="1"/>
        <pt x="-129" y="577" on="1"/>
      </contour>
      <contour>
        <pt x="-260" y="862" on="1"/>
        <pt x="-181" y="902" on="1"/>
        <pt x="-105" y="723" on="1"/>
        <pt x="-136" y="708" on="1"/>
      </contour>
    </TTGlyph>
</ttFont>
